<?xml version="1.0" encoding="utf-8"?>
<!-- Generator: Adobe Illustrator 25.4.1, SVG Export Plug-In . SVG Version: 6.00 Build 0)  -->
<svg version="1.1" id="Layer_1" xmlns="http://www.w3.org/2000/svg" xmlns:xlink="http://www.w3.org/1999/xlink" x="0px" y="0px"
	 viewBox="0 0 1063 1024" style="enable-background:new 0 0 1063 1024;" xml:space="preserve">
<style type="text/css">
	.st0{fill-rule:evenodd;clip-rule:evenodd;fill:#DCF0F6;}
	.st1{fill:none;stroke:#231F20;stroke-width:1.5;stroke-linecap:square;}
	.st2{fill-rule:evenodd;clip-rule:evenodd;fill:#F5E69D;}
	.st3{fill-rule:evenodd;clip-rule:evenodd;fill:#E3ECDF;}
	.st4{fill:#231F20;}
	.st5{fill-rule:evenodd;clip-rule:evenodd;fill:#F7E1DA;}
	.st6{fill:none;stroke:#212121;stroke-width:1.652;stroke-linecap:round;stroke-linejoin:round;}
</style>
<g>
	<desc>Created with Sketch.</desc>
	<g id="Welcome">
		<g id="Desktop" transform="translate(-60.000000, -803.000000)">
			<g id="Group-34" transform="translate(60.000000, 803.000000)">
				<g id="Group-7">
					<g id="Page-1_2_" transform="translate(310.000000, 149.000000)">
						<g id="Group-3_2_" transform="translate(9.729084, 0.000000)">
							<g id="Clip-2_2_">
							</g>
							<path id="Fill-1_2_" class="st0" d="M712.9,336.1c0,61.8-50.2,111.9-112.1,111.9s-112.1-50.1-112.1-111.9
								s50.2-111.9,112.1-111.9C662.7,224.3,712.9,274.4,712.9,336.1"/>
						</g>
						<g id="Clip-14">
						</g>
						<path id="Stroke-26" class="st1" d="M606.5,347.4l19.6-16.2c1.1-0.9,0.9-2.6-0.3-3.3l-11.3-6.2l14.9-20.8
							c1.1-1.6,0.5-3.7-1.3-4.6l-16.3-8.1c-1.7-0.9-3.8-0.6-5.2,0.8l-14.3,13.4"/>
						<path id="Stroke-27" class="st1" d="M595,306.4l12.8-9.4c0.8-0.6,1.8-0.6,2.6-0.1l3,1.9l-12.9,18.8l-27,29.7"/>
						<path id="Stroke-28" class="st1" d="M581.2,349.6l22.2-19.9"/>
						<path id="Stroke-29" class="st1" d="M601.1,325.3l12.9,5.3c0.5,0.2,0.6,0.9,0.2,1.3L600,346.3"/>
						<path id="Stroke-30" class="st1" d="M628.8,306.5l0.5,1.4c0.2,0.6,0.9,1.1,1.7,1.2l14.4,1.8"/>
						<path id="Stroke-31" class="st1" d="M644.3,316.5H627c-0.7,0-1.3-0.3-1.7-0.9l-0.9-1.3"/>
						<path id="Stroke-32" class="st1" d="M635.5,284.4c0,3.7-3,6.6-6.6,6.6c-3.7,0-6.6-3-6.6-6.6s3-6.6,6.6-6.6
							S635.5,280.7,635.5,284.4z"/>
						<path id="Stroke-33_1_" class="st1" d="M587.8,284.4h11.1"/>
						<path id="Stroke-34" class="st1" d="M580.1,292.1h15.5"/>
						<path id="Stroke-35_1_" class="st1" d="M580.1,313.1h15.5"/>
						<path id="Stroke-36" class="st1" d="M571.2,320.9h15.5"/>
					</g>
					<g id="Page-1" transform="translate(0.000000, 152.000000)">
						<g id="Group-32" transform="translate(7.865546, 0.000000)">
							<g id="Clip-31">
							</g>
							<path id="Fill-30" class="st2" d="M235.2,336.2c0,59.3-48.4,107.4-108,107.4s-108-48.1-108-107.4s48.4-107.4,108-107.4
								S235.2,276.9,235.2,336.2"/>
						</g>
						<path id="Stroke-33" class="st1" d="M126.4,351.1H93.6v-3.5c0-8.9,7.3-16.1,16.2-16.1c9.2,0,16.6,7.4,16.6,16.4V351.1z"/>
						<path id="Stroke-35" class="st1" d="M118.7,316.8c0,5.1-4.2,9.2-9.3,9.2c-5.1,0-9.3-4.1-9.3-9.2s4.2-9.2,9.3-9.2
							C114.6,307.6,118.7,311.7,118.7,316.8z"/>
						<path id="Stroke-37" class="st1" d="M177.9,351.1H145v-3.5c0-8.9,7.3-16.1,16.2-16.1c9.2,0,16.6,7.4,16.6,16.4L177.9,351.1
							L177.9,351.1z"/>
						<path id="Stroke-39" class="st1" d="M170.2,316.8c0,5.1-4.2,9.2-9.3,9.2s-9.3-4.1-9.3-9.2s4.2-9.2,9.3-9.2
							C166,307.6,170.2,311.7,170.2,316.8z"/>
						<path id="Stroke-41" class="st1" d="M158.2,277.8c0-8.8-10.8-16-24.1-16s-24.1,7.1-24.1,16c0,5,3.5,9.5,8.9,12.4l-0.4,9.7
							l7.7-7c2.5,0.6,5.1,0.9,7.9,0.9c2.5,0,4.9-0.3,7.1-0.7l7.5,6.9l-0.3-9.3C154.3,287.8,158.2,283.1,158.2,277.8z"/>
					</g>
					<g id="Page-1_1_" transform="translate(155.000000, 0.000000)">
						<g id="Group-3_1_">
							<g id="Clip-2_1_">
							</g>
							<path id="Fill-1_1_" class="st3" d="M462.7,110.8c0,61.2-49.8,110.8-111.1,110.8S240.4,172,240.4,110.8S290.2,0,351.5,0
								S462.7,49.6,462.7,110.8"/>
						</g>
						<g id="Clip-13">
						</g>
						<path id="Stroke-18" class="st1" d="M372.4,78.5c0,10.7-8.7,19.3-19.4,19.3c-10.7,0-19.4-8.7-19.4-19.3
							c0-10.7,8.7-19.3,19.4-19.3C363.7,59.2,372.4,67.8,372.4,78.5z"/>
						<path id="Stroke-19" class="st1" d="M343.6,74.7c1-3.2,3.5-5.7,6.7-6.6"/>
						<path id="Stroke-20" class="st1" d="M381.3,78c0,15.3-12.4,27.6-27.7,27.6S325.9,93.2,325.9,78s12.4-27.6,27.7-27.6
							S381.3,62.7,381.3,78z"/>
						<path id="Stroke-21" class="st1" d="M389.5,82.4h5.1V54.8c0,0-5,0.7-6.9,7.6c-1.5,5.5-0.9,11.8,0.3,15.2"/>
						<polygon id="Stroke-22" class="st1" points="389,105.6 394.6,105.6 394.6,82.4 389,82.4 						"/>
						<polyline id="Stroke-23" class="st1" points="312.5,72.5 312.5,105.6 318.1,105.6 318.1,77.5 						"/>
						<path id="Stroke-24" class="st1" d="M319.2,59.2v9.2c0,2.2-1.9,4.1-4.2,4.1h-2.8c-2.3,0-4.2-1.8-4.2-4.1v-9.2"/>
						<path id="Stroke-25" class="st1" d="M314.7,68v-8.8"/>
						<g>
							<path class="st4" d="M633.6,520.5h2.6l7.3,17H640l-1.6-3.9H631l-1.5,3.9h-3.4L633.6,520.5z M637.5,531l-2.6-6.9l-2.7,6.9
								H637.5z"/>
							<path class="st4" d="M659.5,524.5c-0.4-0.6-1-1.1-1.8-1.3c-0.7-0.3-1.4-0.4-2.1-0.4c-0.9,0-1.7,0.2-2.4,0.5s-1.3,0.8-1.9,1.3
								c-0.5,0.6-0.9,1.2-1.2,2s-0.4,1.6-0.4,2.4c0,0.9,0.1,1.8,0.4,2.5c0.3,0.8,0.7,1.4,1.2,2s1.1,1,1.8,1.3s1.5,0.5,2.4,0.5
								s1.7-0.2,2.4-0.5c0.7-0.4,1.3-0.8,1.7-1.4l2.4,1.7c-0.8,0.9-1.7,1.7-2.8,2.2s-2.4,0.8-3.8,0.8c-1.3,0-2.5-0.2-3.7-0.7
								c-1.1-0.4-2.1-1.1-2.9-1.8c-0.8-0.8-1.4-1.7-1.9-2.8c-0.4-1.1-0.7-2.3-0.7-3.6c0-1.4,0.2-2.6,0.7-3.7c0.5-1.1,1.1-2,1.9-2.8
								c0.8-0.8,1.8-1.4,2.9-1.8c1.1-0.4,2.3-0.6,3.7-0.6c0.5,0,1.1,0.1,1.7,0.2c0.6,0.1,1.2,0.3,1.7,0.5s1.1,0.5,1.5,0.8
								c0.5,0.3,0.9,0.7,1.2,1.2L659.5,524.5z"/>
							<path class="st4" d="M669.6,523.2h-5.2v-2.6h13.4v2.6h-5.2v14.4h-3V523.2z"/>
							<path class="st4" d="M682.2,520.5h3v17h-3V520.5z"/>
							<path class="st4" d="M689.3,520.5h3.4l4.7,13.1h0.1l4.7-13.1h3.3l-6.8,17H696L689.3,520.5z"/>
							<path class="st4" d="M709.5,520.5h3v17h-3V520.5z"/>
							<path class="st4" d="M722.1,523.2h-5.2v-2.6h13.4v2.6h-5.2v14.4h-3V523.2z"/>
							<path class="st4" d="M734.7,520.5H746v2.6h-8.2v4.3h7.8v2.5h-7.8v4.8h8.7v2.7h-11.7L734.7,520.5L734.7,520.5z M741.3,515.7
								h3.3l-3.4,3.5h-2.3L741.3,515.7z"/>
							<path class="st4" d="M760.2,520.5h5.5c1,0,1.9,0.1,2.6,0.3c0.8,0.2,1.5,0.5,2,0.9c0.6,0.4,1,0.9,1.3,1.5s0.5,1.4,0.5,2.3
								c0,0.9-0.2,1.7-0.5,2.4c-0.4,0.6-0.8,1.2-1.4,1.5c-0.6,0.4-1.3,0.7-2.1,0.9s-1.6,0.3-2.5,0.3h-2.3v7h-3L760.2,520.5
								L760.2,520.5z M765.3,527.9c0.5,0,1,0,1.4-0.1s0.8-0.2,1.2-0.4s0.6-0.4,0.8-0.8c0.2-0.3,0.3-0.7,0.3-1.2s-0.1-0.9-0.3-1.2
								s-0.5-0.6-0.8-0.7c-0.3-0.2-0.7-0.3-1.2-0.3c-0.4-0.1-0.9-0.1-1.4-0.1h-2.2v4.9h2.2V527.9z"/>
							<path class="st4" d="M777.2,520.5h3v6.9h7.9v-6.9h3v17h-3V530h-7.9v7.5h-3V520.5z"/>
							<path class="st4" d="M801.5,530.1l-6.4-9.6h3.7l4.3,7.2l4.3-7.2h3.5l-6.4,9.6v7.4h-3L801.5,530.1L801.5,530.1z"/>
							<path class="st4" d="M823.4,524.1c-0.3-0.4-0.8-0.8-1.4-1c-0.6-0.3-1.2-0.4-1.8-0.4c-0.4,0-0.7,0-1.1,0.1
								c-0.4,0.1-0.7,0.2-1,0.4s-0.5,0.4-0.7,0.7s-0.3,0.7-0.3,1.1c0,0.4,0.1,0.7,0.2,1c0.2,0.3,0.4,0.5,0.7,0.7s0.6,0.4,1,0.5
								s0.8,0.3,1.3,0.4c0.5,0.2,1.1,0.4,1.7,0.6c0.6,0.2,1.1,0.5,1.6,0.9s0.9,0.8,1.2,1.4c0.3,0.6,0.5,1.3,0.5,2.1
								c0,0.9-0.2,1.7-0.5,2.4s-0.8,1.2-1.3,1.7c-0.6,0.4-1.2,0.8-2,1s-1.5,0.3-2.4,0.3c-1.1,0-2.2-0.2-3.2-0.6
								c-1.1-0.4-1.9-1-2.6-1.8l2.2-2c0.4,0.6,1,1,1.7,1.4c0.7,0.3,1.4,0.5,2.1,0.5c0.4,0,0.7,0,1.1-0.1s0.7-0.2,1-0.4
								s0.5-0.5,0.7-0.8s0.3-0.7,0.3-1.2c0-0.4-0.1-0.8-0.3-1.1s-0.5-0.6-0.8-0.8c-0.4-0.2-0.8-0.4-1.2-0.6c-0.5-0.2-1-0.3-1.5-0.5
								s-1-0.4-1.5-0.6c-0.5-0.2-1-0.5-1.4-0.9s-0.7-0.8-1-1.4c-0.3-0.5-0.4-1.2-0.4-2c0-0.9,0.2-1.6,0.5-2.2
								c0.4-0.6,0.8-1.1,1.4-1.5c0.6-0.4,1.2-0.7,2-0.9s1.5-0.3,2.3-0.3c0.9,0,1.7,0.2,2.6,0.5c0.9,0.3,1.7,0.8,2.3,1.4L823.4,524.1
								z"/>
							<path class="st4" d="M830.9,520.5h3v17h-3V520.5z"/>
							<path class="st4" d="M858.4,537.5h-10.3c-1.4,0-2.6-0.2-3.7-0.6c-1.1-0.4-2.1-1-2.9-1.7c-0.8-0.7-1.4-1.7-1.8-2.7
								c-0.4-1.1-0.6-2.3-0.6-3.7c0-1.3,0.2-2.5,0.7-3.5c0.5-1.1,1.1-2,1.9-2.7c0.8-0.8,1.8-1.4,2.9-1.8c1.1-0.4,2.3-0.6,3.6-0.6
								s2.5,0.2,3.6,0.6c1.1,0.4,2.1,1,2.9,1.8c0.8,0.8,1.4,1.7,1.9,2.7c0.4,1.1,0.7,2.2,0.7,3.5c0,0.8-0.1,1.5-0.3,2.1
								s-0.4,1.2-0.7,1.7s-0.6,1-1,1.4s-0.7,0.7-1.1,1l0,0h4.2L858.4,537.5L858.4,537.5z M848.2,522.8c-0.8,0-1.6,0.2-2.3,0.5
								s-1.3,0.7-1.8,1.2s-0.9,1.2-1.2,1.9s-0.4,1.5-0.4,2.4s0.1,1.7,0.4,2.5c0.3,0.7,0.7,1.4,1.2,1.9s1.1,0.9,1.8,1.2
								s1.5,0.4,2.3,0.4s1.6-0.1,2.3-0.4c0.7-0.3,1.3-0.7,1.8-1.2s0.9-1.2,1.2-1.9s0.4-1.6,0.4-2.5s-0.1-1.7-0.4-2.4
								c-0.3-0.7-0.7-1.4-1.2-1.9s-1.1-0.9-1.8-1.2C849.8,522.9,849.1,522.8,848.2,522.8z"/>
							<path class="st4" d="M876.5,531.3c0,1-0.2,1.9-0.5,2.8c-0.4,0.8-0.8,1.5-1.4,2.1c-0.6,0.6-1.3,1-2.2,1.3
								c-0.8,0.3-1.7,0.5-2.7,0.5s-1.9-0.2-2.7-0.5s-1.6-0.8-2.2-1.3c-0.6-0.6-1.1-1.3-1.4-2.1c-0.3-0.8-0.5-1.7-0.5-2.8v-10.8h3
								v10.6c0,0.5,0.1,1,0.2,1.5c0.1,0.5,0.3,0.9,0.6,1.3c0.3,0.4,0.7,0.7,1.2,0.9s1.1,0.4,1.8,0.4s1.3-0.1,1.8-0.4
								c0.5-0.2,0.9-0.6,1.2-0.9c0.3-0.4,0.5-0.8,0.6-1.3s0.2-1,0.2-1.5v-10.6h3L876.5,531.3L876.5,531.3z"/>
							<path class="st4" d="M882.5,520.5h11.3v2.6h-8.2v4.3h7.8v2.5h-7.8v4.8h8.7v2.7h-11.7L882.5,520.5L882.5,520.5z"/>
						</g>
					</g>
					<g id="Page-1_3_" transform="translate(155.000000, 322.000000)">
						<g id="Group-3_3_">
							<g id="Clip-2_3_">
							</g>
							<path id="Fill-1_3_" class="st5" d="M460.4,593.3c0,60.1-49.2,108.7-110,108.7s-110-48.7-110-108.7
								c0-60.1,49.2-108.7,110-108.7S460.4,533.2,460.4,593.3"/>
						</g>
						<polyline id="Stroke-14" class="st1" points="302.4,566.2 312.4,584.3 312.4,616.6 						"/>
						<path id="Stroke-16" class="st1" d="M391.1,577.1v39.4"/>
						<path id="Stroke-18_1_" class="st1" d="M314.6,603.4H339"/>
						<path id="Stroke-20_1_" class="st1" d="M314.6,596.9H339"/>
						<path id="Stroke-22_1_" class="st1" d="M388.9,608.9v-17.1c0-5.1-4-9.2-9-9.2H340c-1.1,0-2,0.9-2,2.1V607c0,1.1,0.9,2,1.9,2
							L388.9,608.9L388.9,608.9z"/>
						<path id="Stroke-24_1_" class="st1" d="M326.8,577.1c0,3-2.5,5.5-5.5,5.5c-3.1,0-5.5-2.5-5.5-5.5s2.5-5.5,5.5-5.5
							C324.3,571.7,326.8,574.1,326.8,577.1z"/>
						<path id="Stroke-26_1_" class="st1" d="M315.7,588.1h8c2.9,0,5.3,2.5,5.3,5.5"/>
						<polyline id="Stroke-28_1_" class="st1" points="331.2,578.2 334.1,578.2 339,582.6 						"/>
						<path id="Stroke-30_1_" class="st1" d="M326.8,562.9h5.3c0.1,0,0.2,0.1,0.1,0.2c-0.8,0.8-4,4-4.9,5c-0.1,0.1,0,0.3,0.1,0.3
							c1.2,0,5,0,5,0"/>
						<path id="Stroke-32_1_" class="st1" d="M337.9,545.4h7.4c0.1,0,0.2,0.2,0.1,0.3c-1.4,1.4-7.5,7.4-7.5,7.4h7.8"/>
						<path id="Stroke-34_1_" class="st1" d="M355.6,534.4h10.5c0.2,0,0.3,0.2,0.2,0.4c-2,1.8-10.6,9.5-10.6,9.5h11"/>
					</g>
				</g>
				<g id="Page-1_4_" transform="translate(163.000000, 164.000000)">
					<path id="Stroke-1" class="st6" d="M336.1,481.7h69.4l2.3-33c1.1-15,6.9-29.1,16.3-40.8c25.9-32.1,23.7-80.1,23.7-80.1
						c0-47.4-38-81.6-85.6-81.6c-56.9,0-90.9,34-90.9,90.8L253,389.6c-2,5,1.7,10.4,7.1,10.4h19l6.2,40.2c1,6.5,6.6,11.2,13.1,11.2
						h27.5L336.1,481.7z"/>
					<path id="Stroke-3" class="st6" d="M427.8,324.2c0-5.1-2.5-9.6-6.4-12.4c2.2-2.6,3.5-6,3.5-9.6c0-8.4-7-15.3-15.6-15.3
						c-0.5,0-1,0-1.5,0.1c-0.2-8.3-7.1-14.9-15.6-14.9c-3.1,0-5.9,0.9-8.3,2.4c-2.6-4.9-7.8-8.3-13.8-8.3c-5.2,0-9.9,2.5-12.7,6.4
						c-2.8-2.9-6.8-4.7-11.3-4.7c-7.9,0-14.4,5.7-15.4,13.2c-2.6-1.5-5.7-2.2-8.9-2c-7.7,0.6-13.9,6.7-14.3,14.3
						c-0.2,2.4,0.2,4.6,1.1,6.7c-8.1,1.1-14.2,8.2-13.4,16.7c0.7,7.1,6.5,12.9,13.8,13.7c2.3,0.2,4.4,0,6.4-0.6
						c-0.2,0.9-0.3,1.8-0.3,2.7c0,8.4,7.5,14.6,17.5,16.4l18,2c9,1,13.4-2.2,16.3-5.1c1.1,7.3,4.5,12.4,15.4,12.9l11.2-1.4
						c0,0,7.9,5.2,8.4,21.7c0.1,2,1.3,3.8,3.2,4.5c2.8,1.1,6.1-0.4,6.9-3.3l4.4-15.9c0.6-2.3,1.8-4.5,3.4-6.3c2.2-2.6,3.5-6,3.5-9.7
						c0-4-1.6-7.6-4.1-10.3C424.2,335.5,427.8,330.3,427.8,324.2z"/>
					<path id="Stroke-5" class="st6" d="M390.2,271.2c0,0-21,2.1-17,27.6"/>
					<path id="Stroke-7" class="st6" d="M365.2,308.8c0,0,9.2-11.3,17.5,0"/>
					<path id="Stroke-9" class="st6" d="M357.7,271.2l-5,15"/>
					<path id="Stroke-11" class="st6" d="M328,283.8c0,0-2.9,13.7,7.1,17.5"/>
					<path id="Stroke-13" class="st6" d="M315.1,331.4c0,0,7.6-11,17.5-6.4"/>
					<path id="Stroke-15" class="st6" d="M336.8,313.8c0,0-5.4,8.6,3.4,17.5"/>
					<path id="Stroke-17" class="st6" d="M417.8,346.4c0,0-8-19.3-27.6-14.2"/>
					<path id="Stroke-19_1_" class="st6" d="M380.2,323.9c0,0,13.7,6.4,4.1,17.5"/>
					<path id="Stroke-21_1_" class="st6" d="M407.7,288.8c0,0,1.2,13.6-10,17.5"/>
					<path id="Stroke-23_1_" class="st6" d="M366.6,348.9c0,0,5.7-11.3-8.9-17.5"/>
					<path id="Stroke-25_1_" class="st6" d="M307.6,301.3c0,0,4.4,3.9,10,5"/>
					<path id="Stroke-27_1_" class="st6" d="M417.8,311.3l-10,3.2"/>
				</g>
			</g>
		</g>
	</g>
</g>
<g>
	<path class="st4" d="M413.7,129.5h5.2l10.2,16.5h0.1v-16.5h3.9v22h-5l-10.5-17h-0.1v17h-3.9L413.7,129.5L413.7,129.5z"/>
	<path class="st4" d="M458.7,143.4c0,1.3-0.2,2.5-0.7,3.6s-1.1,2-1.9,2.7s-1.7,1.3-2.8,1.7c-1.1,0.4-2.3,0.6-3.5,0.6
		c-1.3,0-2.4-0.2-3.5-0.6c-1.1-0.4-2-1-2.8-1.7s-1.4-1.7-1.9-2.7c-0.4-1.1-0.7-2.3-0.7-3.6v-13.9h3.9v13.8c0,0.6,0.1,1.3,0.2,1.9
		c0.2,0.6,0.4,1.2,0.8,1.7s0.9,0.9,1.5,1.2s1.4,0.5,2.4,0.5c0.9,0,1.7-0.2,2.4-0.5c0.6-0.3,1.1-0.7,1.5-1.2s0.7-1.1,0.8-1.7
		c0.2-0.6,0.3-1.3,0.3-1.9v-13.8h3.9v13.9H458.7z"/>
	<path class="st4" d="M470.9,132.9h-6.8v-3.4h17.4v3.4h-6.8v18.6h-3.9L470.9,132.9L470.9,132.9z"/>
	<path class="st4" d="M487.2,129.5h7.7c1,0,2,0.1,3,0.3s1.8,0.6,2.6,1.1c0.8,0.5,1.4,1.2,1.8,2c0.5,0.8,0.7,1.8,0.7,3
		c0,1.6-0.5,2.9-1.4,3.9s-2.1,1.7-3.7,2l5.9,9.8h-4.7l-5.1-9.3h-2.9v9.3h-3.9V129.5z M494.4,139c0.6,0,1.1,0,1.7-0.1
		s1.1-0.2,1.5-0.5c0.4-0.2,0.8-0.6,1.1-1c0.3-0.4,0.4-1,0.4-1.6s-0.1-1.1-0.4-1.5s-0.6-0.7-1-0.9s-0.9-0.4-1.4-0.5s-1-0.1-1.5-0.1
		h-3.5v6.2L494.4,139L494.4,139z"/>
	<path class="st4" d="M509.9,129.5h3.9v22h-3.9V129.5z"/>
	<path class="st4" d="M526.3,132.9h-6.8v-3.4H537v3.4h-6.8v18.6h-3.9V132.9z"/>
	<path class="st4" d="M542.6,129.5h3.9v22h-3.9V129.5z"/>
	<path class="st4" d="M553.5,140.5c0-1.8,0.3-3.4,0.9-4.8c0.6-1.4,1.4-2.6,2.5-3.6c1-1,2.3-1.8,3.7-2.3s3-0.8,4.7-0.8
		s3.3,0.3,4.8,0.8s2.7,1.3,3.8,2.3s1.9,2.2,2.5,3.6c0.6,1.4,0.9,3,0.9,4.8c0,1.7-0.3,3.3-0.9,4.7c-0.6,1.4-1.4,2.6-2.5,3.7
		c-1.1,1-2.3,1.8-3.8,2.4c-1.5,0.6-3,0.9-4.8,0.9c-1.7,0-3.3-0.3-4.7-0.9c-1.4-0.6-2.7-1.4-3.7-2.4s-1.9-2.3-2.5-3.7
		C553.8,143.7,553.5,142.2,553.5,140.5z M557.7,140.5c0,1.2,0.2,2.3,0.5,3.3c0.4,1,0.9,1.8,1.6,2.6c0.7,0.7,1.5,1.3,2.4,1.7
		s1.9,0.6,3.1,0.6c1.1,0,2.1-0.2,3.1-0.6c0.9-0.4,1.7-1,2.4-1.7s1.2-1.6,1.6-2.6c0.4-1,0.5-2.1,0.5-3.3c0-1.1-0.2-2.2-0.5-3.2
		c-0.4-1-0.9-1.8-1.5-2.6c-0.7-0.7-1.5-1.3-2.4-1.7s-2-0.6-3.1-0.6s-2.2,0.2-3.1,0.6c-0.9,0.4-1.7,1-2.4,1.7s-1.2,1.6-1.5,2.6
		C557.9,138.3,557.7,139.3,557.7,140.5z"/>
	<path class="st4" d="M584.1,129.5h5.2l10.2,16.5h0.1v-16.5h3.9v22h-5l-10.5-17l0,0v17h-3.9V129.5z"/>
</g>
<g>
	<path class="st4" d="M449.8,957.9c-0.3-0.4-0.8-0.8-1.4-1.1s-1.2-0.4-1.9-0.4c-0.4,0-0.7,0-1.1,0.1s-0.7,0.2-1,0.4
		s-0.6,0.4-0.7,0.8c-0.2,0.3-0.3,0.7-0.3,1.1c0,0.4,0.1,0.7,0.3,1s0.4,0.5,0.7,0.7c0.3,0.2,0.7,0.4,1.1,0.5c0.4,0.2,0.9,0.3,1.4,0.5
		c0.6,0.2,1.2,0.4,1.8,0.6c0.6,0.2,1.2,0.5,1.7,0.9s0.9,0.9,1.3,1.5c0.3,0.6,0.5,1.3,0.5,2.2c0,1-0.2,1.8-0.5,2.5
		c-0.4,0.7-0.8,1.3-1.4,1.8s-1.3,0.8-2.1,1.1c-0.8,0.2-1.6,0.4-2.5,0.4c-1.2,0-2.3-0.2-3.4-0.6c-1.1-0.4-2-1.1-2.7-1.9l2.3-2.1
		c0.4,0.6,1,1.1,1.8,1.4c0.7,0.4,1.5,0.5,2.2,0.5c0.4,0,0.7,0,1.1-0.1s0.7-0.2,1-0.5c0.3-0.2,0.6-0.5,0.8-0.8
		c0.2-0.3,0.3-0.7,0.3-1.2s-0.1-0.9-0.3-1.2c-0.2-0.3-0.5-0.6-0.9-0.8s-0.8-0.4-1.3-0.6c-0.5-0.2-1-0.3-1.6-0.5
		c-0.5-0.2-1.1-0.4-1.6-0.6c-0.5-0.2-1-0.5-1.4-0.9s-0.8-0.9-1-1.4c-0.3-0.6-0.4-1.3-0.4-2.1c0-0.9,0.2-1.7,0.6-2.3
		c0.4-0.7,0.9-1.2,1.5-1.6c0.6-0.4,1.3-0.7,2.1-1c0.8-0.2,1.6-0.3,2.4-0.3c0.9,0,1.8,0.2,2.8,0.5c0.9,0.3,1.7,0.8,2.4,1.4
		L449.8,957.9z"/>
	<path class="st4" d="M456.9,963.1c0-1.4,0.2-2.7,0.7-3.9s1.1-2.1,2-2.9c0.8-0.8,1.9-1.4,3-1.9c1.2-0.4,2.4-0.7,3.8-0.7
		s2.7,0.2,3.9,0.7c1.2,0.4,2.2,1.1,3.1,1.9c0.9,0.8,1.5,1.8,2,2.9c0.5,1.2,0.7,2.4,0.7,3.9c0,1.4-0.2,2.7-0.7,3.8
		c-0.5,1.2-1.1,2.1-2,3c-0.9,0.8-1.9,1.5-3.1,1.9c-1.2,0.5-2.5,0.7-3.9,0.7s-2.7-0.2-3.8-0.7c-1.2-0.5-2.2-1.1-3-1.9
		c-0.8-0.8-1.5-1.8-2-3C457.1,965.7,456.9,964.5,456.9,963.1z M460.3,963.1c0,1,0.1,1.8,0.4,2.6s0.7,1.5,1.3,2.1
		c0.5,0.6,1.2,1,1.9,1.4c0.7,0.3,1.6,0.5,2.5,0.5s1.7-0.2,2.5-0.5s1.4-0.8,2-1.4c0.5-0.6,1-1.3,1.3-2.1s0.4-1.7,0.4-2.6
		c0-0.9-0.1-1.8-0.4-2.6s-0.7-1.5-1.2-2.1s-1.2-1-1.9-1.4s-1.6-0.5-2.5-0.5s-1.8,0.2-2.5,0.5s-1.4,0.8-1.9,1.4
		c-0.5,0.6-1,1.3-1.2,2.1C460.5,961.3,460.3,962.1,460.3,963.1z"/>
	<path class="st4" d="M481.7,954.2h5l4.6,12.7h0.1l4.6-12.7h5V972h-3.2v-14.3l0,0l-5.4,14.3h-2.2l-5.3-14.3h-0.1V972h-3v-17.8H481.7
		z"/>
	<path class="st4" d="M507.4,954.2h5l4.6,12.7h0.1l4.6-12.7h5V972h-3.2v-14.3l0,0L518,972h-2.2l-5.3-14.3h-0.1V972h-3V954.2z"/>
	<path class="st4" d="M533.1,954.2h11.8v2.8h-8.6v4.5h8.2v2.7h-8.2v5h9.1v2.8h-12.3V954.2z"/>
	<path class="st4" d="M551,954.2h3.2V972H551V954.2z"/>
	<path class="st4" d="M560.6,954.2h3.2v15h7.6v2.8h-10.8V954.2z"/>
</g>
<g>
	<path class="st4" d="M46.1,531.2c-0.4-0.4-0.8-0.8-1.3-1c-0.5-0.2-1.1-0.3-1.8-0.3c-0.7,0-1.3,0.1-1.9,0.4
		c-0.6,0.3-1.1,0.6-1.5,1.1c-0.4,0.5-0.8,1-1,1.7c-0.2,0.7-0.4,1.4-0.4,2.1c0,0.8,0.1,1.5,0.4,2.1c0.2,0.6,0.6,1.2,1,1.7
		c0.4,0.5,0.9,0.8,1.5,1.1c0.6,0.3,1.2,0.4,1.8,0.4c0.7,0,1.4-0.2,2-0.5c0.6-0.3,1-0.7,1.4-1.3l3,2.3c-0.7,1-1.6,1.7-2.6,2.2
		c-1.1,0.5-2.2,0.7-3.3,0.7c-1.3,0-2.5-0.2-3.6-0.6c-1.1-0.4-2-1-2.8-1.7c-0.8-0.8-1.4-1.7-1.8-2.7c-0.4-1.1-0.7-2.3-0.7-3.6
		c0-1.3,0.2-2.5,0.7-3.6c0.4-1.1,1.1-2,1.8-2.7c0.8-0.8,1.7-1.3,2.8-1.7c1.1-0.4,2.3-0.6,3.6-0.6c0.5,0,0.9,0,1.5,0.1
		c0.5,0.1,1,0.2,1.5,0.4c0.5,0.2,1,0.4,1.4,0.7c0.4,0.3,0.9,0.7,1.2,1.1L46.1,531.2z"/>
	<path class="st4" d="M54,535.2c0-1.3,0.2-2.5,0.7-3.6c0.4-1.1,1.1-2,1.8-2.7c0.8-0.8,1.7-1.3,2.8-1.7c1.1-0.4,2.3-0.6,3.6-0.6
		c1.3,0,2.5,0.2,3.6,0.6c1.1,0.4,2,1,2.8,1.7c0.8,0.8,1.4,1.7,1.8,2.7c0.4,1.1,0.7,2.3,0.7,3.6c0,1.3-0.2,2.5-0.7,3.6
		c-0.4,1.1-1.1,2-1.8,2.7c-0.8,0.8-1.7,1.3-2.8,1.7c-1.1,0.4-2.3,0.6-3.6,0.6c-1.3,0-2.5-0.2-3.6-0.6c-1.1-0.4-2-1-2.8-1.7
		c-0.8-0.8-1.4-1.7-1.8-2.7C54.2,537.7,54,536.5,54,535.2z M57.8,535.2c0,0.8,0.1,1.5,0.4,2.1c0.2,0.6,0.6,1.2,1,1.7
		c0.4,0.5,1,0.8,1.6,1.1c0.6,0.3,1.3,0.4,2.1,0.4c0.8,0,1.5-0.1,2.1-0.4c0.6-0.3,1.2-0.6,1.6-1.1c0.4-0.5,0.8-1,1-1.7
		c0.2-0.6,0.4-1.3,0.4-2.1c0-0.8-0.1-1.5-0.4-2.1c-0.2-0.7-0.6-1.2-1-1.7c-0.4-0.5-1-0.8-1.6-1.1c-0.6-0.3-1.3-0.4-2.1-0.4
		c-0.8,0-1.5,0.1-2.1,0.4c-0.6,0.3-1.2,0.6-1.6,1.1c-0.4,0.5-0.8,1-1,1.7C57.9,533.7,57.8,534.4,57.8,535.2z"/>
	<path class="st4" d="M91.7,537.1c0,1-0.1,1.9-0.4,2.7c-0.3,0.8-0.7,1.5-1.3,2.1c-0.6,0.6-1.3,1.1-2.2,1.4c-0.9,0.3-1.9,0.5-3,0.5
		c-1.1,0-2.2-0.2-3-0.5c-0.9-0.3-1.6-0.8-2.2-1.4c-0.6-0.6-1-1.3-1.3-2.1s-0.4-1.7-0.4-2.7V527h3.6v10c0,0.5,0.1,1,0.2,1.4
		c0.2,0.4,0.4,0.8,0.7,1.1c0.3,0.3,0.6,0.6,1.1,0.7c0.4,0.2,0.9,0.3,1.3,0.3c0.5,0,0.9-0.1,1.3-0.3c0.4-0.2,0.8-0.4,1-0.7
		c0.3-0.3,0.5-0.7,0.7-1.1c0.2-0.4,0.2-0.9,0.2-1.4v-10h3.6V537.1z"/>
	<path class="st4" d="M98.6,527h4.9l7,11.4h0V527h3.6v16.4h-4.7l-7.2-11.7h0v11.7h-3.6V527z"/>
	<path class="st4" d="M129.3,531c-0.3-0.4-0.7-0.6-1.2-0.8c-0.5-0.2-1-0.3-1.4-0.3c-0.3,0-0.5,0-0.8,0.1c-0.3,0.1-0.5,0.2-0.8,0.3
		c-0.2,0.1-0.4,0.3-0.6,0.5c-0.2,0.2-0.2,0.5-0.2,0.8c0,0.5,0.2,0.9,0.6,1.1c0.4,0.3,0.8,0.5,1.4,0.7c0.6,0.2,1.2,0.4,1.8,0.6
		c0.7,0.2,1.3,0.4,1.8,0.8c0.6,0.3,1,0.8,1.4,1.4c0.4,0.6,0.6,1.3,0.6,2.3c0,0.9-0.2,1.7-0.5,2.4c-0.3,0.7-0.8,1.2-1.4,1.7
		c-0.6,0.4-1.3,0.8-2,1c-0.8,0.2-1.6,0.3-2.4,0.3c-1.1,0-2.1-0.2-3-0.5s-1.8-0.9-2.6-1.6l2.6-2.8c0.4,0.5,0.8,0.9,1.4,1.2
		c0.6,0.3,1.1,0.4,1.8,0.4c0.3,0,0.6,0,0.9-0.1c0.3-0.1,0.6-0.2,0.8-0.3c0.2-0.1,0.4-0.3,0.6-0.5c0.1-0.2,0.2-0.5,0.2-0.8
		c0-0.5-0.2-0.9-0.6-1.2c-0.4-0.3-0.9-0.5-1.4-0.7c-0.6-0.2-1.2-0.4-1.9-0.6c-0.7-0.2-1.3-0.5-1.9-0.8c-0.6-0.3-1-0.8-1.4-1.3
		c-0.4-0.6-0.6-1.3-0.6-2.2c0-0.9,0.2-1.7,0.5-2.3c0.3-0.7,0.8-1.2,1.4-1.7c0.6-0.4,1.2-0.8,2-1c0.8-0.2,1.5-0.3,2.3-0.3
		c0.9,0,1.8,0.1,2.7,0.4c0.9,0.3,1.6,0.7,2.3,1.3L129.3,531z"/>
	<path class="st4" d="M138.2,527h11.2v3.3h-7.5v3.1h7.1v3.3h-7.1v3.3h8v3.3h-11.6V527z"/>
	<path class="st4" d="M156.4,527h3.6v13.1h6.7v3.3h-10.3V527z"/>
	<path class="st4" d="M172.3,527h3.6v16.4h-3.6V527z"/>
	<path class="st4" d="M182.8,527h4.9l7,11.4h0V527h3.6v16.4h-4.7l-7.2-11.7h0v11.7h-3.6V527z"/>
	<path class="st4" d="M220.3,542.2c-1.1,0.6-2.2,1-3.3,1.2c-1.2,0.2-2.3,0.4-3.6,0.4c-1.3,0-2.5-0.2-3.6-0.6c-1.1-0.4-2-1-2.8-1.7
		c-0.8-0.8-1.4-1.7-1.8-2.7c-0.4-1.1-0.7-2.3-0.7-3.6c0-1.3,0.2-2.5,0.7-3.6c0.4-1.1,1.1-2,1.8-2.7c0.8-0.8,1.7-1.3,2.8-1.7
		c1.1-0.4,2.3-0.6,3.6-0.6c1.3,0,2.5,0.2,3.6,0.5c1.1,0.3,2.1,0.9,2.9,1.6l-2.6,2.8c-0.5-0.5-1.1-0.9-1.7-1.2
		c-0.6-0.3-1.4-0.4-2.3-0.4c-0.8,0-1.5,0.1-2.1,0.4c-0.6,0.3-1.2,0.6-1.6,1.1c-0.4,0.5-0.8,1-1,1.7c-0.2,0.7-0.4,1.4-0.4,2.1
		c0,0.8,0.1,1.5,0.4,2.1c0.2,0.6,0.6,1.2,1,1.7c0.4,0.5,1,0.8,1.6,1.1c0.6,0.3,1.3,0.4,2.1,0.4c0.8,0,1.5-0.1,2-0.3
		c0.6-0.2,1-0.4,1.4-0.5V537h-2.9v-3.3h6.4V542.2z"/>
	<path class="st4" d="M242.7,525.7l2.6,0.8l-7,18.1l-2.6-0.8L242.7,525.7z"/>
	<path class="st4" d="M74.8,558h-4.7v-3.2h13v3.2h-4.7v13.2h-3.6V558z"/>
	<path class="st4" d="M88.5,554.8h3.6v6.1h7v-6.1h3.6v16.4h-3.6v-7.1h-7v7.1h-3.6V554.8z"/>
	<path class="st4" d="M109.9,554.8h11.2v3.3h-7.5v3.1h7.1v3.3h-7.1v3.3h8v3.3h-11.6V554.8z M115.4,550.3h4.7l-4,3.3h-3.1
		L115.4,550.3z"/>
	<path class="st4" d="M128,554.8h6.4c0.8,0,1.6,0.1,2.4,0.2s1.4,0.4,2,0.8c0.6,0.4,1,0.9,1.3,1.5c0.3,0.6,0.5,1.4,0.5,2.4
		c0,1.2-0.3,2.1-0.9,3c-0.6,0.8-1.5,1.3-2.6,1.5l4.2,6.9h-4.3l-3.4-6.6h-1.8v6.6H128V554.8z M131.6,561.6h2.1c0.3,0,0.7,0,1,0
		c0.4,0,0.7-0.1,1-0.2c0.3-0.1,0.5-0.3,0.7-0.5c0.2-0.2,0.3-0.6,0.3-1c0-0.4-0.1-0.8-0.3-1c-0.2-0.2-0.4-0.4-0.7-0.6
		c-0.3-0.1-0.6-0.2-0.9-0.3c-0.3,0-0.7-0.1-1-0.1h-2.4V561.6z"/>
	<path class="st4" d="M152,554.8h3l7.2,16.4h-4.1l-1.4-3.5h-6.4l-1.4,3.5h-4L152,554.8z M153.4,559.6l-2,5.1h4L153.4,559.6z"/>
	<path class="st4" d="M167.4,554.8h6.1c0.9,0,1.7,0.1,2.4,0.2c0.8,0.2,1.4,0.4,2,0.8c0.6,0.4,1,0.9,1.3,1.5c0.3,0.6,0.5,1.5,0.5,2.4
		c0,1-0.2,1.8-0.5,2.4c-0.3,0.7-0.7,1.2-1.3,1.6c-0.5,0.4-1.2,0.7-1.9,0.8c-0.7,0.2-1.5,0.2-2.4,0.2H171v6.4h-3.6V554.8z M171,561.8
		h2.4c0.3,0,0.6,0,0.9-0.1c0.3-0.1,0.6-0.2,0.8-0.3c0.2-0.1,0.4-0.3,0.6-0.6c0.1-0.3,0.2-0.6,0.2-1c0-0.4-0.1-0.8-0.3-1
		c-0.2-0.3-0.4-0.5-0.7-0.6c-0.3-0.1-0.6-0.2-1-0.3c-0.4,0-0.7-0.1-1.1-0.1H171V561.8z"/>
	<path class="st4" d="M185.6,554.8h3.6v16.4h-3.6V554.8z"/>
	<path class="st4" d="M196.3,554.8h11.2v3.3h-7.5v3.1h7.1v3.3h-7.1v3.3h8v3.3h-11.6V554.8z"/>
</g>
</svg>
