<?xml version="1.0" encoding="utf-8"?>
<!-- Generator: Adobe Illustrator 25.4.1, SVG Export Plug-In . SVG Version: 6.00 Build 0)  -->
<svg version="1.1" id="Layer_1" xmlns="http://www.w3.org/2000/svg" xmlns:xlink="http://www.w3.org/1999/xlink" x="0px" y="0px"
	 viewBox="0 0 1063 1024" style="enable-background:new 0 0 1063 1024;" xml:space="preserve">
<style type="text/css">
	.st0{fill-rule:evenodd;clip-rule:evenodd;fill:#F5E69D;}
	.st1{fill:none;stroke:#231F20;stroke-width:1.5;stroke-linecap:square;}
	.st2{fill:#231F20;}
	.st3{fill-rule:evenodd;clip-rule:evenodd;fill:#E3ECDF;}
	.st4{fill-rule:evenodd;clip-rule:evenodd;fill:#231F20;}
	.st5{fill-rule:evenodd;clip-rule:evenodd;fill:#DCF0F6;}
	.st6{fill-rule:evenodd;clip-rule:evenodd;fill:#F7E1DA;}
	.st7{fill:none;stroke:#212121;stroke-width:1.652;stroke-linecap:round;stroke-linejoin:round;}
</style>
<g>
	<desc>Created with Sketch.</desc>
	<g id="Welcome">
		<g id="Desktop" transform="translate(-60.000000, -803.000000)">
			<g id="Group-34" transform="translate(60.000000, 803.000000)">
				<g id="Group-7">
					<g id="Page-1" transform="translate(0.000000, 152.000000)">
						<g id="Group-32" transform="translate(7.865546, 0.000000)">
							<g id="Clip-31">
							</g>
							<path id="Fill-30" class="st0" d="M235.2,336.2c0,59.3-48.4,107.4-108,107.4s-108-48.1-108-107.4s48.4-107.4,108-107.4
								S235.2,276.9,235.2,336.2"/>
						</g>
						<path id="Stroke-33" class="st1" d="M126.4,351.1H93.6v-3.5c0-8.9,7.3-16.1,16.2-16.1c9.2,0,16.6,7.4,16.6,16.4V351.1z"/>
						<path id="Stroke-35" class="st1" d="M118.7,316.8c0,5.1-4.2,9.2-9.3,9.2c-5.1,0-9.3-4.1-9.3-9.2s4.2-9.2,9.3-9.2
							C114.6,307.6,118.7,311.7,118.7,316.8z"/>
						<path id="Stroke-37" class="st1" d="M177.9,351.1H145v-3.5c0-8.9,7.3-16.1,16.2-16.1c9.2,0,16.6,7.4,16.6,16.4L177.9,351.1
							L177.9,351.1z"/>
						<path id="Stroke-39" class="st1" d="M170.2,316.8c0,5.1-4.2,9.2-9.3,9.2s-9.3-4.1-9.3-9.2s4.2-9.2,9.3-9.2
							C166,307.6,170.2,311.7,170.2,316.8z"/>
						<path id="Stroke-41" class="st1" d="M158.2,277.8c0-8.8-10.8-16-24.1-16s-24.1,7.1-24.1,16c0,5,3.5,9.5,8.9,12.4l-0.4,9.7
							l7.7-7c2.5,0.6,5.1,0.9,7.9,0.9c2.5,0,4.9-0.3,7.1-0.7l7.5,6.9l-0.3-9.3C154.3,287.8,158.2,283.1,158.2,277.8z"/>
						<g>
							<path class="st2" d="M44.6,384.9c-0.4-0.4-0.8-0.8-1.3-1s-1.1-0.3-1.8-0.3s-1.3,0.1-1.9,0.4c-0.6,0.3-1.1,0.6-1.5,1.1
								s-0.8,1-1,1.7c-0.2,0.6-0.4,1.3-0.4,2.1c0,0.8,0.1,1.5,0.4,2.1c0.2,0.6,0.6,1.2,1,1.7s0.9,0.8,1.5,1.1s1.2,0.4,1.8,0.4
								c0.7,0,1.4-0.2,2-0.5s1-0.7,1.4-1.3l3,2.2c-0.7,1-1.6,1.7-2.6,2.1c-1.1,0.5-2.2,0.7-3.3,0.7c-1.3,0-2.5-0.2-3.5-0.6
								c-1.1-0.4-2-1-2.8-1.7s-1.4-1.6-1.8-2.7c-0.4-1.1-0.7-2.2-0.7-3.6c0-1.3,0.2-2.5,0.7-3.6c0.4-1.1,1-2,1.8-2.7
								s1.7-1.3,2.8-1.7c1.1-0.4,2.3-0.6,3.5-0.6c0.5,0,0.9,0,1.4,0.1s1,0.2,1.5,0.4c0.5,0.2,0.9,0.4,1.4,0.7
								c0.4,0.3,0.8,0.7,1.2,1.1L44.6,384.9z"/>
							<path class="st2" d="M52.4,388.8c0-1.3,0.2-2.5,0.7-3.6c0.4-1.1,1-2,1.8-2.7s1.7-1.3,2.8-1.7c1.1-0.4,2.3-0.6,3.5-0.6
								c1.3,0,2.5,0.2,3.5,0.6c1.1,0.4,2,1,2.8,1.7s1.4,1.6,1.8,2.7s0.7,2.2,0.7,3.6c0,1.3-0.2,2.5-0.7,3.6c-0.4,1.1-1,2-1.8,2.7
								s-1.7,1.3-2.8,1.7c-1.1,0.4-2.3,0.6-3.5,0.6c-1.3,0-2.5-0.2-3.5-0.6c-1.1-0.4-2-1-2.8-1.7s-1.4-1.6-1.8-2.7
								S52.4,390.1,52.4,388.8z M56.2,388.8c0,0.8,0.1,1.5,0.4,2.1c0.2,0.6,0.6,1.2,1,1.7s1,0.8,1.6,1.1s1.3,0.4,2.1,0.4
								s1.5-0.1,2.1-0.4s1.2-0.6,1.6-1.1s0.8-1,1-1.7c0.2-0.6,0.4-1.3,0.4-2.1c0-0.8-0.1-1.5-0.4-2.1c-0.2-0.6-0.6-1.2-1-1.7
								s-1-0.8-1.6-1.1c-0.6-0.3-1.3-0.4-2.1-0.4s-1.5,0.1-2.1,0.4s-1.2,0.6-1.6,1.1c-0.4,0.5-0.8,1-1,1.7
								C56.3,387.3,56.2,388,56.2,388.8z"/>
							<path class="st2" d="M89.9,390.7c0,1-0.1,1.9-0.4,2.7c-0.3,0.8-0.7,1.5-1.3,2.1c-0.6,0.6-1.3,1.1-2.2,1.4
								c-0.9,0.3-1.9,0.5-3,0.5s-2.1-0.2-3-0.5s-1.6-0.8-2.2-1.4s-1-1.3-1.3-2.1c-0.3-0.8-0.4-1.7-0.4-2.7v-10h3.6v9.9
								c0,0.5,0.1,1,0.2,1.4c0.2,0.4,0.4,0.8,0.7,1.1c0.3,0.3,0.6,0.6,1,0.7c0.4,0.2,0.9,0.3,1.3,0.3c0.5,0,0.9-0.1,1.3-0.3
								c0.4-0.2,0.7-0.4,1-0.7c0.3-0.3,0.5-0.7,0.7-1.1s0.2-0.9,0.2-1.4v-9.9h3.6v10H89.9z"/>
							<path class="st2" d="M96.8,380.6h4.9l6.9,11.4l0,0v-11.4h3.6V397h-4.7l-7.1-11.6l0,0V397h-3.6
								C96.8,397,96.8,380.6,96.8,380.6z"/>
							<path class="st2" d="M127.2,384.6c-0.3-0.4-0.7-0.6-1.2-0.8c-0.5-0.2-1-0.3-1.4-0.3c-0.3,0-0.5,0-0.8,0.1s-0.5,0.2-0.8,0.3
								c-0.2,0.1-0.4,0.3-0.6,0.5s-0.2,0.5-0.2,0.8c0,0.5,0.2,0.9,0.6,1.1c0.4,0.3,0.8,0.5,1.4,0.7s1.2,0.4,1.8,0.6
								c0.6,0.2,1.2,0.4,1.8,0.8c0.6,0.3,1,0.8,1.4,1.4s0.6,1.3,0.6,2.3c0,0.9-0.2,1.7-0.5,2.4c-0.3,0.7-0.8,1.2-1.4,1.7
								c-0.6,0.4-1.2,0.8-2,1s-1.6,0.3-2.4,0.3c-1.1,0-2-0.2-3-0.5c-0.9-0.3-1.8-0.8-2.5-1.6l2.6-2.8c0.4,0.5,0.8,0.9,1.4,1.1
								c0.6,0.3,1.1,0.4,1.7,0.4c0.3,0,0.6,0,0.9-0.1s0.6-0.2,0.8-0.3c0.2-0.1,0.4-0.3,0.6-0.5c0.1-0.2,0.2-0.5,0.2-0.8
								c0-0.5-0.2-0.9-0.6-1.2c-0.4-0.3-0.9-0.5-1.4-0.7c-0.6-0.2-1.2-0.4-1.8-0.6c-0.7-0.2-1.3-0.5-1.8-0.8c-0.6-0.3-1-0.8-1.4-1.3
								c-0.4-0.6-0.6-1.3-0.6-2.2c0-0.9,0.2-1.6,0.5-2.3c0.3-0.7,0.8-1.2,1.4-1.7c0.6-0.4,1.2-0.8,2-1s1.5-0.3,2.3-0.3
								c0.9,0,1.8,0.1,2.7,0.4c0.9,0.3,1.6,0.7,2.3,1.3L127.2,384.6z"/>
							<path class="st2" d="M136.1,380.6h11.1v3.3h-7.5v3h7.1v3.3h-7.1v3.3h7.9v3.3h-11.5V380.6z"/>
							<path class="st2" d="M154.2,380.6h3.6v13h6.7v3.3h-10.3V380.6z"/>
							<path class="st2" d="M170,380.6h3.6V397H170V380.6z"/>
							<path class="st2" d="M180.4,380.6h4.9l6.9,11.4l0,0v-11.4h3.6V397h-4.7l-7.1-11.6l0,0V397h-3.6L180.4,380.6L180.4,380.6z"/>
							<path class="st2" d="M217.6,395.8c-1.1,0.6-2.2,1-3.3,1.2c-1.2,0.2-2.3,0.4-3.5,0.4c-1.3,0-2.5-0.2-3.5-0.6
								c-1.1-0.4-2-1-2.8-1.7s-1.4-1.6-1.8-2.7c-0.4-1.1-0.7-2.2-0.7-3.6c0-1.3,0.2-2.5,0.7-3.6c0.4-1.1,1-2,1.8-2.7
								s1.7-1.3,2.8-1.7c1.1-0.4,2.3-0.6,3.5-0.6c1.3,0,2.5,0.2,3.6,0.5s2.1,0.9,2.9,1.6l-2.5,2.8c-0.5-0.5-1-0.9-1.7-1.2
								c-0.6-0.3-1.4-0.4-2.3-0.4c-0.8,0-1.5,0.1-2.1,0.4s-1.2,0.6-1.6,1.1c-0.4,0.5-0.8,1-1,1.7c-0.2,0.6-0.4,1.3-0.4,2.1
								c0,0.8,0.1,1.5,0.4,2.1c0.2,0.6,0.6,1.2,1,1.7s1,0.8,1.6,1.1s1.3,0.4,2.1,0.4s1.5-0.1,2-0.3c0.6-0.2,1-0.4,1.4-0.5v-2.7h-2.9
								v-3.3h6.4L217.6,395.8L217.6,395.8z"/>
							<path class="st2" d="M239.9,379.4l2.6,0.8l-6.9,18l-2.6-0.8L239.9,379.4z"/>
							<path class="st2" d="M78.1,411.5h-4.7v-3.2h12.9v3.2h-4.7v13.1H78L78.1,411.5L78.1,411.5z"/>
							<path class="st2" d="M91.7,408.3h3.6v6.1h7v-6.1h3.6v16.3h-3.6v-7.1h-7v7.1h-3.6V408.3z"/>
							<path class="st2" d="M112.9,408.3H124v3.3h-7.5v3h7.1v3.3h-7.1v3.3h7.9v3.3h-11.5V408.3z"/>
							<path class="st2" d="M130.9,408.3h6.3c0.8,0,1.6,0.1,2.4,0.2c0.7,0.2,1.4,0.4,2,0.8s1,0.9,1.3,1.5s0.5,1.4,0.5,2.4
								c0,1.2-0.3,2.1-0.9,2.9c-0.6,0.8-1.5,1.3-2.6,1.5l4.2,6.9h-4.3l-3.4-6.5h-1.8v6.5H131L130.9,408.3L130.9,408.3z M134.5,415.1
								h2.1c0.3,0,0.7,0,1,0c0.4,0,0.7-0.1,1-0.2s0.5-0.3,0.7-0.5s0.3-0.6,0.3-1s-0.1-0.7-0.3-1c-0.2-0.2-0.4-0.4-0.6-0.6
								c-0.3-0.1-0.6-0.2-0.9-0.3c-0.3,0-0.7-0.1-1-0.1h-2.4L134.5,415.1L134.5,415.1z"/>
							<path class="st2" d="M154.8,408.3h3l7.1,16.3h-4.1l-1.4-3.5h-6.3l-1.4,3.5h-4L154.8,408.3z M156.2,413.1l-2,5.1h4
								L156.2,413.1z"/>
							<path class="st2" d="M170.1,408.3h6.1c0.8,0,1.6,0.1,2.4,0.2c0.8,0.2,1.4,0.4,2,0.8s1,0.9,1.3,1.5s0.5,1.4,0.5,2.4
								s-0.2,1.8-0.5,2.4s-0.7,1.2-1.3,1.5c-0.5,0.4-1.2,0.7-1.9,0.8c-0.7,0.2-1.5,0.2-2.4,0.2h-2.6v6.4h-3.6V408.3z M173.7,415.2
								h2.4c0.3,0,0.6,0,0.9-0.1c0.3-0.1,0.6-0.2,0.8-0.3c0.2-0.1,0.4-0.3,0.6-0.6c0.1-0.3,0.2-0.6,0.2-1s-0.1-0.7-0.3-1
								s-0.4-0.4-0.7-0.6c-0.3-0.1-0.6-0.2-1-0.3c-0.4,0-0.7-0.1-1.1-0.1h-1.8L173.7,415.2L173.7,415.2z"/>
							<path class="st2" d="M192.2,417.7l-6.1-9.4h4.5l3.5,6.1l3.7-6.1h4.3l-6.1,9.4v7h-3.6v-7H192.2z"/>
						</g>
					</g>
					<g id="Page-1_1_" transform="translate(155.000000, 0.000000)">
						<g id="Group-3_1_">
							<g id="Clip-2_1_">
							</g>
							<path id="Fill-1_1_" class="st3" d="M462.7,110.8c0,61.2-49.8,110.8-111.1,110.8S240.4,172,240.4,110.8S290.2,0,351.5,0
								S462.7,49.6,462.7,110.8"/>
						</g>
						<polygon id="Fill-4_1_" class="st4" points="272.6,144.2 277.8,144.2 285.3,156.5 285.3,156.5 285.3,144.2 289.2,144.2 
							289.2,161.8 284.2,161.8 276.5,149.3 276.4,149.3 276.4,161.8 272.6,161.8 						"/>
						<path id="Fill-6_1_" class="st4" d="M309.2,154.8c0,1-0.1,2-0.4,2.8c-0.3,0.9-0.7,1.6-1.3,2.2c-0.6,0.6-1.3,1.1-2.1,1.5
							c-0.8,0.4-1.8,0.5-2.9,0.5s-2.1-0.2-2.9-0.5c-0.8-0.4-1.5-0.9-2.1-1.5s-1-1.4-1.3-2.2c-0.3-0.9-0.4-1.8-0.4-2.8v-10.6h3.5
							v10.5c0,0.5,0.1,1,0.2,1.5c0.2,0.5,0.4,0.8,0.7,1.2c0.3,0.3,0.6,0.6,1,0.8s0.8,0.3,1.3,0.3s0.9-0.1,1.3-0.3s0.7-0.4,1-0.8
							c0.3-0.3,0.5-0.7,0.7-1.2s0.2-1,0.2-1.5v-10.5h3.5L309.2,154.8L309.2,154.8z"/>
						<polygon id="Fill-8_1_" class="st4" points="320.6,147.6 315.8,147.6 315.8,144.2 329.1,144.2 329.1,147.6 324.3,147.6 
							324.3,161.8 320.6,161.8 						"/>
						<path id="Fill-10_1_" class="st4" d="M337.2,151.5h2.2c0.3,0,0.7,0,1,0c0.4,0,0.7-0.1,1-0.2c0.3-0.1,0.5-0.3,0.7-0.6
							s0.3-0.6,0.3-1.1c0-0.4-0.1-0.8-0.3-1.1c-0.2-0.3-0.4-0.5-0.7-0.6c-0.3-0.1-0.6-0.2-0.9-0.3s-0.7-0.1-1-0.1h-2.4L337.2,151.5
							L337.2,151.5z M333.6,144.2h6.4c0.8,0,1.6,0.1,2.4,0.3s1.4,0.5,2,0.9s1,1,1.4,1.7c0.3,0.7,0.5,1.6,0.5,2.6
							c0,1.2-0.3,2.3-0.9,3.2s-1.5,1.4-2.7,1.7l4.2,7.5h-4.4L339,155h-1.8v7.1h-3.7v-17.9L333.6,144.2L333.6,144.2z"/>
						<g id="Clip-13">
						</g>
						<polygon id="Fill-12_1_" class="st4" points="352.4,161.8 355.8,161.8 355.8,144.2 352.4,144.2 						"/>
						<polygon id="Fill-14_1_" class="st4" points="366.1,147.6 361.3,147.6 361.3,144.2 374.6,144.2 374.6,147.6 369.8,147.6 
							369.8,161.8 366.1,161.8 						"/>
						<polygon id="Fill-15" class="st4" points="380.2,161.8 383.5,161.8 383.5,144.2 380.2,144.2 						"/>
						<path id="Fill-16_1_" class="st4" d="M393,153.6c0,0.8,0.1,1.6,0.4,2.3s0.6,1.3,1.1,1.8s1,0.9,1.7,1.2s1.4,0.4,2.2,0.4
							c0.8,0,1.6-0.1,2.2-0.4c0.7-0.3,1.2-0.7,1.7-1.2s0.8-1.1,1.1-1.8c0.3-0.7,0.4-1.5,0.4-2.3s-0.1-1.6-0.4-2.3s-0.6-1.3-1.1-1.8
							s-1-0.9-1.7-1.2s-1.4-0.4-2.2-0.4c-0.8,0-1.6,0.1-2.2,0.4c-0.7,0.3-1.2,0.7-1.7,1.2s-0.8,1.1-1.1,1.8
							C393.2,152,393,152.7,393,153.6 M389,153.6c0-1.4,0.2-2.7,0.7-3.9s1.1-2.2,2-3c0.8-0.8,1.8-1.4,3-1.9c1.2-0.4,2.4-0.7,3.8-0.7
							s2.6,0.2,3.8,0.7c1.2,0.4,2.1,1.1,3,1.9c0.8,0.8,1.5,1.8,2,3s0.7,2.5,0.7,3.9s-0.2,2.7-0.7,3.9s-1.1,2.2-2,3
							c-0.8,0.8-1.8,1.4-3,1.9c-1.2,0.4-2.4,0.7-3.8,0.7s-2.6-0.2-3.8-0.7c-1.2-0.4-2.1-1.1-3-1.9c-0.8-0.8-1.5-1.8-2-3
							C389.3,156.3,389,155,389,153.6"/>
						<polygon id="Fill-17" class="st4" points="414.6,144.2 419.8,144.2 427.3,156.5 427.3,156.5 427.3,144.2 431.2,144.2 
							431.2,161.8 426.1,161.8 418.5,149.3 418.4,149.3 418.4,161.8 414.6,161.8 						"/>
						<path id="Stroke-18" class="st1" d="M372.4,90.5c0,10.7-8.7,19.3-19.4,19.3c-10.7,0-19.4-8.7-19.4-19.3
							c0-10.7,8.7-19.3,19.4-19.3C363.7,71.2,372.4,79.8,372.4,90.5z"/>
						<path id="Stroke-19" class="st1" d="M343.6,86.7c1-3.2,3.5-5.7,6.7-6.6"/>
						<path id="Stroke-20" class="st1" d="M381.3,90c0,15.3-12.4,27.6-27.7,27.6s-27.7-12.4-27.7-27.6s12.4-27.6,27.7-27.6
							S381.3,74.7,381.3,90z"/>
						<path id="Stroke-21" class="st1" d="M389.5,94.4h5.1V66.8c0,0-5,0.7-6.9,7.6c-1.5,5.5-0.9,11.8,0.3,15.2"/>
						<polygon id="Stroke-22" class="st1" points="389,117.6 394.6,117.6 394.6,94.4 389,94.4 						"/>
						<polyline id="Stroke-23" class="st1" points="312.5,84.5 312.5,117.6 318.1,117.6 318.1,89.5 						"/>
						<path id="Stroke-24" class="st1" d="M319.2,71.2v9.2c0,2.2-1.9,4.1-4.2,4.1h-2.8c-2.3,0-4.2-1.8-4.2-4.1v-9.2"/>
						<path id="Stroke-25" class="st1" d="M314.7,80v-8.8"/>
					</g>
					<g id="Page-1_2_" transform="translate(310.000000, 149.000000)">
						<g id="Group-3_2_" transform="translate(9.729084, 0.000000)">
							<g id="Clip-2_2_">
							</g>
							<path id="Fill-1_2_" class="st5" d="M712.9,336.1c0,61.8-50.2,111.9-112.1,111.9s-112.1-50.1-112.1-111.9
								s50.2-111.9,112.1-111.9C662.7,224.3,712.9,274.4,712.9,336.1"/>
						</g>
						<g id="Group-6" transform="translate(0.000000, 55.147059)">
							<g id="Clip-5">
							</g>
							<path id="Fill-4_2_" class="st4" d="M477.6,314.5h2.6c0.3,0,0.7,0,1-0.1s0.6-0.2,0.9-0.3c0.3-0.1,0.5-0.4,0.6-0.6
								s0.2-0.6,0.2-1s-0.1-0.8-0.3-1c-0.2-0.3-0.5-0.5-0.8-0.6s-0.7-0.2-1.1-0.3s-0.8-0.1-1.1-0.1h-2L477.6,314.5L477.6,314.5z
								 M473.7,307.5h6.5c0.9,0,1.8,0.1,2.6,0.2c0.8,0.2,1.5,0.4,2.1,0.8s1.1,0.9,1.4,1.5c0.4,0.6,0.5,1.5,0.5,2.5s-0.2,1.8-0.5,2.4
								c-0.3,0.7-0.8,1.2-1.4,1.6s-1.3,0.7-2.1,0.8c-0.8,0.2-1.7,0.2-2.6,0.2h-2.8v6.5h-3.9v-16.5H473.7z"/>
						</g>
						<polygon id="Fill-7" class="st4" points="491.5,361.8 495.1,361.8 495.1,368 502.2,368 502.2,361.8 505.9,361.8 505.9,378.4 
							502.2,378.4 502.2,371.2 495.1,371.2 495.1,378.4 491.5,378.4 						"/>
						<polygon id="Fill-9" class="st4" points="516.7,371.3 510.3,361.8 515,361.8 518.6,368 522.4,361.8 526.9,361.8 520.5,371.3 
							520.5,378.4 516.7,378.4 						"/>
						<path id="Fill-11" class="st4" d="M539.8,366.3c-0.3-0.4-0.7-0.7-1.2-0.8c-0.5-0.2-1-0.3-1.5-0.3c-0.3,0-0.5,0-0.8,0.1
							s-0.6,0.2-0.8,0.3c-0.3,0.1-0.5,0.3-0.6,0.5c-0.2,0.2-0.2,0.5-0.2,0.8c0,0.5,0.2,0.9,0.6,1.2c0.4,0.3,0.9,0.5,1.4,0.7
							c0.6,0.2,1.2,0.4,1.9,0.6s1.3,0.5,1.9,0.8c0.6,0.4,1.1,0.8,1.4,1.4c0.4,0.6,0.6,1.4,0.6,2.3s-0.2,1.8-0.5,2.4
							c-0.4,0.7-0.8,1.3-1.4,1.7c-0.6,0.5-1.3,0.8-2.1,1s-1.6,0.3-2.5,0.3c-1.1,0-2.1-0.2-3.1-0.5c-0.9-0.3-1.8-0.9-2.6-1.6l2.6-2.9
							c0.4,0.5,0.9,0.9,1.4,1.2c0.6,0.3,1.2,0.4,1.8,0.4c0.3,0,0.6,0,0.9-0.1c0.3-0.1,0.6-0.2,0.8-0.3c0.2-0.1,0.4-0.3,0.6-0.5
							s0.2-0.5,0.2-0.8c0-0.5-0.2-0.9-0.6-1.2c-0.4-0.3-0.9-0.5-1.5-0.7s-1.2-0.4-1.9-0.6s-1.3-0.5-1.9-0.8
							c-0.6-0.3-1.1-0.8-1.5-1.4s-0.6-1.3-0.6-2.3c0-0.9,0.2-1.7,0.5-2.4c0.4-0.7,0.8-1.2,1.4-1.7c0.6-0.5,1.3-0.8,2.1-1
							s1.6-0.3,2.4-0.3c1,0,1.9,0.1,2.8,0.4c0.9,0.3,1.7,0.7,2.4,1.4L539.8,366.3z"/>
						<g id="Clip-14">
						</g>
						<polygon id="Fill-13" class="st4" points="548,378.4 551.3,378.4 551.3,361.8 548,361.8 						"/>
						<path id="Fill-15_1_" class="st4" d="M570.1,366.6c-0.4-0.4-0.8-0.8-1.4-1c-0.5-0.2-1.2-0.4-1.9-0.4s-1.4,0.1-2,0.4
							s-1.1,0.6-1.6,1.1c-0.4,0.5-0.8,1.1-1,1.7c-0.3,0.7-0.4,1.4-0.4,2.2c0,0.8,0.1,1.5,0.4,2.2c0.2,0.7,0.6,1.2,1,1.7
							s1,0.9,1.5,1.1c0.6,0.3,1.2,0.4,1.9,0.4c0.8,0,1.5-0.2,2.1-0.5s1.1-0.8,1.5-1.3l3.2,2.3c-0.7,1-1.7,1.7-2.8,2.2
							s-2.3,0.7-3.5,0.7c-1.3,0-2.6-0.2-3.7-0.6c-1.1-0.4-2.1-1-2.9-1.8c-0.8-0.8-1.5-1.7-1.9-2.8c-0.5-1.1-0.7-2.3-0.7-3.7
							c0-1.3,0.2-2.6,0.7-3.7s1.1-2,1.9-2.8c0.8-0.8,1.8-1.4,2.9-1.8c1.1-0.4,2.4-0.6,3.7-0.6c0.5,0,1,0,1.5,0.1s1,0.2,1.6,0.4
							s1,0.4,1.5,0.8c0.5,0.3,0.9,0.7,1.3,1.2L570.1,366.6z"/>
						<path id="Fill-16_2_" class="st4" d="M585.5,366.6l-2.1,5.2h4.1L585.5,366.6z M584.1,361.8h3.1l7.3,16.6h-4.2l-1.5-3.5h-6.6
							l-1.4,3.5h-4.1L584.1,361.8z"/>
						<polygon id="Fill-17_1_" class="st4" points="598.9,361.8 602.8,361.8 602.8,375 610,375 610,378.4 598.9,378.4 						"/>
						<path id="Fill-18_1_" class="st4" d="M632,366.6l-2.1,5.2h4.1L632,366.6z M630.6,361.8h3.1l7.3,16.6h-4.2l-1.5-3.5h-6.6
							l-1.4,3.5h-4.1L630.6,361.8z"/>
						<path id="Fill-19" class="st4" d="M656.5,366.6c-0.4-0.4-0.8-0.8-1.4-1c-0.5-0.2-1.2-0.4-1.9-0.4s-1.4,0.1-2,0.4
							s-1.1,0.6-1.6,1.1c-0.4,0.5-0.8,1.1-1,1.7c-0.2,0.7-0.4,1.4-0.4,2.2c0,0.8,0.1,1.5,0.4,2.2c0.3,0.7,0.6,1.2,1,1.7
							s1,0.9,1.5,1.1c0.6,0.3,1.2,0.4,1.9,0.4c0.8,0,1.5-0.2,2.1-0.5s1.1-0.8,1.5-1.3l3.2,2.3c-0.7,1-1.7,1.7-2.8,2.2
							s-2.3,0.7-3.5,0.7c-1.3,0-2.6-0.2-3.7-0.6c-1.1-0.4-2.1-1-2.9-1.8c-0.8-0.8-1.5-1.7-1.9-2.8c-0.5-1.1-0.7-2.3-0.7-3.7
							c0-1.3,0.2-2.6,0.7-3.7s1.1-2,1.9-2.8c0.8-0.8,1.8-1.4,2.9-1.8c1.1-0.4,2.4-0.6,3.7-0.6c0.5,0,1,0,1.5,0.1s1,0.2,1.6,0.4
							c0.5,0.2,1,0.4,1.5,0.8c0.5,0.3,0.9,0.7,1.3,1.2L656.5,366.6z"/>
						<polygon id="Fill-20_1_" class="st4" points="668,365 663.2,365 663.2,361.8 676.5,361.8 676.5,365 671.7,365 671.7,378.4 
							668,378.4 						"/>
						<polygon id="Fill-21" class="st4" points="680.9,378.4 684.2,378.4 684.2,361.8 680.9,361.8 						"/>
						<polygon id="Fill-22_1_" class="st4" points="690.9,361.8 695.1,361.8 699.3,372.6 699.3,372.6 703.5,361.8 707.5,361.8 
							700.6,378.4 697.6,378.4 						"/>
						<polygon id="Fill-23" class="st4" points="711.9,378.4 715.3,378.4 715.3,361.8 711.9,361.8 						"/>
						<polygon id="Fill-24_1_" class="st4" points="724.5,365 719.7,365 719.7,361.8 733,361.8 733,365 728.2,365 728.2,378.4 
							724.5,378.4 						"/>
						<polygon id="Fill-25" class="st4" points="742.7,371.3 736.3,361.8 741,361.8 744.6,368 748.5,361.8 752.9,361.8 746.5,371.3 
							746.5,378.4 742.7,378.4 						"/>
						<path id="Stroke-26" class="st1" d="M606.5,347.4l19.6-16.2c1.1-0.9,0.9-2.6-0.3-3.3l-11.3-6.2l14.9-20.8
							c1.1-1.6,0.5-3.7-1.3-4.6l-16.3-8.1c-1.7-0.9-3.8-0.6-5.2,0.8l-14.3,13.4"/>
						<path id="Stroke-27" class="st1" d="M595,306.4l12.8-9.4c0.8-0.6,1.8-0.6,2.6-0.1l3,1.9l-12.9,18.8l-27,29.7"/>
						<path id="Stroke-28" class="st1" d="M581.2,349.6l22.2-19.9"/>
						<path id="Stroke-29" class="st1" d="M601.1,325.3l12.9,5.3c0.5,0.2,0.6,0.9,0.2,1.3L600,346.3"/>
						<path id="Stroke-30" class="st1" d="M628.8,306.5l0.5,1.4c0.2,0.6,0.9,1.1,1.7,1.2l14.4,1.8"/>
						<path id="Stroke-31" class="st1" d="M644.3,316.5H627c-0.7,0-1.3-0.3-1.7-0.9l-0.9-1.3"/>
						<path id="Stroke-32" class="st1" d="M635.5,284.4c0,3.7-3,6.6-6.6,6.6c-3.7,0-6.6-3-6.6-6.6s3-6.6,6.6-6.6
							S635.5,280.7,635.5,284.4z"/>
						<path id="Stroke-33_1_" class="st1" d="M587.8,284.4h11.1"/>
						<path id="Stroke-34" class="st1" d="M580.1,292.1h15.5"/>
						<path id="Stroke-35_1_" class="st1" d="M580.1,313.1h15.5"/>
						<path id="Stroke-36" class="st1" d="M571.2,320.9h15.5"/>
					</g>
					<g id="Page-1_3_" transform="translate(155.000000, 322.000000)">
						<g id="Group-3_3_">
							<g id="Clip-2_3_">
							</g>
							<path id="Fill-1_3_" class="st6" d="M460.4,593.3c0,60.1-49.2,108.7-110,108.7s-110-48.7-110-108.7
								c0-60.1,49.2-108.7,110-108.7S460.4,533.2,460.4,593.3"/>
						</g>
						<path id="Fill-4_3_" class="st4" d="M317.6,644.3c-0.3-0.4-0.7-0.7-1.2-0.9s-1-0.3-1.5-0.3c-0.3,0-0.5,0-0.8,0.1
							s-0.6,0.2-0.8,0.3c-0.3,0.1-0.5,0.3-0.6,0.6c-0.2,0.2-0.2,0.5-0.2,0.9c0,0.5,0.2,0.9,0.6,1.2s0.9,0.5,1.4,0.7
							c0.6,0.2,1.2,0.4,1.9,0.6c0.7,0.2,1.3,0.5,1.9,0.9s1.1,0.9,1.4,1.5c0.4,0.6,0.6,1.4,0.6,2.5c0,1-0.2,1.8-0.5,2.6
							c-0.3,0.7-0.8,1.3-1.4,1.8s-1.3,0.8-2.1,1.1c-0.8,0.2-1.6,0.3-2.5,0.3c-1.1,0-2.1-0.2-3.1-0.5c-0.9-0.4-1.8-0.9-2.6-1.7
							l2.7-3.1c0.4,0.5,0.9,0.9,1.4,1.2c0.6,0.3,1.2,0.4,1.8,0.4c0.3,0,0.6,0,0.9-0.1s0.6-0.2,0.8-0.3c0.2-0.1,0.4-0.3,0.6-0.6
							c0.2-0.2,0.2-0.5,0.2-0.8c0-0.5-0.2-1-0.6-1.3s-0.9-0.6-1.5-0.8s-1.2-0.4-1.9-0.7c-0.7-0.2-1.3-0.5-1.9-0.9s-1.1-0.9-1.5-1.5
							s-0.6-1.4-0.6-2.4s0.2-1.8,0.5-2.5c0.4-0.7,0.8-1.3,1.4-1.8s1.3-0.8,2.1-1.1c0.8-0.2,1.6-0.4,2.4-0.4c1,0,1.9,0.1,2.8,0.4
							c0.9,0.3,1.7,0.8,2.4,1.4L317.6,644.3z"/>
						<polygon id="Fill-6_2_" class="st4" points="325.7,639.6 329.6,639.6 329.6,653.5 336.8,653.5 336.8,657.1 325.7,657.1 						
							"/>
						<polygon id="Fill-8_2_" class="st4" points="342.3,639.6 354.1,639.6 354.1,643.1 346.1,643.1 346.1,646.4 353.6,646.4 
							353.6,650 346.1,650 346.1,653.5 354.5,653.5 354.5,657.1 342.3,657.1 						"/>
						<polygon id="Fill-10_2_" class="st4" points="361.2,639.6 372.9,639.6 372.9,643.1 365,643.1 365,646.4 372.5,646.4 
							372.5,650 365,650 365,653.5 373.3,653.5 373.3,657.1 361.2,657.1 						"/>
						<path id="Fill-12_2_" class="st4" d="M383.9,647h2.6c0.4,0,0.7,0,1-0.1s0.6-0.2,0.9-0.3c0.3-0.2,0.5-0.4,0.6-0.6
							c0.2-0.3,0.2-0.6,0.2-1s-0.1-0.8-0.3-1.1c-0.2-0.3-0.5-0.5-0.8-0.6s-0.7-0.2-1.1-0.3c-0.4,0-0.8-0.1-1.2-0.1h-2L383.9,647
							L383.9,647z M380,639.6h6.6c0.9,0,1.8,0.1,2.6,0.2c0.8,0.2,1.5,0.4,2.1,0.9c0.6,0.4,1.1,0.9,1.5,1.6c0.4,0.7,0.5,1.5,0.5,2.6
							c0,1-0.2,1.9-0.5,2.6c-0.3,0.7-0.8,1.2-1.4,1.7c-0.6,0.4-1.3,0.7-2.1,0.9c-0.8,0.2-1.7,0.3-2.6,0.3h-2.8v6.8H380V639.6z"/>
						<polyline id="Stroke-14" class="st1" points="302.4,566.2 312.4,584.3 312.4,616.6 						"/>
						<path id="Stroke-16" class="st1" d="M391.1,577.1v39.4"/>
						<path id="Stroke-18_1_" class="st1" d="M314.6,603.4H339"/>
						<path id="Stroke-20_1_" class="st1" d="M314.6,596.9H339"/>
						<path id="Stroke-22_1_" class="st1" d="M388.9,608.9v-17.1c0-5.1-4-9.2-9-9.2H340c-1.1,0-2,0.9-2,2.1V607c0,1.1,0.9,2,1.9,2
							L388.9,608.9L388.9,608.9z"/>
						<path id="Stroke-24_1_" class="st1" d="M326.8,577.1c0,3-2.5,5.5-5.5,5.5c-3.1,0-5.5-2.5-5.5-5.5s2.5-5.5,5.5-5.5
							C324.3,571.7,326.8,574.1,326.8,577.1z"/>
						<path id="Stroke-26_1_" class="st1" d="M315.7,588.1h8c2.9,0,5.3,2.5,5.3,5.5"/>
						<polyline id="Stroke-28_1_" class="st1" points="331.2,578.2 334.1,578.2 339,582.6 						"/>
						<path id="Stroke-30_1_" class="st1" d="M326.8,562.9h5.3c0.1,0,0.2,0.1,0.1,0.2c-0.8,0.8-4,4-4.9,5c-0.1,0.1,0,0.3,0.1,0.3
							c1.2,0,5,0,5,0"/>
						<path id="Stroke-32_1_" class="st1" d="M337.9,545.4h7.4c0.1,0,0.2,0.2,0.1,0.3c-1.4,1.4-7.5,7.4-7.5,7.4h7.8"/>
						<path id="Stroke-34_1_" class="st1" d="M355.6,534.4h10.5c0.2,0,0.3,0.2,0.2,0.4c-2,1.8-10.6,9.5-10.6,9.5h11"/>
					</g>
				</g>
				<g id="Page-1_4_" transform="translate(163.000000, 164.000000)">
					<path id="Stroke-1" class="st7" d="M336.1,481.7h69.4l2.3-33c1.1-15,6.9-29.1,16.3-40.8c25.9-32.1,23.7-80.1,23.7-80.1
						c0-47.4-38-81.6-85.6-81.6c-56.9,0-90.9,34-90.9,90.8L253,389.6c-2,5,1.7,10.4,7.1,10.4h19l6.2,40.2c1,6.5,6.6,11.2,13.1,11.2
						h27.5L336.1,481.7z"/>
					<path id="Stroke-3" class="st7" d="M427.8,324.2c0-5.1-2.5-9.6-6.4-12.4c2.2-2.6,3.5-6,3.5-9.6c0-8.4-7-15.3-15.6-15.3
						c-0.5,0-1,0-1.5,0.1c-0.2-8.3-7.1-14.9-15.6-14.9c-3.1,0-5.9,0.9-8.3,2.4c-2.6-4.9-7.8-8.3-13.8-8.3c-5.2,0-9.9,2.5-12.7,6.4
						c-2.8-2.9-6.8-4.7-11.3-4.7c-7.9,0-14.4,5.7-15.4,13.2c-2.6-1.5-5.7-2.2-8.9-2c-7.7,0.6-13.9,6.7-14.3,14.3
						c-0.2,2.4,0.2,4.6,1.1,6.7c-8.1,1.1-14.2,8.2-13.4,16.7c0.7,7.1,6.5,12.9,13.8,13.7c2.3,0.2,4.4,0,6.4-0.6
						c-0.2,0.9-0.3,1.8-0.3,2.7c0,8.4,7.5,14.6,17.5,16.4l18,2c9,1,13.4-2.2,16.3-5.1c1.1,7.3,4.5,12.4,15.4,12.9l11.2-1.4
						c0,0,7.9,5.2,8.4,21.7c0.1,2,1.3,3.8,3.2,4.5c2.8,1.1,6.1-0.4,6.9-3.3l4.4-15.9c0.6-2.3,1.8-4.5,3.4-6.3c2.2-2.6,3.5-6,3.5-9.7
						c0-4-1.6-7.6-4.1-10.3C424.2,335.5,427.8,330.3,427.8,324.2z"/>
					<path id="Stroke-5" class="st7" d="M390.2,271.2c0,0-21,2.1-17,27.6"/>
					<path id="Stroke-7" class="st7" d="M365.2,308.8c0,0,9.2-11.3,17.5,0"/>
					<path id="Stroke-9" class="st7" d="M357.7,271.2l-5,15"/>
					<path id="Stroke-11" class="st7" d="M328,283.8c0,0-2.9,13.7,7.1,17.5"/>
					<path id="Stroke-13" class="st7" d="M315.1,331.4c0,0,7.6-11,17.5-6.4"/>
					<path id="Stroke-15" class="st7" d="M336.8,313.8c0,0-5.4,8.6,3.4,17.5"/>
					<path id="Stroke-17" class="st7" d="M417.8,346.4c0,0-8-19.3-27.6-14.2"/>
					<path id="Stroke-19_1_" class="st7" d="M380.2,323.9c0,0,13.7,6.4,4.1,17.5"/>
					<path id="Stroke-21_1_" class="st7" d="M407.7,288.8c0,0,1.2,13.6-10,17.5"/>
					<path id="Stroke-23_1_" class="st7" d="M366.6,348.9c0,0,5.7-11.3-8.9-17.5"/>
					<path id="Stroke-25_1_" class="st7" d="M307.6,301.3c0,0,4.4,3.9,10,5"/>
					<path id="Stroke-27_1_" class="st7" d="M417.8,311.3l-10,3.2"/>
				</g>
			</g>
		</g>
	</g>
</g>
</svg>
