<svg id="a220e981-b59c-46bf-9222-6da34c992992" data-name="Layer 1" xmlns="http://www.w3.org/2000/svg" viewBox="0 0 123.3 111.02"><defs><style>.a441d6aa-3802-4fed-a1e3-d80ddaebd860{fill:#c7eaf8;}.a53d6763-b907-43e2-a2de-dd0b9309b61c{fill:#d6e2cf;}.b34f6102-7160-4460-a8e2-f64d410672c8{fill:#f6e79e;}.a9973bf4-5048-4471-a488-e8f958074cc1{fill:#f4cfc6;}.a1f7f93f-6b7c-468b-b7ac-c29902c4f7ea{fill:#58595b;}</style></defs><path class="a441d6aa-3802-4fed-a1e3-d80ddaebd860" d="M59.8,48.4A24.2,24.2,0,1,1,84,24.2,24.22,24.22,0,0,1,59.8,48.4Zm0-40A15.8,15.8,0,1,0,75.6,24.2,15.83,15.83,0,0,0,59.8,8.4Z"/><path class="a53d6763-b907-43e2-a2de-dd0b9309b61c" d="M48.1,68.9A24.2,24.2,0,1,1,72.3,44.7,24.22,24.22,0,0,1,48.1,68.9Zm0-40A15.8,15.8,0,1,0,63.9,44.7,15.83,15.83,0,0,0,48.1,28.9Z"/><path class="b34f6102-7160-4460-a8e2-f64d410672c8" d="M59.8,61.6A24.2,24.2,0,1,1,84,37.4,24.22,24.22,0,0,1,59.8,61.6Zm0-39.9A15.8,15.8,0,1,0,75.6,37.5,15.83,15.83,0,0,0,59.8,21.7Z"/><path class="a9973bf4-5048-4471-a488-e8f958074cc1" d="M72.2,69.2A24.5,24.5,0,1,1,96.7,44.7,24.54,24.54,0,0,1,72.2,69.2Zm0-40A15.5,15.5,0,1,0,87.7,44.7,15.51,15.51,0,0,0,72.2,29.2Z"/><path class="a1f7f93f-6b7c-468b-b7ac-c29902c4f7ea" d="M5.3,83a5.07,5.07,0,0,0-2.8.7A4.69,4.69,0,0,0,.7,85.6,5.66,5.66,0,0,0,0,88.5a6.09,6.09,0,0,0,.6,2.8,4.14,4.14,0,0,0,1.8,1.9,4.89,4.89,0,0,0,2.9.8,5.33,5.33,0,0,0,3.4-1.1,4.54,4.54,0,0,0,1.7-3H7.3a2,2,0,0,1-.8,1,2.84,2.84,0,0,1-1.3.4,1.86,1.86,0,0,1-1.6-.7A3.7,3.7,0,0,1,3,88.5a3.17,3.17,0,0,1,.6-2,2,2,0,0,1,1.6-.7,2,2,0,0,1,1.3.4,2,2,0,0,1,.8,1h3.1A8.49,8.49,0,0,0,9.5,85a4.2,4.2,0,0,0-1.8-1.4A4.75,4.75,0,0,0,5.3,83"/><polygon class="a1f7f93f-6b7c-468b-b7ac-c29902c4f7ea" points="24.7 83.1 17.7 83.1 17.7 93.9 24.7 93.9 24.7 91.5 20.7 91.5 20.7 89.6 24.2 89.6 24.2 87.3 20.7 87.3 20.7 85.5 24.7 85.5 24.7 83.1"/><path class="a1f7f93f-6b7c-468b-b7ac-c29902c4f7ea" d="M36.7,83.1H32V93.9h3v-4h.3l2.2,4h3.3l-2.4-4.2a2.91,2.91,0,0,0,1.8-1.2,3.38,3.38,0,0,0,.6-2,3.45,3.45,0,0,0-.5-1.8,3.33,3.33,0,0,0-1.4-1.2,6.65,6.65,0,0,0-2.2-.4M35,87.9V85.6h1.5a1.22,1.22,0,0,1,.9.3,1.14,1.14,0,0,1,.3.8c0,.8-.4,1.1-1.2,1.1l-1.5.1Z"/><polygon class="a1f7f93f-6b7c-468b-b7ac-c29902c4f7ea" points="54.8 83.1 47.9 83.1 47.9 93.9 54.8 93.9 54.8 91.5 50.9 91.5 50.9 89.6 54.3 89.6 54.3 87.3 50.9 87.3 50.9 85.5 54.8 85.5 54.8 83.1"/><path class="a1f7f93f-6b7c-468b-b7ac-c29902c4f7ea" d="M67.3,83.1H62.1V93.9h5.3a4.34,4.34,0,0,0,2.7-.8,2.66,2.66,0,0,0,.9-2.2,2.72,2.72,0,0,0-.6-1.7,2.37,2.37,0,0,0-1.5-.9,2.22,2.22,0,0,0,1.3-.8,2.77,2.77,0,0,0,.5-1.6,2.58,2.58,0,0,0-.9-2.1,4.37,4.37,0,0,0-2.5-.7m-2.2,4.3V85.5h1.5c.8,0,1.1.3,1.1,1s-.4.9-1.1.9Zm0,4.1v-2h1.7c.8,0,1.2.3,1.2,1s-.4,1-1.2,1Z"/><path class="a1f7f93f-6b7c-468b-b7ac-c29902c4f7ea" d="M83,83.1H78.3V93.9h3v-4h.3l2.2,4H87l-2.4-4.2a2.91,2.91,0,0,0,1.8-1.2,3.38,3.38,0,0,0,.6-2,3.45,3.45,0,0,0-.5-1.8,3.33,3.33,0,0,0-1.4-1.2,6,6,0,0,0-2.1-.4m-1.8,4.8V85.6h1.5a1.22,1.22,0,0,1,.9.3,1.14,1.14,0,0,1,.3.8c0,.8-.4,1.1-1.2,1.1l-1.5.1Z"/><path class="a1f7f93f-6b7c-468b-b7ac-c29902c4f7ea" d="M103.3,83.1h-3v6.1a2,2,0,0,1-.4,1.4,1.66,1.66,0,0,1-1.2.5,1.5,1.5,0,0,1-1.2-.5,2,2,0,0,1-.4-1.4V83.1h-3v6.1a5.26,5.26,0,0,0,.6,2.6,4.1,4.1,0,0,0,1.6,1.6,4.71,4.71,0,0,0,2.4.5,6,6,0,0,0,2.4-.5,4.36,4.36,0,0,0,1.7-1.6,5.26,5.26,0,0,0,.6-2.6l-.1-6.1Z"/><polygon class="a1f7f93f-6b7c-468b-b7ac-c29902c4f7ea" points="119.7 83.2 117.1 90.2 114.5 83.2 110.8 83.2 110.8 93.9 113.8 93.9 113.8 87.8 115.8 93.9 118.4 93.9 120.4 87.8 120.4 93.9 123.3 93.9 123.3 83.2 119.7 83.2"/><path class="a1f7f93f-6b7c-468b-b7ac-c29902c4f7ea" d="M59.2,24.1a14.11,14.11,0,0,0-6.9,1.7,11.23,11.23,0,0,0-4.6,4.8,14.73,14.73,0,0,0-1.6,7,14.46,14.46,0,0,0,1.6,7,11.23,11.23,0,0,0,4.6,4.8,14.11,14.11,0,0,0,6.9,1.7,12.63,12.63,0,0,0,8.5-2.8A12.36,12.36,0,0,0,72,40.9H64.2a5,5,0,0,1-2,2.5,5.38,5.38,0,0,1-3.1.9,5,5,0,0,1-4-1.8,7.54,7.54,0,0,1-1.5-4.9,7.54,7.54,0,0,1,1.5-4.9,4.9,4.9,0,0,1,4-1.8,5.38,5.38,0,0,1,3.1.9,5,5,0,0,1,2,2.5H72a14.49,14.49,0,0,0-2.3-5.4,12,12,0,0,0-4.4-3.6,16.56,16.56,0,0,0-6.1-1.2"/><path class="a1f7f93f-6b7c-468b-b7ac-c29902c4f7ea" d="M34.36,101.5h1V111h-1Z"/><path class="a1f7f93f-6b7c-468b-b7ac-c29902c4f7ea" d="M42,110.52a1.88,1.88,0,0,1-.67.37,2.53,2.53,0,0,1-.83.13,2.09,2.09,0,0,1-1.54-.54,2.07,2.07,0,0,1-.54-1.53v-4.29H37.12v-.81h1.27V102.3h1v1.55h2.16v.81H39.35v4.24a1.34,1.34,0,0,0,.32,1,1.16,1.16,0,0,0,.91.33,1.79,1.79,0,0,0,.57-.09,1.25,1.25,0,0,0,.48-.27Z"/><path class="a1f7f93f-6b7c-468b-b7ac-c29902c4f7ea" d="M44.33,101.07a.72.72,0,0,1,.21.52,1.48,1.48,0,0,1,0,.35c0,.12-.08.26-.13.42l-.58,1.87h-.65l.47-2a.66.66,0,0,1-.36-.25.7.7,0,0,1-.13-.44.68.68,0,0,1,.2-.52.75.75,0,0,1,1,0Z"/><path class="a1f7f93f-6b7c-468b-b7ac-c29902c4f7ea" d="M46.61,110.77a3.68,3.68,0,0,1-1.24-.63l.44-.75a3.67,3.67,0,0,0,1.12.57,4.36,4.36,0,0,0,1.4.22,2.71,2.71,0,0,0,1.44-.3,1,1,0,0,0,.46-.86.75.75,0,0,0-.25-.61,1.61,1.61,0,0,0-.65-.34,8.27,8.27,0,0,0-1-.22,12.64,12.64,0,0,1-1.39-.33,2.15,2.15,0,0,1-.9-.58,1.58,1.58,0,0,1-.37-1.12,1.78,1.78,0,0,1,.74-1.46,3.35,3.35,0,0,1,2.07-.57,5.46,5.46,0,0,1,1.38.19,3.81,3.81,0,0,1,1.13.48l-.42.77a3.53,3.53,0,0,0-2.09-.61,2.53,2.53,0,0,0-1.39.32,1,1,0,0,0-.46.85.86.86,0,0,0,.26.65,1.75,1.75,0,0,0,.66.36,9.59,9.59,0,0,0,1.08.23,12.43,12.43,0,0,1,1.36.33,2,2,0,0,1,.88.55,1.53,1.53,0,0,1,.36,1.08,1.73,1.73,0,0,1-.77,1.48,3.67,3.67,0,0,1-2.16.55A5.37,5.37,0,0,1,46.61,110.77Z"/><path class="a1f7f93f-6b7c-468b-b7ac-c29902c4f7ea" d="M60.24,110.52a1.88,1.88,0,0,1-.67.37,2.53,2.53,0,0,1-.83.13A1.88,1.88,0,0,1,56.66,109v-4.29H55.39v-.81h1.27V102.3h1v1.55h2.16v.81H57.62v4.24a1.34,1.34,0,0,0,.32,1,1.16,1.16,0,0,0,.91.33,1.79,1.79,0,0,0,.57-.09,1.25,1.25,0,0,0,.48-.27Z"/><path class="a1f7f93f-6b7c-468b-b7ac-c29902c4f7ea" d="M62,102.09a.62.62,0,0,1-.2-.48.61.61,0,0,1,.2-.47.66.66,0,0,1,.5-.21.72.72,0,0,1,.5.2.63.63,0,0,1,.2.46.7.7,0,0,1-.7.71A.66.66,0,0,1,62,102.09Zm0,1.76h1V111H62Z"/><path class="a1f7f93f-6b7c-468b-b7ac-c29902c4f7ea" d="M76.57,104.56a3.1,3.1,0,0,1,.76,2.27V111h-1v-4a2.4,2.4,0,0,0-.53-1.69,1.94,1.94,0,0,0-1.5-.58,2.3,2.3,0,0,0-1.75.68,2.67,2.67,0,0,0-.63,1.88V111H71v-4a2.44,2.44,0,0,0-.53-1.69,2,2,0,0,0-1.52-.58,2.3,2.3,0,0,0-1.74.68,2.68,2.68,0,0,0-.64,1.88V111h-1v-7.1h.92v1.29a2.51,2.51,0,0,1,1-1,3.27,3.27,0,0,1,1.56-.36,3,3,0,0,1,1.54.38,2.34,2.34,0,0,1,1,1.12,2.85,2.85,0,0,1,1.13-1.1,3.53,3.53,0,0,1,1.68-.4A2.84,2.84,0,0,1,76.57,104.56Z"/><path class="a1f7f93f-6b7c-468b-b7ac-c29902c4f7ea" d="M86.15,107.7H80.21a2.56,2.56,0,0,0,.85,1.79,2.83,2.83,0,0,0,1.94.68,3.05,3.05,0,0,0,1.22-.24,2.74,2.74,0,0,0,1-.69l.54.62a3.08,3.08,0,0,1-1.18.86A4,4,0,0,1,83,111a4,4,0,0,1-1.94-.47,3.41,3.41,0,0,1-1.32-1.29,3.72,3.72,0,0,1-.47-1.86,3.82,3.82,0,0,1,.45-1.86,3.35,3.35,0,0,1,1.24-1.29,3.55,3.55,0,0,1,1.78-.46,3.48,3.48,0,0,1,1.77.46,3.36,3.36,0,0,1,1.23,1.28,3.91,3.91,0,0,1,.44,1.87ZM81,105.27a2.55,2.55,0,0,0-.79,1.71h5a2.55,2.55,0,0,0-.79-1.71,2.61,2.61,0,0,0-3.45,0Z"/><path class="a1f7f93f-6b7c-468b-b7ac-c29902c4f7ea" d="M87.71,110.8a.72.72,0,0,1-.21-.52.72.72,0,0,1,.72-.73.73.73,0,0,1,.51.21.7.7,0,0,1,.21.52.72.72,0,0,1-.21.52.7.7,0,0,1-.51.22A.67.67,0,0,1,87.71,110.8Z"/></svg>