<?xml version="1.0" encoding="utf-8"?>
<!-- Generator: Adobe Illustrator 24.3.0, SVG Export Plug-In . SVG Version: 6.00 Build 0)  -->
<svg version="1.1" id="Layer_1" xmlns="http://www.w3.org/2000/svg" xmlns:xlink="http://www.w3.org/1999/xlink" x="0px" y="0px"
	 viewBox="0 0 123.3 112.3" style="enable-background:new 0 0 123.3 112.3;" xml:space="preserve">
<style type="text/css">
	.st0{fill:#C7EAF8;}
	.st1{fill:#D6E2CF;}
	.st2{fill:#F6E79E;}
	.st3{fill:#F4CFC6;}
	.st4{fill:#58595B;}
</style>
<g>
	<path class="st0" d="M59.8,48.4c-13.4,0-24.2-10.9-24.2-24.2S46.5,0,59.8,0S84,10.9,84,24.2S73.2,48.4,59.8,48.4z M59.8,8.4
		C51.1,8.4,44,15.5,44,24.2S51.1,40,59.8,40s15.8-7.1,15.8-15.8S68.5,8.4,59.8,8.4z"/>
	<path class="st1" d="M48.1,68.9c-13.4,0-24.2-10.9-24.2-24.2s10.9-24.2,24.2-24.2s24.2,10.9,24.2,24.2S61.4,68.9,48.1,68.9z
		 M48.1,28.9c-8.7,0-15.8,7.1-15.8,15.8s7.1,15.8,15.8,15.8s15.8-7.1,15.8-15.8S56.8,28.9,48.1,28.9z"/>
	<path class="st2" d="M59.8,61.6c-13.4,0-24.2-10.9-24.2-24.2s10.9-24.2,24.2-24.2S84,24.1,84,37.4S73.2,61.6,59.8,61.6z M59.8,21.7
		c-8.7,0-15.8,7.1-15.8,15.8s7.1,15.8,15.8,15.8s15.8-7.1,15.8-15.8S68.5,21.7,59.8,21.7z"/>
	<path class="st3" d="M72.2,69.2c-13.5,0-24.5-11-24.5-24.5s11-24.5,24.5-24.5s24.5,11,24.5,24.5S85.7,69.2,72.2,69.2z M72.2,29.2
		c-8.5,0-15.5,6.9-15.5,15.5s6.9,15.5,15.5,15.5c8.5,0,15.5-6.9,15.5-15.5S80.7,29.2,72.2,29.2z"/>
	<g>
		<path class="st4" d="M5.3,83c-1.1,0-2,0.2-2.8,0.7s-1.4,1.1-1.8,1.9C0.2,86.5,0,87.4,0,88.5s0.2,2,0.6,2.8s1,1.5,1.8,1.9
			C3.3,93.8,4.2,94,5.3,94c1.4,0,2.5-0.4,3.4-1.1s1.5-1.7,1.7-3H7.3c-0.2,0.4-0.4,0.8-0.8,1s-0.8,0.4-1.3,0.4
			c-0.7,0-1.2-0.2-1.6-0.7C3.2,90,3,89.3,3,88.5s0.2-1.5,0.6-2s1-0.7,1.6-0.7c0.5,0,0.9,0.1,1.3,0.4c0.4,0.2,0.6,0.6,0.8,1h3.1
			c-0.2-0.8-0.5-1.5-0.9-2.2c-0.5-0.6-1-1.1-1.8-1.4C7,83.2,6.2,83,5.3,83"/>
	</g>
	<polygon class="st4" points="24.7,83.1 17.7,83.1 17.7,93.9 24.7,93.9 24.7,91.5 20.7,91.5 20.7,89.6 24.2,89.6 24.2,87.3 
		20.7,87.3 20.7,85.5 24.7,85.5 	"/>
	<g>
		<path class="st4" d="M36.7,83.1H32v10.8h3v-4h0.3l2.2,4h3.3l-2.4-4.2c0.8-0.2,1.4-0.6,1.8-1.2c0.4-0.6,0.6-1.2,0.6-2
			c0-0.7-0.2-1.3-0.5-1.8s-0.8-0.9-1.4-1.2C38.3,83.3,37.6,83.1,36.7,83.1 M35,87.9v-2.3h1.5c0.4,0,0.7,0.1,0.9,0.3
			c0.2,0.2,0.3,0.5,0.3,0.8c0,0.8-0.4,1.1-1.2,1.1L35,87.9L35,87.9z"/>
	</g>
	<polygon class="st4" points="54.8,83.1 47.9,83.1 47.9,93.9 54.8,93.9 54.8,91.5 50.9,91.5 50.9,89.6 54.3,89.6 54.3,87.3 
		50.9,87.3 50.9,85.5 54.8,85.5 	"/>
	<g>
		<path class="st4" d="M67.3,83.1h-5.2v10.8h5.3c1.2,0,2-0.3,2.7-0.8c0.6-0.5,0.9-1.2,0.9-2.2c0-0.6-0.2-1.2-0.6-1.7
			s-0.9-0.8-1.5-0.9c0.5-0.1,1-0.4,1.3-0.8s0.5-1,0.5-1.6c0-0.9-0.3-1.6-0.9-2.1C69.2,83.4,68.4,83.1,67.3,83.1 M65.1,87.4v-1.9h1.5
			c0.8,0,1.1,0.3,1.1,1c0,0.6-0.4,0.9-1.1,0.9H65.1z M65.1,91.5v-2h1.7c0.8,0,1.2,0.3,1.2,1c0,0.6-0.4,1-1.2,1H65.1z"/>
		<path class="st4" d="M83,83.1h-4.7v10.8h3v-4h0.3l2.2,4H87l-2.4-4.2c0.8-0.2,1.4-0.6,1.8-1.2s0.6-1.2,0.6-2c0-0.7-0.2-1.3-0.5-1.8
			s-0.8-0.9-1.4-1.2C84.6,83.3,83.8,83.1,83,83.1 M81.2,87.9v-2.3h1.5c0.4,0,0.7,0.1,0.9,0.3c0.2,0.2,0.3,0.5,0.3,0.8
			c0,0.8-0.4,1.1-1.2,1.1L81.2,87.9L81.2,87.9z"/>
		<path class="st4" d="M103.3,83.1h-3v6.1c0,0.6-0.1,1.1-0.4,1.4s-0.7,0.5-1.2,0.5s-1-0.2-1.2-0.5c-0.3-0.3-0.4-0.8-0.4-1.4v-6.1h-3
			v6.1c0,1,0.2,1.9,0.6,2.6s0.9,1.2,1.6,1.6s1.5,0.5,2.4,0.5s1.7-0.2,2.4-0.5c0.7-0.4,1.3-0.9,1.7-1.6c0.4-0.7,0.6-1.6,0.6-2.6
			L103.3,83.1L103.3,83.1z"/>
	</g>
	<polygon class="st4" points="119.7,83.2 117.1,90.2 114.5,83.2 110.8,83.2 110.8,93.9 113.8,93.9 113.8,87.8 115.8,93.9 
		118.4,93.9 120.4,87.8 120.4,93.9 123.3,93.9 123.3,83.2 	"/>
	<g>
		<path class="st4" d="M59.2,24.1c-2.6,0-4.9,0.6-6.9,1.7s-3.5,2.7-4.6,4.8s-1.6,4.4-1.6,7s0.5,5,1.6,7c1.1,2.1,2.6,3.7,4.6,4.8
			s4.3,1.7,6.9,1.7c3.4,0,6.3-0.9,8.5-2.8c2.2-1.8,3.7-4.3,4.3-7.4h-7.8c-0.4,1.1-1.1,1.9-2,2.5s-1.9,0.9-3.1,0.9
			c-1.6,0-3-0.6-4-1.8s-1.5-2.9-1.5-4.9s0.5-3.7,1.5-4.9s2.3-1.8,4-1.8c1.2,0,2.2,0.3,3.1,0.9c0.9,0.6,1.6,1.4,2,2.5H72
			c-0.4-2-1.2-3.8-2.3-5.4c-1.1-1.5-2.6-2.7-4.4-3.6C63.5,24.6,61.5,24.1,59.2,24.1"/>
	</g>
</g>
<g>
	<path class="st4" d="M26.1,109.6c-0.6-0.3-1-0.8-1.4-1.3s-0.5-1.2-0.5-1.9c0-0.7,0.2-1.3,0.5-1.9c0.3-0.6,0.8-1,1.4-1.3
		c0.6-0.3,1.2-0.5,2-0.5c0.5,0,1,0.1,1.5,0.3c0.5,0.2,0.9,0.4,1.2,0.8l-0.5,0.5c-0.6-0.6-1.3-0.9-2.2-0.9c-0.6,0-1.1,0.1-1.6,0.4
		c-0.5,0.3-0.8,0.6-1.1,1.1c-0.3,0.5-0.4,1-0.4,1.5c0,0.6,0.1,1.1,0.4,1.5c0.3,0.5,0.6,0.8,1.1,1.1c0.5,0.3,1,0.4,1.6,0.4
		c0.9,0,1.6-0.3,2.2-0.9l0.5,0.5c-0.3,0.3-0.7,0.6-1.2,0.8c-0.5,0.2-1,0.3-1.5,0.3C27.4,110,26.7,109.9,26.1,109.6z"/>
	<path class="st4" d="M32.9,102.3c0.1,0.1,0.2,0.2,0.2,0.4c0,0.1,0,0.2,0,0.3c0,0.1-0.1,0.2-0.1,0.3l-0.5,1.4H32l0.4-1.5
		c-0.1,0-0.2-0.1-0.3-0.2c-0.1-0.1-0.1-0.2-0.1-0.3c0-0.2,0.1-0.3,0.2-0.4c0.1-0.1,0.2-0.2,0.4-0.2
		C32.7,102.2,32.8,102.2,32.9,102.3z"/>
	<path class="st4" d="M39.2,107.5h-4.6c0,0.6,0.3,1,0.7,1.4c0.4,0.4,0.9,0.5,1.5,0.5c0.3,0,0.7-0.1,0.9-0.2c0.3-0.1,0.5-0.3,0.7-0.5
		l0.4,0.5c-0.2,0.3-0.5,0.5-0.9,0.7c-0.4,0.2-0.8,0.2-1.2,0.2c-0.6,0-1.1-0.1-1.5-0.4c-0.4-0.2-0.8-0.6-1-1
		c-0.2-0.4-0.4-0.9-0.4-1.4c0-0.5,0.1-1,0.4-1.4c0.2-0.4,0.6-0.8,1-1c0.4-0.2,0.9-0.4,1.4-0.4c0.5,0,1,0.1,1.4,0.4
		c0.4,0.2,0.7,0.6,1,1c0.2,0.4,0.3,0.9,0.3,1.5L39.2,107.5z M35.2,105.6c-0.4,0.3-0.6,0.8-0.6,1.3h3.9c0-0.5-0.3-1-0.6-1.3
		c-0.4-0.3-0.8-0.5-1.3-0.5C36,105.1,35.5,105.2,35.2,105.6z"/>
	<path class="st4" d="M40.9,109.8c-0.4-0.1-0.7-0.3-1-0.5l0.3-0.6c0.2,0.2,0.5,0.3,0.9,0.4c0.3,0.1,0.7,0.2,1.1,0.2
		c0.5,0,0.9-0.1,1.1-0.2c0.2-0.2,0.4-0.4,0.4-0.7c0-0.2-0.1-0.4-0.2-0.5c-0.1-0.1-0.3-0.2-0.5-0.3c-0.2-0.1-0.5-0.1-0.8-0.2
		c-0.4-0.1-0.8-0.2-1.1-0.3c-0.3-0.1-0.5-0.2-0.7-0.4c-0.2-0.2-0.3-0.5-0.3-0.9c0-0.5,0.2-0.8,0.6-1.1c0.4-0.3,0.9-0.4,1.6-0.4
		c0.4,0,0.7,0,1.1,0.1c0.4,0.1,0.6,0.2,0.9,0.4l-0.3,0.6c-0.5-0.3-1-0.5-1.6-0.5c-0.5,0-0.8,0.1-1.1,0.3c-0.2,0.2-0.4,0.4-0.4,0.7
		c0,0.2,0.1,0.4,0.2,0.5c0.1,0.1,0.3,0.2,0.5,0.3c0.2,0.1,0.5,0.1,0.8,0.2c0.4,0.1,0.8,0.2,1.1,0.3c0.3,0.1,0.5,0.2,0.7,0.4
		c0.2,0.2,0.3,0.5,0.3,0.8c0,0.5-0.2,0.9-0.6,1.1c-0.4,0.3-1,0.4-1.7,0.4C41.7,110,41.3,110,40.9,109.8z"/>
	<path class="st4" d="M48.7,109.6c-0.1,0.1-0.3,0.2-0.5,0.3c-0.2,0.1-0.4,0.1-0.6,0.1c-0.5,0-0.9-0.1-1.2-0.4
		c-0.3-0.3-0.4-0.7-0.4-1.2v-3.3h-1v-0.6h1v-1.2h0.7v1.2h1.7v0.6h-1.7v3.3c0,0.3,0.1,0.6,0.2,0.7s0.4,0.3,0.7,0.3
		c0.2,0,0.3,0,0.4-0.1c0.1,0,0.3-0.1,0.4-0.2L48.7,109.6z"/>
	<path class="st4" d="M52.8,102.2h0.7v7.8h-0.7V102.2z"/>
	<path class="st4" d="M60.4,107.5h-4.6c0,0.6,0.3,1,0.7,1.4c0.4,0.4,0.9,0.5,1.5,0.5c0.3,0,0.7-0.1,0.9-0.2c0.3-0.1,0.5-0.3,0.7-0.5
		l0.4,0.5c-0.2,0.3-0.5,0.5-0.9,0.7c-0.4,0.2-0.8,0.2-1.2,0.2c-0.6,0-1.1-0.1-1.5-0.4c-0.4-0.2-0.8-0.6-1-1
		c-0.2-0.4-0.4-0.9-0.4-1.4c0-0.5,0.1-1,0.4-1.4c0.2-0.4,0.6-0.8,1-1c0.4-0.2,0.9-0.4,1.4-0.4c0.5,0,1,0.1,1.4,0.4
		c0.4,0.2,0.7,0.6,1,1c0.2,0.4,0.3,0.9,0.3,1.5L60.4,107.5z M56.4,105.6c-0.4,0.3-0.6,0.8-0.6,1.3h3.9c0-0.5-0.3-1-0.6-1.3
		c-0.4-0.3-0.8-0.5-1.3-0.5C57.2,105.1,56.8,105.2,56.4,105.6z"/>
	<path class="st4" d="M67.6,109.6c-0.1,0.1-0.3,0.2-0.5,0.3c-0.2,0.1-0.4,0.1-0.6,0.1c-0.5,0-0.9-0.1-1.2-0.4
		c-0.3-0.3-0.4-0.7-0.4-1.2v-3.3h-1v-0.6h1v-1.2h0.7v1.2h1.7v0.6h-1.7v3.3c0,0.3,0.1,0.6,0.2,0.7c0.2,0.2,0.4,0.3,0.7,0.3
		c0.2,0,0.3,0,0.4-0.1c0.1,0,0.3-0.1,0.4-0.2L67.6,109.6z"/>
	<path class="st4" d="M73.5,107.5h-4.6c0,0.6,0.3,1,0.7,1.4c0.4,0.4,0.9,0.5,1.5,0.5c0.3,0,0.7-0.1,0.9-0.2c0.3-0.1,0.5-0.3,0.7-0.5
		l0.4,0.5c-0.2,0.3-0.6,0.5-0.9,0.7c-0.4,0.2-0.8,0.2-1.2,0.2c-0.6,0-1.1-0.1-1.5-0.4c-0.4-0.2-0.8-0.6-1-1
		c-0.2-0.4-0.4-0.9-0.4-1.4c0-0.5,0.1-1,0.4-1.4c0.2-0.4,0.6-0.8,1-1c0.4-0.2,0.9-0.4,1.4-0.4c0.5,0,1,0.1,1.4,0.4
		c0.4,0.2,0.7,0.6,1,1c0.2,0.4,0.3,0.9,0.3,1.5L73.5,107.5z M69.6,105.6c-0.4,0.3-0.6,0.8-0.6,1.3h3.9c0-0.5-0.3-1-0.6-1.3
		c-0.4-0.3-0.8-0.5-1.3-0.5C70.4,105.1,69.9,105.2,69.6,105.6z"/>
	<path class="st4" d="M83.6,105c0.4,0.4,0.6,1,0.6,1.8v3.2h-0.7v-3.1c0-0.6-0.1-1-0.4-1.3c-0.3-0.3-0.7-0.4-1.2-0.4
		c-0.6,0-1,0.2-1.4,0.5c-0.3,0.4-0.5,0.8-0.5,1.5v2.9h-0.7v-3.1c0-0.6-0.1-1-0.4-1.3c-0.3-0.3-0.7-0.4-1.2-0.4c-0.6,0-1,0.2-1.3,0.5
		c-0.3,0.4-0.5,0.8-0.5,1.5v2.9h-0.7v-5.5h0.7v1c0.2-0.3,0.5-0.6,0.8-0.8c0.3-0.2,0.7-0.3,1.2-0.3c0.5,0,0.9,0.1,1.2,0.3
		c0.3,0.2,0.6,0.5,0.8,0.9c0.2-0.4,0.5-0.6,0.9-0.9c0.4-0.2,0.8-0.3,1.3-0.3C82.6,104.4,83.2,104.6,83.6,105z"/>
	<path class="st4" d="M90.4,104.8c0.4,0.2,0.7,0.6,1,1c0.2,0.4,0.4,0.9,0.4,1.5c0,0.6-0.1,1-0.4,1.5c-0.2,0.4-0.6,0.8-1,1
		c-0.4,0.2-0.9,0.4-1.4,0.4c-0.4,0-0.9-0.1-1.2-0.3s-0.7-0.5-0.9-0.8v3.1h-0.7v-7.5h0.7v1.1c0.2-0.4,0.5-0.6,0.9-0.8
		c0.4-0.2,0.8-0.3,1.2-0.3C89.5,104.4,90,104.5,90.4,104.8z M90,109.1c0.3-0.2,0.6-0.4,0.7-0.8c0.2-0.3,0.3-0.7,0.3-1.1
		c0-0.4-0.1-0.8-0.3-1.1c-0.2-0.3-0.4-0.6-0.7-0.8s-0.7-0.3-1-0.3c-0.4,0-0.7,0.1-1.1,0.3c-0.3,0.2-0.6,0.4-0.7,0.8
		c-0.2,0.3-0.3,0.7-0.3,1.1c0,0.4,0.1,0.8,0.3,1.1c0.2,0.3,0.4,0.6,0.7,0.8c0.3,0.2,0.7,0.3,1.1,0.3C89.4,109.4,89.7,109.3,90,109.1
		z"/>
	<path class="st4" d="M93.5,109.8c-0.4-0.1-0.7-0.3-1-0.5l0.3-0.6c0.2,0.2,0.5,0.3,0.9,0.4c0.3,0.1,0.7,0.2,1.1,0.2
		c0.5,0,0.9-0.1,1.1-0.2c0.2-0.2,0.4-0.4,0.4-0.7c0-0.2-0.1-0.4-0.2-0.5c-0.1-0.1-0.3-0.2-0.5-0.3c-0.2-0.1-0.5-0.1-0.8-0.2
		c-0.4-0.1-0.8-0.2-1.1-0.3c-0.3-0.1-0.5-0.2-0.7-0.4c-0.2-0.2-0.3-0.5-0.3-0.9c0-0.5,0.2-0.8,0.6-1.1c0.4-0.3,0.9-0.4,1.6-0.4
		c0.4,0,0.7,0,1.1,0.1c0.4,0.1,0.6,0.2,0.9,0.4l-0.3,0.6c-0.5-0.3-1-0.5-1.6-0.5c-0.5,0-0.8,0.1-1.1,0.3c-0.2,0.2-0.4,0.4-0.4,0.7
		c0,0.2,0.1,0.4,0.2,0.5c0.1,0.1,0.3,0.2,0.5,0.3c0.2,0.1,0.5,0.1,0.8,0.2c0.4,0.1,0.8,0.2,1.1,0.3c0.3,0.1,0.5,0.2,0.7,0.4
		c0.2,0.2,0.3,0.5,0.3,0.8c0,0.5-0.2,0.9-0.6,1.1c-0.4,0.3-1,0.4-1.7,0.4C94.3,110,93.9,110,93.5,109.8z"/>
	<path class="st4" d="M98.1,109.9c-0.1-0.1-0.2-0.2-0.2-0.4c0-0.2,0.1-0.3,0.2-0.4s0.2-0.2,0.4-0.2c0.2,0,0.3,0.1,0.4,0.2
		c0.1,0.1,0.2,0.2,0.2,0.4c0,0.2-0.1,0.3-0.2,0.4c-0.1,0.1-0.2,0.2-0.4,0.2C98.3,110,98.2,110,98.1,109.9z"/>
</g>
</svg>
