<svg id="b06d4b0e-6abc-4813-b233-5bffce5d1bc3" data-name="Layer 1" xmlns="http://www.w3.org/2000/svg" viewBox="0 0 123.3 112.01"><defs><style>.ea8e270f-3412-4b5e-a7b1-c414724bf4ea{fill:#c7eaf8;}.e36692c7-5676-4ee8-aa9f-907cd7befc2c{fill:#d6e2cf;}.bef92349-2cc0-4929-b62d-798611287778{fill:#f6e79e;}.bc91fb8f-7e52-4ef8-8297-b6fbb0635b39{fill:#f4cfc6;}.bb837dc5-c2b5-4c15-8c60-5bff5bf96e72{fill:#58595b;}</style></defs><path class="ea8e270f-3412-4b5e-a7b1-c414724bf4ea" d="M59.8,48.4A24.2,24.2,0,1,1,84,24.2,24.22,24.22,0,0,1,59.8,48.4Zm0-40A15.8,15.8,0,1,0,75.6,24.2,15.83,15.83,0,0,0,59.8,8.4Z"/><path class="e36692c7-5676-4ee8-aa9f-907cd7befc2c" d="M48.1,68.9A24.2,24.2,0,1,1,72.3,44.7,24.22,24.22,0,0,1,48.1,68.9Zm0-40A15.8,15.8,0,1,0,63.9,44.7,15.83,15.83,0,0,0,48.1,28.9Z"/><path class="bef92349-2cc0-4929-b62d-798611287778" d="M59.8,61.6A24.2,24.2,0,1,1,84,37.4,24.22,24.22,0,0,1,59.8,61.6Zm0-39.9A15.8,15.8,0,1,0,75.6,37.5,15.83,15.83,0,0,0,59.8,21.7Z"/><path class="bc91fb8f-7e52-4ef8-8297-b6fbb0635b39" d="M72.2,69.2A24.5,24.5,0,1,1,96.7,44.7,24.54,24.54,0,0,1,72.2,69.2Zm0-40A15.5,15.5,0,1,0,87.7,44.7,15.51,15.51,0,0,0,72.2,29.2Z"/><path class="bb837dc5-c2b5-4c15-8c60-5bff5bf96e72" d="M5.3,83a5.07,5.07,0,0,0-2.8.7A4.69,4.69,0,0,0,.7,85.6,5.66,5.66,0,0,0,0,88.5a6.09,6.09,0,0,0,.6,2.8,4.14,4.14,0,0,0,1.8,1.9,4.89,4.89,0,0,0,2.9.8,5.33,5.33,0,0,0,3.4-1.1,4.54,4.54,0,0,0,1.7-3H7.3a2,2,0,0,1-.8,1,2.84,2.84,0,0,1-1.3.4,1.86,1.86,0,0,1-1.6-.7A3.7,3.7,0,0,1,3,88.5a3.17,3.17,0,0,1,.6-2,2,2,0,0,1,1.6-.7,2,2,0,0,1,1.3.4,2,2,0,0,1,.8,1h3.1A8.49,8.49,0,0,0,9.5,85a4.2,4.2,0,0,0-1.8-1.4A4.75,4.75,0,0,0,5.3,83"/><polygon class="bb837dc5-c2b5-4c15-8c60-5bff5bf96e72" points="24.7 83.1 17.7 83.1 17.7 93.9 24.7 93.9 24.7 91.5 20.7 91.5 20.7 89.6 24.2 89.6 24.2 87.3 20.7 87.3 20.7 85.5 24.7 85.5 24.7 83.1"/><path class="bb837dc5-c2b5-4c15-8c60-5bff5bf96e72" d="M36.7,83.1H32V93.9h3v-4h.3l2.2,4h3.3l-2.4-4.2a2.91,2.91,0,0,0,1.8-1.2,3.38,3.38,0,0,0,.6-2,3.45,3.45,0,0,0-.5-1.8,3.33,3.33,0,0,0-1.4-1.2,6.65,6.65,0,0,0-2.2-.4M35,87.9V85.6h1.5a1.22,1.22,0,0,1,.9.3,1.14,1.14,0,0,1,.3.8c0,.8-.4,1.1-1.2,1.1l-1.5.1Z"/><polygon class="bb837dc5-c2b5-4c15-8c60-5bff5bf96e72" points="54.8 83.1 47.9 83.1 47.9 93.9 54.8 93.9 54.8 91.5 50.9 91.5 50.9 89.6 54.3 89.6 54.3 87.3 50.9 87.3 50.9 85.5 54.8 85.5 54.8 83.1"/><path class="bb837dc5-c2b5-4c15-8c60-5bff5bf96e72" d="M67.3,83.1H62.1V93.9h5.3a4.34,4.34,0,0,0,2.7-.8,2.66,2.66,0,0,0,.9-2.2,2.72,2.72,0,0,0-.6-1.7,2.37,2.37,0,0,0-1.5-.9,2.22,2.22,0,0,0,1.3-.8,2.77,2.77,0,0,0,.5-1.6,2.58,2.58,0,0,0-.9-2.1,4.37,4.37,0,0,0-2.5-.7m-2.2,4.3V85.5h1.5c.8,0,1.1.3,1.1,1s-.4.9-1.1.9Zm0,4.1v-2h1.7c.8,0,1.2.3,1.2,1s-.4,1-1.2,1Z"/><path class="bb837dc5-c2b5-4c15-8c60-5bff5bf96e72" d="M83,83.1H78.3V93.9h3v-4h.3l2.2,4H87l-2.4-4.2a2.91,2.91,0,0,0,1.8-1.2,3.38,3.38,0,0,0,.6-2,3.45,3.45,0,0,0-.5-1.8,3.33,3.33,0,0,0-1.4-1.2,6,6,0,0,0-2.1-.4m-1.8,4.8V85.6h1.5a1.22,1.22,0,0,1,.9.3,1.14,1.14,0,0,1,.3.8c0,.8-.4,1.1-1.2,1.1l-1.5.1Z"/><path class="bb837dc5-c2b5-4c15-8c60-5bff5bf96e72" d="M103.3,83.1h-3v6.1a2,2,0,0,1-.4,1.4,1.66,1.66,0,0,1-1.2.5,1.5,1.5,0,0,1-1.2-.5,2,2,0,0,1-.4-1.4V83.1h-3v6.1a5.26,5.26,0,0,0,.6,2.6,4.1,4.1,0,0,0,1.6,1.6,4.71,4.71,0,0,0,2.4.5,6,6,0,0,0,2.4-.5,4.36,4.36,0,0,0,1.7-1.6,5.26,5.26,0,0,0,.6-2.6l-.1-6.1Z"/><polygon class="bb837dc5-c2b5-4c15-8c60-5bff5bf96e72" points="119.7 83.2 117.1 90.2 114.5 83.2 110.8 83.2 110.8 93.9 113.8 93.9 113.8 87.8 115.8 93.9 118.4 93.9 120.4 87.8 120.4 93.9 123.3 93.9 123.3 83.2 119.7 83.2"/><path class="bb837dc5-c2b5-4c15-8c60-5bff5bf96e72" d="M59.2,24.1a14.11,14.11,0,0,0-6.9,1.7,11.23,11.23,0,0,0-4.6,4.8,14.73,14.73,0,0,0-1.6,7,14.46,14.46,0,0,0,1.6,7,11.23,11.23,0,0,0,4.6,4.8,14.11,14.11,0,0,0,6.9,1.7,12.63,12.63,0,0,0,8.5-2.8A12.36,12.36,0,0,0,72,40.9H64.2a5,5,0,0,1-2,2.5,5.38,5.38,0,0,1-3.1.9,5,5,0,0,1-4-1.8,7.54,7.54,0,0,1-1.5-4.9,7.54,7.54,0,0,1,1.5-4.9,4.9,4.9,0,0,1,4-1.8,5.38,5.38,0,0,1,3.1.9,5,5,0,0,1,2,2.5H72a14.49,14.49,0,0,0-2.3-5.4,12,12,0,0,0-4.4-3.6,16.56,16.56,0,0,0-6.1-1.2"/><path class="bb837dc5-c2b5-4c15-8c60-5bff5bf96e72" d="M26.13,109.56a3.53,3.53,0,0,1-1.37-1.34,3.9,3.9,0,0,1,0-3.82,3.6,3.6,0,0,1,1.37-1.34,4.31,4.31,0,0,1,3.48-.21,3.21,3.21,0,0,1,1.17.8l-.49.49a2.91,2.91,0,0,0-2.17-.87,3.25,3.25,0,0,0-1.58.4,3,3,0,0,0-1.11,1.09,3.13,3.13,0,0,0,0,3.1A3,3,0,0,0,26.54,109a3.25,3.25,0,0,0,1.58.4,2.9,2.9,0,0,0,2.17-.88l.49.49a3.09,3.09,0,0,1-1.17.8,4.19,4.19,0,0,1-1.52.28A4,4,0,0,1,26.13,109.56Z"/><path class="bb837dc5-c2b5-4c15-8c60-5bff5bf96e72" d="M32.93,102.32a.56.56,0,0,1,.16.4,1.47,1.47,0,0,1,0,.27c0,.09-.06.2-.1.33l-.45,1.44H32l.36-1.51a.54.54,0,0,1-.28-.19.57.57,0,0,1-.1-.34.56.56,0,0,1,.15-.41.58.58,0,0,1,.4-.16A.54.54,0,0,1,32.93,102.32Z"/><path class="bb837dc5-c2b5-4c15-8c60-5bff5bf96e72" d="M39.17,107.45H34.56a2,2,0,0,0,.66,1.39,2.42,2.42,0,0,0,2.45.34,2,2,0,0,0,.75-.54l.41.49a2.38,2.38,0,0,1-.91.67,3.18,3.18,0,0,1-1.21.23,3,3,0,0,1-1.5-.36,2.58,2.58,0,0,1-1-1,2.82,2.82,0,0,1-.37-1.45,3,3,0,0,1,.35-1.44,2.57,2.57,0,0,1,1-1,2.67,2.67,0,0,1,1.38-.35,2.61,2.61,0,0,1,1.37.35,2.51,2.51,0,0,1,.95,1,2.88,2.88,0,0,1,.35,1.45Zm-4-1.88a2,2,0,0,0-.62,1.33h3.91a2,2,0,0,0-.61-1.33,1.89,1.89,0,0,0-1.35-.51A1.86,1.86,0,0,0,35.18,105.57Z"/><path class="bb837dc5-c2b5-4c15-8c60-5bff5bf96e72" d="M40.89,109.83a2.86,2.86,0,0,1-1-.48l.34-.59a3,3,0,0,0,.87.45,3.6,3.6,0,0,0,1.09.17,2,2,0,0,0,1.11-.24.74.74,0,0,0,.36-.66.58.58,0,0,0-.2-.48,1.39,1.39,0,0,0-.5-.26,6,6,0,0,0-.8-.17,9.64,9.64,0,0,1-1.08-.26,1.63,1.63,0,0,1-.7-.45,1.21,1.21,0,0,1-.29-.86,1.4,1.4,0,0,1,.58-1.14,2.6,2.6,0,0,1,1.6-.43,3.93,3.93,0,0,1,1.07.14,2.65,2.65,0,0,1,.88.37l-.33.6a2.72,2.72,0,0,0-1.62-.48,1.86,1.86,0,0,0-1.07.26.75.75,0,0,0-.36.65.66.66,0,0,0,.2.51,1.25,1.25,0,0,0,.51.27,6.88,6.88,0,0,0,.84.19,9.18,9.18,0,0,1,1,.25,1.47,1.47,0,0,1,.68.43,1.17,1.17,0,0,1,.29.84,1.32,1.32,0,0,1-.6,1.14,2.84,2.84,0,0,1-1.68.43A4.23,4.23,0,0,1,40.89,109.83Z"/><path class="bb837dc5-c2b5-4c15-8c60-5bff5bf96e72" d="M48.72,109.64a1.38,1.38,0,0,1-.52.29,2.25,2.25,0,0,1-.64.1,1.46,1.46,0,0,1-1.62-1.61V105.1H45v-.63h1v-1.21h.75v1.21h1.67v.63H46.69v3.28a1.06,1.06,0,0,0,.24.75,1,1,0,0,0,.71.26,1.76,1.76,0,0,0,.45-.07,1.23,1.23,0,0,0,.37-.21Z"/><path class="bb837dc5-c2b5-4c15-8c60-5bff5bf96e72" d="M52.81,102.21h.75V110h-.75Z"/><path class="bb837dc5-c2b5-4c15-8c60-5bff5bf96e72" d="M60.43,107.45H55.82a2,2,0,0,0,.66,1.39,2.21,2.21,0,0,0,1.51.53,2.26,2.26,0,0,0,.94-.19,2,2,0,0,0,.74-.54l.42.49a2.41,2.41,0,0,1-.92.67A3.14,3.14,0,0,1,58,110a3.08,3.08,0,0,1-1.5-.36,2.72,2.72,0,0,1-1-1,2.92,2.92,0,0,1-.37-1.45,2.85,2.85,0,0,1,.36-1.44,2.5,2.5,0,0,1,1-1,2.67,2.67,0,0,1,1.38-.35,2.64,2.64,0,0,1,1.37.35,2.58,2.58,0,0,1,1,1,3,3,0,0,1,.35,1.45Zm-4-1.88a2,2,0,0,0-.61,1.33h3.9a2,2,0,0,0-.61-1.33,2,2,0,0,0-2.68,0Z"/><path class="bb837dc5-c2b5-4c15-8c60-5bff5bf96e72" d="M67.6,109.64a1.38,1.38,0,0,1-.52.29,2.31,2.31,0,0,1-.64.1,1.46,1.46,0,0,1-1.62-1.61V105.1h-1v-.63h1v-1.21h.75v1.21h1.67v.63H65.57v3.28a1.06,1.06,0,0,0,.24.75,1,1,0,0,0,.71.26,1.62,1.62,0,0,0,.44-.07,1.17,1.17,0,0,0,.38-.21Z"/><path class="bb837dc5-c2b5-4c15-8c60-5bff5bf96e72" d="M73.54,107.45h-4.6a2,2,0,0,0,.66,1.39,2.21,2.21,0,0,0,1.51.53,2.26,2.26,0,0,0,.94-.19,2,2,0,0,0,.74-.54l.42.49a2.49,2.49,0,0,1-.92.67,3.14,3.14,0,0,1-1.21.23,3.08,3.08,0,0,1-1.5-.36,2.72,2.72,0,0,1-1-1,2.92,2.92,0,0,1-.37-1.45,2.85,2.85,0,0,1,.36-1.44,2.5,2.5,0,0,1,1-1,2.88,2.88,0,0,1,2.75,0,2.58,2.58,0,0,1,.95,1,3,3,0,0,1,.35,1.45Zm-4-1.88a2,2,0,0,0-.61,1.33h3.9a2,2,0,0,0-.61-1.33,2,2,0,0,0-2.68,0Z"/><path class="bb837dc5-c2b5-4c15-8c60-5bff5bf96e72" d="M83.57,105a2.43,2.43,0,0,1,.59,1.76V110h-.74v-3.12a1.88,1.88,0,0,0-.41-1.3,1.52,1.52,0,0,0-1.17-.45,1.75,1.75,0,0,0-1.35.52,2.08,2.08,0,0,0-.5,1.47V110h-.74v-3.12a1.88,1.88,0,0,0-.41-1.3,1.53,1.53,0,0,0-1.18-.45,1.78,1.78,0,0,0-1.35.52,2.07,2.07,0,0,0-.49,1.47V110h-.75v-5.5h.72v1a1.94,1.94,0,0,1,.81-.77,2.6,2.6,0,0,1,1.21-.27,2.32,2.32,0,0,1,1.2.29,1.74,1.74,0,0,1,.75.87,2.21,2.21,0,0,1,.88-.86,2.74,2.74,0,0,1,1.3-.3A2.18,2.18,0,0,1,83.57,105Z"/><path class="bb837dc5-c2b5-4c15-8c60-5bff5bf96e72" d="M90.42,104.78a2.48,2.48,0,0,1,1,1,3,3,0,0,1,.35,1.45,3.07,3.07,0,0,1-.35,1.47,2.66,2.66,0,0,1-1,1A2.89,2.89,0,0,1,89,110a2.66,2.66,0,0,1-1.21-.28,2.36,2.36,0,0,1-.88-.81V112h-.75v-7.54h.71v1.09a2.24,2.24,0,0,1,.89-.84,2.55,2.55,0,0,1,1.24-.29A2.75,2.75,0,0,1,90.42,104.78ZM90,109.1a1.87,1.87,0,0,0,.74-.76,2.29,2.29,0,0,0,.27-1.12,2.23,2.23,0,0,0-.27-1.11,1.87,1.87,0,0,0-.74-.76,2,2,0,0,0-1-.28,2.12,2.12,0,0,0-1.06.28,1.91,1.91,0,0,0-.73.76,2.22,2.22,0,0,0-.26,1.11,2.29,2.29,0,0,0,.26,1.12,1.91,1.91,0,0,0,.73.76,2.12,2.12,0,0,0,1.06.27A2,2,0,0,0,90,109.1Z"/><path class="bb837dc5-c2b5-4c15-8c60-5bff5bf96e72" d="M93.47,109.83a2.9,2.9,0,0,1-1-.48l.33-.59a3,3,0,0,0,.87.45,3.6,3.6,0,0,0,1.09.17,2,2,0,0,0,1.11-.24.73.73,0,0,0,.37-.66.61.61,0,0,0-.2-.48,1.44,1.44,0,0,0-.51-.26,6,6,0,0,0-.8-.17,9.64,9.64,0,0,1-1.08-.26,1.69,1.69,0,0,1-.7-.45,1.2,1.2,0,0,1-.28-.86,1.39,1.39,0,0,1,.57-1.14,2.62,2.62,0,0,1,1.6-.43,3.88,3.88,0,0,1,1.07.14,2.65,2.65,0,0,1,.88.37l-.32.6a2.78,2.78,0,0,0-1.63-.48,1.86,1.86,0,0,0-1.07.26.75.75,0,0,0-.36.65.69.69,0,0,0,.2.51,1.25,1.25,0,0,0,.51.27,6.88,6.88,0,0,0,.84.19,10,10,0,0,1,1.06.25,1.58,1.58,0,0,1,.68.43,1.17,1.17,0,0,1,.28.84,1.32,1.32,0,0,1-.6,1.14,2.81,2.81,0,0,1-1.67.43A4.25,4.25,0,0,1,93.47,109.83Z"/><path class="bb837dc5-c2b5-4c15-8c60-5bff5bf96e72" d="M98.08,109.86a.56.56,0,0,1-.16-.41.54.54,0,0,1,.16-.4.53.53,0,0,1,.39-.16.54.54,0,0,1,.4.16.54.54,0,0,1,.17.4.57.57,0,0,1-.17.41.54.54,0,0,1-.4.17A.54.54,0,0,1,98.08,109.86Z"/></svg>