<?xml version="1.0" encoding="utf-8"?>
<!-- Generator: Adobe Illustrator 24.3.0, SVG Export Plug-In . SVG Version: 6.00 Build 0)  -->
<svg version="1.1" id="Layer_1" xmlns="http://www.w3.org/2000/svg" xmlns:xlink="http://www.w3.org/1999/xlink" x="0px" y="0px"
	 viewBox="0 0 123.3 110.6" style="enable-background:new 0 0 123.3 110.6;" xml:space="preserve">
<style type="text/css">
	.st0{fill:#C7EAF8;}
	.st1{fill:#D6E2CF;}
	.st2{fill:#F6E79E;}
	.st3{fill:#F4CFC6;}
	.st4{fill:#58595B;}
	.st5{fill:#59595B;}
</style>
<g>
	<path class="st0" d="M59.8,48.4c-13.4,0-24.2-10.9-24.2-24.2S46.5,0,59.8,0S84,10.9,84,24.2S73.2,48.4,59.8,48.4z M59.8,8.4
		c-8.7,0-15.8,7.1-15.8,15.8S51.1,40,59.8,40s15.8-7.1,15.8-15.8S68.5,8.4,59.8,8.4z"/>
	<path class="st1" d="M48.1,68.9c-13.4,0-24.2-10.9-24.2-24.2s10.9-24.2,24.2-24.2s24.2,10.9,24.2,24.2S61.4,68.9,48.1,68.9z
		 M48.1,28.9c-8.7,0-15.8,7.1-15.8,15.8s7.1,15.8,15.8,15.8s15.8-7.1,15.8-15.8S56.8,28.9,48.1,28.9z"/>
	<path class="st2" d="M59.8,61.6c-13.4,0-24.2-10.9-24.2-24.2s10.9-24.2,24.2-24.2S84,24.1,84,37.4S73.2,61.6,59.8,61.6z M59.8,21.7
		c-8.7,0-15.8,7.1-15.8,15.8s7.1,15.8,15.8,15.8s15.8-7.1,15.8-15.8S68.5,21.7,59.8,21.7z"/>
	<path class="st3" d="M72.2,69.2c-13.5,0-24.5-11-24.5-24.5s11-24.5,24.5-24.5c13.5,0,24.5,11,24.5,24.5S85.7,69.2,72.2,69.2z
		 M72.2,29.2c-8.5,0-15.5,6.9-15.5,15.5s6.9,15.5,15.5,15.5c8.5,0,15.5-6.9,15.5-15.5S80.7,29.2,72.2,29.2z"/>
	<g>
		<path class="st4" d="M5.3,83c-1.1,0-2,0.2-2.8,0.7c-0.8,0.5-1.4,1.1-1.8,1.9C0.2,86.5,0,87.4,0,88.5c0,1.1,0.2,2,0.6,2.8
			c0.4,0.8,1,1.5,1.8,1.9C3.3,93.8,4.2,94,5.3,94c1.4,0,2.5-0.4,3.4-1.1s1.5-1.7,1.7-3H7.3c-0.2,0.4-0.4,0.8-0.8,1
			c-0.4,0.2-0.8,0.4-1.3,0.4c-0.7,0-1.2-0.2-1.6-0.7C3.2,90,3,89.3,3,88.5s0.2-1.5,0.6-2C4,86,4.6,85.8,5.2,85.8
			c0.5,0,0.9,0.1,1.3,0.4c0.4,0.2,0.6,0.6,0.8,1h3.1c-0.2-0.8-0.5-1.5-0.9-2.2c-0.5-0.6-1-1.1-1.8-1.4C7,83.2,6.2,83,5.3,83"/>
	</g>
	<polygon class="st4" points="24.7,83.1 17.7,83.1 17.7,93.9 24.7,93.9 24.7,91.5 20.7,91.5 20.7,89.6 24.2,89.6 24.2,87.3 
		20.7,87.3 20.7,85.5 24.7,85.5 	"/>
	<g>
		<path class="st4" d="M36.7,83.1H32v10.8h3v-4h0.3l2.2,4h3.3l-2.4-4.2c0.8-0.2,1.4-0.6,1.8-1.2c0.4-0.6,0.6-1.2,0.6-2
			c0-0.7-0.2-1.3-0.5-1.8c-0.3-0.5-0.8-0.9-1.4-1.2C38.3,83.3,37.6,83.1,36.7,83.1 M35,87.9v-2.3h1.5c0.4,0,0.7,0.1,0.9,0.3
			c0.2,0.2,0.3,0.5,0.3,0.8c0,0.8-0.4,1.1-1.2,1.1H35z"/>
	</g>
	<polygon class="st4" points="54.8,83.1 47.9,83.1 47.9,93.9 54.8,93.9 54.8,91.5 50.9,91.5 50.9,89.6 54.3,89.6 54.3,87.3 
		50.9,87.3 50.9,85.5 54.8,85.5 	"/>
	<g>
		<path class="st4" d="M67.3,83.1h-5.2v10.8h5.3c1.2,0,2-0.3,2.7-0.8c0.6-0.5,0.9-1.2,0.9-2.2c0-0.6-0.2-1.2-0.6-1.7
			c-0.4-0.5-0.9-0.8-1.5-0.9c0.5-0.1,1-0.4,1.3-0.8c0.3-0.4,0.5-1,0.5-1.6c0-0.9-0.3-1.6-0.9-2.1C69.2,83.4,68.4,83.1,67.3,83.1
			 M65.1,87.4v-1.9h1.5c0.8,0,1.1,0.3,1.1,1c0,0.6-0.4,0.9-1.1,0.9H65.1z M65.1,91.5v-2h1.7c0.8,0,1.2,0.3,1.2,1c0,0.6-0.4,1-1.2,1
			H65.1z"/>
		<path class="st4" d="M83,83.1h-4.7v10.8h3v-4h0.3l2.2,4H87l-2.4-4.2c0.8-0.2,1.4-0.6,1.8-1.2c0.4-0.6,0.6-1.2,0.6-2
			c0-0.7-0.2-1.3-0.5-1.8c-0.3-0.5-0.8-0.9-1.4-1.2C84.6,83.3,83.8,83.1,83,83.1 M81.2,87.9v-2.3h1.5c0.4,0,0.7,0.1,0.9,0.3
			c0.2,0.2,0.3,0.5,0.3,0.8c0,0.8-0.4,1.1-1.2,1.1H81.2z"/>
		<path class="st4" d="M103.3,83.1h-3v6.1c0,0.6-0.1,1.1-0.4,1.4c-0.3,0.3-0.7,0.5-1.2,0.5c-0.5,0-1-0.2-1.2-0.5
			c-0.3-0.3-0.4-0.8-0.4-1.4v-6.1h-3v6.1c0,1,0.2,1.9,0.6,2.6c0.4,0.7,0.9,1.2,1.6,1.6c0.7,0.4,1.5,0.5,2.4,0.5
			c0.9,0,1.7-0.2,2.4-0.5c0.7-0.4,1.3-0.9,1.7-1.6c0.4-0.7,0.6-1.6,0.6-2.6V83.1z"/>
	</g>
	<polygon class="st4" points="119.7,83.2 117.1,90.2 114.5,83.2 110.8,83.2 110.8,93.9 113.8,93.9 113.8,87.8 115.8,93.9 
		118.4,93.9 120.4,87.8 120.4,93.9 123.3,93.9 123.3,83.2 	"/>
	<g>
		<path class="st4" d="M59.2,24.1c-2.6,0-4.9,0.6-6.9,1.7c-2,1.1-3.5,2.7-4.6,4.8c-1.1,2.1-1.6,4.4-1.6,7c0,2.6,0.5,5,1.6,7
			c1.1,2.1,2.6,3.7,4.6,4.8c2,1.1,4.3,1.7,6.9,1.7c3.4,0,6.3-0.9,8.5-2.8c2.2-1.8,3.7-4.3,4.3-7.4h-7.8c-0.4,1.1-1.1,1.9-2,2.5
			c-0.9,0.6-1.9,0.9-3.1,0.9c-1.6,0-3-0.6-4-1.8c-1-1.2-1.5-2.9-1.5-4.9c0-2,0.5-3.7,1.5-4.9c1-1.2,2.3-1.8,4-1.8
			c1.2,0,2.2,0.3,3.1,0.9c0.9,0.6,1.6,1.4,2,2.5H72c-0.4-2-1.2-3.8-2.3-5.4c-1.1-1.5-2.6-2.7-4.4-3.6C63.5,24.6,61.5,24.1,59.2,24.1
			"/>
	</g>
</g>
<g>
	<path class="st5" d="M45,110.6h-0.7l1.2-7.1h0.7L45,110.6z"/>
	<path class="st5" d="M49.5,106.5h-1.3l-0.5,2.7c0,0.1,0,0.2,0,0.3c0,0.2,0.1,0.4,0.2,0.4s0.2,0.1,0.4,0.1c0.1,0,0.2,0,0.3,0
		s0.2-0.1,0.3-0.1l-0.1,0.6c-0.1,0-0.2,0.1-0.3,0.1c-0.1,0-0.3,0-0.4,0c-0.1,0-0.2,0-0.3,0c-0.1,0-0.2-0.1-0.3-0.1s-0.2-0.2-0.2-0.3
		c-0.1-0.1-0.1-0.3-0.1-0.5c0-0.1,0-0.2,0-0.3l0.5-2.9h-1l0.1-0.6h1l0.2-1.3h0.7l-0.2,1.3h1.3L49.5,106.5z"/>
	<path class="st5" d="M51.1,105.9h-0.6l1.1-2.3h0.7L51.1,105.9z"/>
	<path class="st5" d="M55.1,107c-0.1-0.2-0.2-0.3-0.4-0.4c-0.2-0.1-0.4-0.2-0.7-0.2c-0.1,0-0.2,0-0.4,0c-0.1,0-0.2,0.1-0.4,0.1
		c-0.1,0.1-0.2,0.1-0.3,0.2c-0.1,0.1-0.1,0.2-0.1,0.4c0,0.1,0,0.2,0.1,0.3s0.1,0.1,0.2,0.2s0.2,0.1,0.3,0.1c0.1,0,0.2,0.1,0.4,0.1
		c0.5,0.1,0.8,0.3,1,0.5c0.2,0.2,0.4,0.5,0.4,0.9c0,0.3-0.1,0.5-0.2,0.7s-0.3,0.3-0.4,0.5c-0.2,0.1-0.4,0.2-0.6,0.3
		s-0.4,0.1-0.6,0.1c-0.4,0-0.8-0.1-1.1-0.2c-0.3-0.1-0.6-0.4-0.8-0.7l0.6-0.4c0.1,0.2,0.3,0.4,0.5,0.5s0.5,0.2,0.8,0.2
		c0.1,0,0.3,0,0.4,0c0.1,0,0.3-0.1,0.4-0.1s0.2-0.1,0.3-0.3c0.1-0.1,0.1-0.2,0.1-0.4c0-0.2-0.1-0.4-0.3-0.6
		c-0.2-0.1-0.5-0.3-0.8-0.4c-0.1,0-0.3-0.1-0.4-0.2c-0.1-0.1-0.3-0.1-0.4-0.2s-0.2-0.2-0.3-0.4c-0.1-0.1-0.1-0.3-0.1-0.5
		c0-0.2,0.1-0.4,0.2-0.6c0.1-0.2,0.2-0.3,0.4-0.4s0.4-0.2,0.6-0.2s0.4-0.1,0.6-0.1c0.4,0,0.7,0.1,1,0.2c0.3,0.1,0.5,0.3,0.6,0.6
		L55.1,107z"/>
	<path class="st5" d="M61.5,106.5h-1.3l-0.5,2.7c0,0.1,0,0.2,0,0.3c0,0.2,0.1,0.4,0.2,0.4s0.2,0.1,0.4,0.1c0.1,0,0.2,0,0.3,0
		s0.2-0.1,0.3-0.1l-0.1,0.6c-0.1,0-0.2,0.1-0.3,0.1c-0.1,0-0.3,0-0.4,0c-0.1,0-0.2,0-0.3,0c-0.1,0-0.2-0.1-0.3-0.1s-0.2-0.2-0.2-0.3
		c-0.1-0.1-0.1-0.3-0.1-0.5c0-0.1,0-0.2,0-0.3l0.5-2.9h-1l0.1-0.6h1l0.2-1.3h0.7l-0.2,1.3h1.3L61.5,106.5z"/>
	<path class="st5" d="M62.6,110.6h-0.7l0.8-4.7h0.7L62.6,110.6z M63.8,104.1c0,0.1,0,0.2-0.1,0.3c-0.1,0.1-0.2,0.1-0.3,0.1
		c-0.1,0-0.2,0-0.3-0.1c-0.1-0.1-0.1-0.2-0.1-0.3s0-0.3,0.1-0.3c0.1-0.1,0.2-0.1,0.3-0.1s0.2,0,0.3,0.1
		C63.8,103.9,63.8,104,63.8,104.1z"/>
	<path class="st5" d="M70.3,105.8c0.5,0,0.9,0.1,1.2,0.4c0.3,0.3,0.4,0.6,0.4,1c0,0.1,0,0.2,0,0.2s0,0.2,0,0.3l-0.5,2.9h-0.7
		l0.5-2.6c0-0.2,0.1-0.4,0.1-0.6c0-0.3-0.1-0.6-0.2-0.8c-0.2-0.2-0.4-0.3-0.8-0.3c-0.2,0-0.5,0-0.6,0.2c-0.2,0.1-0.3,0.2-0.5,0.4
		c-0.1,0.2-0.2,0.4-0.3,0.6c-0.1,0.2-0.1,0.4-0.2,0.6l-0.4,2.5h-0.7l0.5-2.7c0-0.2,0.1-0.4,0.1-0.6c0-0.3-0.1-0.5-0.2-0.7
		s-0.4-0.2-0.7-0.2c-0.2,0-0.3,0-0.5,0.1c-0.2,0.1-0.3,0.2-0.5,0.3s-0.3,0.3-0.4,0.6c-0.1,0.2-0.2,0.5-0.3,0.8l-0.4,2.4h-0.7L65,107
		c0-0.1,0.1-0.3,0.1-0.5c0-0.2,0.1-0.4,0.1-0.5h0.6c0,0.1,0,0.3,0,0.4c0,0.2,0,0.3-0.1,0.4h0c0.2-0.3,0.4-0.5,0.7-0.7
		c0.3-0.2,0.6-0.2,0.9-0.2c0.1,0,0.3,0,0.4,0s0.3,0.1,0.4,0.2c0.1,0.1,0.2,0.2,0.3,0.3s0.2,0.3,0.2,0.5c0.2-0.3,0.4-0.6,0.7-0.7
		S70,105.8,70.3,105.8z"/>
	<path class="st5" d="M73.8,108.5c0,0,0,0.1,0,0.1c0,0,0,0.1,0,0.1c0,0.2,0,0.4,0.1,0.6c0.1,0.2,0.2,0.3,0.3,0.5s0.3,0.2,0.5,0.3
		c0.2,0.1,0.4,0.1,0.6,0.1c0.4,0,0.7-0.1,1-0.2c0.3-0.2,0.5-0.4,0.7-0.6l0.4,0.4c-0.3,0.3-0.6,0.6-1,0.7c-0.4,0.2-0.7,0.2-1.2,0.2
		c-0.3,0-0.6,0-0.8-0.1c-0.3-0.1-0.5-0.2-0.7-0.4c-0.2-0.2-0.3-0.4-0.5-0.6c-0.1-0.3-0.2-0.5-0.2-0.9c0-0.4,0.1-0.7,0.2-1.1
		c0.1-0.3,0.3-0.6,0.6-0.9c0.2-0.3,0.5-0.5,0.9-0.6c0.3-0.2,0.7-0.2,1.1-0.2c0.6,0,1.1,0.2,1.5,0.5s0.5,0.8,0.5,1.3
		c0,0.1,0,0.2,0,0.4c0,0.2,0,0.3-0.1,0.4H73.8z M77.1,108c0-0.1,0-0.1,0-0.2c0-0.1,0-0.1,0-0.2c0-0.4-0.1-0.7-0.3-0.9
		c-0.2-0.2-0.5-0.3-1-0.3c-0.2,0-0.5,0-0.7,0.1c-0.2,0.1-0.4,0.2-0.6,0.3c-0.2,0.1-0.3,0.3-0.4,0.5c-0.1,0.2-0.2,0.4-0.2,0.6H77.1z"
		/>
</g>
</svg>
