<?xml version="1.0" encoding="utf-8"?>
<!-- Generator: Adobe Illustrator 24.3.0, SVG Export Plug-In . SVG Version: 6.00 Build 0)  -->
<svg version="1.1" id="Layer_1" xmlns="http://www.w3.org/2000/svg" xmlns:xlink="http://www.w3.org/1999/xlink" x="0px" y="0px"
	 viewBox="0 0 1083 1294" style="enable-background:new 0 0 1083 1294;" xml:space="preserve">
<style type="text/css">
	.st0{fill-rule:evenodd;clip-rule:evenodd;fill:#FFFFFF;}
	.st1{fill:#58585B;}
	.st2{font-family:'AvenirNext-Medium';}
	.st3{font-size:25.6115px;}
	.st4{fill-rule:evenodd;clip-rule:evenodd;fill:#58585B;}
	.st5{fill-rule:evenodd;clip-rule:evenodd;fill:#D2E3CF;}
	.st6{fill-rule:evenodd;clip-rule:evenodd;fill:#DCF0F6;}
	.st7{fill-rule:evenodd;clip-rule:evenodd;fill:#FCE89B;}
	.st8{fill-rule:evenodd;clip-rule:evenodd;fill:#F7E1DA;}
	.st9{fill:none;stroke:#58585B;stroke-width:2;stroke-miterlimit:10;}
</style>
<desc>Created with Sketch.</desc>
<desc>Created with Sketch.</desc>
<g id="Desktop" transform="translate(-222.000000, -1446.000000)">
	<g id="Group-14" transform="translate(343.000000, 1446.000000)">
		<path id="Rectangle-3" class="st0" d="M169.9,0.3h477.5c30.3,0,54.9,24.6,54.9,54.9v129.9c0,30.3-24.6,54.9-54.9,54.9H169.9
			c-30.3,0-54.9-24.6-54.9-54.9V55.2C115,24.9,139.6,0.3,169.9,0.3z"/>
		<text transform="matrix(1 0 0 1 256.3682 47.875)" class="st1 st2 st3">One-on-One Assessments</text>
		<g id="Page-1" transform="translate(144.000000, 55.000000)">
			<path id="Fill-1" class="st4" d="M239.9,87.2c6.4,0,11.6,4.9,11.6,10.9s-5.2,10.9-11.6,10.9c-6.4,0-11.6-4.9-11.6-10.9
				S233.5,87.2,239.9,87.2 M239.9,111.8c8.1,0,14.6-6.2,14.6-13.7c0-7.6-6.6-13.7-14.6-13.7c-8.1,0-14.6,6.2-14.6,13.7
				C225.3,105.6,231.8,111.8,239.9,111.8"/>
			<path id="Fill-3" class="st4" d="M255.3,138.2h-32.6v-4.9c0-9.3,7.3-16.8,16.3-16.8s16.3,7.6,16.3,16.8L255.3,138.2L255.3,138.2z
				 M239,113.6c-10.6,0-19.2,8.8-19.2,19.7v6.3c0,0.8,0.7,1.4,1.5,1.4h35.5c0.8,0,1.5-0.6,1.5-1.4v-6.3
				C258.2,122.5,249.6,113.6,239,113.6z"/>
			<path id="Fill-5" class="st4" d="M304.6,98.1c0,6-5.2,10.9-11.6,10.9s-11.6-4.9-11.6-10.9s5.2-10.9,11.6-10.9
				S304.6,92.1,304.6,98.1 M278.3,98.1c0,7.6,6.6,13.7,14.6,13.7c8.1,0,14.6-6.2,14.6-13.7c0-7.6-6.6-13.7-14.6-13.7
				C284.9,84.3,278.3,90.5,278.3,98.1"/>
			<path id="Fill-7" class="st4" d="M310.2,138.2h-32.6v-4.9c0-9.3,7.3-16.8,16.3-16.8s16.3,7.6,16.3,16.8L310.2,138.2L310.2,138.2z
				 M293.9,113.6c-10.6,0-19.2,8.8-19.2,19.7v6.3c0,0.8,0.7,1.4,1.5,1.4h35.5c0.8,0,1.5-0.6,1.5-1.4v-6.3
				C313.1,122.5,304.5,113.6,293.9,113.6z"/>
			<g id="Group-11" transform="translate(21.000000, 0.000000)">
				<g id="Clip-10">
				</g>
				<path id="Fill-9" class="st4" d="M241.1,67.4V51c0-0.7,0.6-1.4,1.4-1.4H274c0.8,0,1.4,0.6,1.4,1.4v16.4c0,0.7-0.6,1.4-1.4,1.4
					h-2.1c-0.8,0-1.5,0.6-1.5,1.4v2.7l-3.6-3.7c-0.3-0.3-0.7-0.4-1-0.4h-23.3C241.7,68.7,241.1,68.1,241.1,67.4z M270.8,77.5
					c0.3,0.3,0.7,0.4,1.1,0.4c0.2,0,0.4,0,0.5-0.1c0.6-0.2,0.9-0.8,0.9-1.3v-4.9h0.7c2.4,0,4.3-1.9,4.3-4.3V51
					c0-2.3-1.9-4.3-4.3-4.3h-31.6c-2.4,0-4.3,1.9-4.3,4.3v16.4c0,2.3,1.9,4.3,4.3,4.3h22.7L270.8,77.5z"/>
			</g>
			<path id="Fill-12" class="st4" d="M267,58.7h24.5c0.8,0,1.5-0.8,1.5-1.8s-0.7-1.8-1.5-1.8H267c-0.8,0-1.5,0.8-1.5,1.8
				S266.2,58.7,267,58.7"/>
			<path id="Fill-14" class="st4" d="M267,64.2h24.5c0.8,0,1.5-0.8,1.5-1.8s-0.7-1.8-1.5-1.8H267c-0.8,0-1.5,0.8-1.5,1.8
				C265.5,63.4,266.2,64.2,267,64.2"/>
			<path id="Fill-18" class="st4" d="M236.7,74.4h0.6v4.9c0,0.6,0.3,1.1,0.9,1.3c0.2,0.1,0.4,0.1,0.5,0.1c0.4,0,0.7-0.2,1-0.4
				l5.5-5.9h11.1c-1-0.7-1.9-1.7-2.5-2.9h-9.2c-0.4,0-0.8,0.2-1,0.4l-3.5,3.7v-2.7c0-0.8-0.6-1.4-1.4-1.4h-2c-0.7,0-1.3-0.6-1.3-1.4
				V53.8c0-0.7,0.6-1.4,1.3-1.4h16V51c0-0.5,0.1-1,0.1-1.4h-16.2c-2.3,0-4.1,1.9-4.1,4.2v16.3C232.6,72.5,234.5,74.4,236.7,74.4"/>
			<path id="Fill-20" class="st4" d="M241.4,58.7h13.2V55h-13.2c-0.8,0-1.5,0.8-1.5,1.8C239.9,57.9,240.6,58.7,241.4,58.7"/>
			<path id="Fill-22" class="st4" d="M241.4,64.2h13.2v-3.7h-13.2c-0.8,0-1.5,0.8-1.5,1.8C239.9,63.4,240.6,64.2,241.4,64.2"/>
			<path id="Fill-24" class="st4" d="M241.4,69.7h13.1h0.1c-0.2-0.8-0.3-1.7-0.3-2.5V66h-12.9c-0.8,0-1.4,0.8-1.4,1.8
				C239.9,68.9,240.6,69.7,241.4,69.7"/>
		</g>
	</g>
	<g id="Group-10" transform="translate(222.000000, 1653.000000)">
		<g id="Group-5">
			<g id="Group-26" transform="translate(202.000000, 334.000000)">
				<path id="Rectangle-3_1_" class="st5" d="M235.2,461.8h197.6c30.3,0,54.9,24.6,54.9,54.9v181.1c0,30.3-24.6,54.9-54.9,54.9
					H235.2c-30.3,0-54.9-24.6-54.9-54.9V516.7C180.3,486.4,204.9,461.8,235.2,461.8z"/>
				<text transform="matrix(1 0 0 1 243.3477 525.8477)" class="st1 st2 st3">Follow-ups and</text>
				<text transform="matrix(1 0 0 1 423.1885 525.8477)" class="st1 st2 st3"> </text>
				<text transform="matrix(1 0 0 1 236.8174 566.0928)" class="st1 st2 st3">Goal Attainment</text>
				<g id="noun_Bull-Market_211212" transform="translate(59.000000, 68.000000)">
					<g id="Group">
						<path id="Shape" class="st1" d="M287,551.1h36.5l0,0c0.1,0,0.3,0,0.4,0l0,0c0,0,0,0,0.1,0s0.3,0,0.4,0.1l0,0l0,0
							c0.1,0,0.3,0.1,0.4,0.1l0,0h0.1c0.1,0,0.2,0.1,0.3,0.1c0,0,0.1,0,0.1,0.1c0.1,0,0.2,0.1,0.3,0.1l0,0l0,0
							c0.1,0.1,0.2,0.1,0.3,0.2c0,0,0.1,0,0.1,0.1c0.1,0.1,0.2,0.1,0.3,0.2l0.1,0.1c0.1,0.1,0.1,0.1,0.2,0.2
							c0.1,0.1,0.1,0.1,0.2,0.2l0.1,0.1c0.1,0.1,0.1,0.1,0.2,0.2l0.1,0.1c0,0.1,0.1,0.1,0.1,0.2c0,0.1,0.1,0.1,0.1,0.2
							c0,0.1,0.1,0.2,0.1,0.3c0,0,0,0.1,0.1,0.1c0.1,0.1,0.1,0.2,0.1,0.4l0,0l0,0c0,0.1,0.1,0.2,0.1,0.4v0.1c0,0.1,0,0.2,0,0.3
							s0,0.1,0,0.2c0,0.1,0,0.2,0,0.3s0,0.1,0,0.2c0,0,0,0,0,0.1v36.5c0,1.6-0.8,3.2-2.3,4c-1.4,0.8-3.2,0.8-4.6,0s-2.3-2.4-2.3-4
							v-25.5l-42.5,42.5c-1.8,1.8-4.7,1.8-6.5,0l-15.1-15.1L226.1,623c-1.2,1.2-2.8,1.6-4.4,1.2c-1.6-0.4-2.8-1.7-3.2-3.2
							s0-3.3,1.2-4.4l32-32c1.8-1.8,4.7-1.8,6.5,0l15.1,15.1l39.3-39.3H287c-1.6,0-3.2-0.8-4-2.3s-0.8-3.2,0-4.6
							S285.3,551.1,287,551.1z"/>
					</g>
				</g>
			</g>
			<g id="Group-25" transform="translate(0.000000, 163.000000)">
				<path id="Rectangle-3_2_" class="st6" d="M54.9,329.1h197.6c30.3,0,54.9,24.6,54.9,54.9v181.1c0,30.3-24.6,54.9-54.9,54.9H54.9
					C24.6,620,0,595.4,0,565.1V384C0,353.7,24.6,329.1,54.9,329.1z"/>
				<text transform="matrix(1 0 0 1 72.5068 393.168)" class="st1 st2 st3">Re-evaluation</text>
				<text transform="matrix(1 0 0 1 233.0381 393.168)" class="st1 st2 st3"> </text>
				<text transform="matrix(1 0 0 1 83.8662 433.4141)" class="st1 st2 st3">and Update</text>
				<g id="noun_Refresh_1590805" transform="translate(58.000000, 92.000000)">
					<path id="Shape_1_" class="st1" d="M130.4,432.9c0,21.2-17.2,38.4-38.4,38.4s-38.4-17.2-38.4-38.4c0-21.2,17.2-38.4,38.4-38.4
						c13,0,24.5,6.5,31.5,16.5h-23.2v5.5h26.4h3.8v-4.8v-28.2H125v20.4c-8-9.1-19.8-14.9-32.9-14.9c-24.2,0-43.9,19.7-43.9,43.9
						s19.7,43.9,43.9,43.9s43.9-19.7,43.9-43.9H130.4z"/>
				</g>
			</g>
			<g id="Group-22" transform="translate(202.000000, 0.000000)">
				<path id="Rectangle-3_3_" class="st7" d="M222.4,192.1H420c30.3,0,54.9,24.6,54.9,54.9v181.1c0,30.3-24.6,54.9-54.9,54.9H222.4
					c-30.3,0-54.9-24.6-54.9-54.9V247C167.5,216.7,192.1,192.1,222.4,192.1z"/>
				<text transform="matrix(1 0 0 1 247.5225 245.1709)" class="st1 st2 st3">Round-Table</text>
				<text transform="matrix(1 0 0 1 394.1465 245.1709)" class="st1 st2 st3"> </text>
				<text transform="matrix(1 0 0 1 258.5371 285.416)" class="st1 st2 st3">Discussion</text>
			</g>
			<g id="Group-23" transform="translate(424.000000, 170.000000)">
				<path id="Rectangle-3_4_" class="st8" d="M406.5,322.1h197.6c30.3,0,54.9,24.6,54.9,54.9v181.1c0,30.3-24.6,54.9-54.9,54.9
					H406.5c-30.3,0-54.9-24.6-54.9-54.9V377C351.7,346.7,376.2,322.1,406.5,322.1z"/>
				<text transform="matrix(1 0 0 1 429.8428 380.6807)" class="st1 st2 st3">Personalized</text>
				<text transform="matrix(1 0 0 1 579.2061 380.6807)" class="st1 st2 st3"> </text>
				<text transform="matrix(1 0 0 1 479.5938 419.0957)" class="st1 st2 st3">Plan</text>
				<path id="Page-1_2_" class="st4" d="M478.8,543.7h-0.1c-0.5,0.1-0.9,0.6-0.9,1.1v7.3h-7.3h-0.1c-0.6,0-1.1,0.6-1.1,1.2
					c0,0.6,0.6,1.1,1.2,1.1h7.3v7.3c-0.1,0.6,0.4,1.2,1,1.3s1.2-0.4,1.3-1c0-0.1,0-0.2,0-0.3v-7.3h7.3c0.6,0,1.2-0.5,1.2-1.2
					c0-0.6-0.5-1.2-1.2-1.2h-7.3v-7.3c0-0.6-0.5-1.2-1.1-1.2C479,543.7,478.9,543.7,478.8,543.7z M503.8,544h32.6v-3.1h-32.6
					L503.8,544L503.8,544z M478.8,536.3c0.3,0,0.7,0,1,0c4.7,0.2,9.3,2.5,12.5,6.5l0,0l0,0l0,0c5.8,7.5,4.4,18.2-3.1,24
					s-18.2,4.4-24-3.1s-4.4-18.2,3.1-24c2.8-2.2,6-3.3,9.3-3.5C478.1,536.3,478.5,536.3,478.8,536.3z M494.7,524.2h41.7v-3.1h-41.7
					V524.2z M485.3,524.2h3.8v-3.1h-3.8V524.2z M494.7,508h41.7v-3.1h-41.7V508z M485.3,508h3.8v-3.1h-3.8V508z M494.7,491.8h41.7
					v-3.1h-41.7V491.8z M485.3,491.8h3.8v-3.1h-3.8V491.8z M478,470.9h15.1v5.2c0,0.6,0.5,1.1,1.1,1.1h37.6c0.6,0,1.1-0.5,1.1-1.1
					v-5.2H548v87.4h-50.5c1.4-5.5,0.4-11.7-3.3-16.6l0,0v-0.1l-0.1-0.1H494l-0.1-0.1c-3.8-4.8-9.5-7.3-15.3-7.3c-0.3,0-0.5,0-0.8,0
					L478,470.9L478,470.9z M512.6,454.9c-0.8,0.1-1.5,0.3-2.2,0.8c-1.8,1.4-2.1,3.9-0.8,5.7c1.4,1.8,4,2.1,5.7,0.8s2.1-4,0.7-5.7
					C515.2,455.3,513.9,454.8,512.6,454.9L512.6,454.9z M513.1,450.6c0.1,0,0.1,0,0.2,0c2.3,0.1,4.6,1.1,6.1,3l0.1,0.1v0.1
					c2.3,2.9,2.2,6.8,0.2,9.7c-0.5,0.7,0.1,1.8,0.9,1.8h10.1v9.6h-35.3v-9.6h10c0.8,0,1.4-1.1,0.9-1.8c-2.5-3.6-1.8-8.5,1.7-11.2
					C509.6,451.2,511.3,450.6,513.1,450.6z M513.3,448.4c-0.1,0-0.2,0-0.3,0l0,0h-0.1c-2.2,0-4.4,0.7-6.2,2.1c-3.9,3-4.9,8.2-3,12.5
					h-9.5c-0.6,0-1.1,0.5-1.1,1.1v4.4h-16.3h-0.1h-0.1c-0.5,0.1-0.9,0.6-0.9,1.1v64.6c-3,0.5-5.9,1.7-8.5,3.7
					c-8.5,6.5-10,18.7-3.5,27.2s18.7,10,27.1,3.5c2.9-2.2,4.9-5.1,6.1-8.2h52.4c0.6,0,1.1-0.5,1.1-1.1v-89.7c0-0.6-0.5-1.1-1.1-1.1
					H533v-4.4c0-0.6-0.5-1.1-1.1-1.1h-9.4c1.5-3.4,1.3-7.3-1.1-10.4l0,0v-0.1l-0.1-0.1v-0.1c-1.9-2.4-4.6-3.6-7.4-3.8
					c-0.1-0.1-0.2-0.1-0.3-0.1C513.5,448.4,513.4,448.4,513.3,448.4C513.4,448.4,513.3,448.4,513.3,448.4z"/>
			</g>
		</g>
		
			<g id="noun_Arrow_2985763" transform="translate(125.096788, 98.770181) scale(-1, 1) rotate(-90.000000) translate(-125.096788, -98.770181) translate(78.596788, 67.770181)">
			<path id="Shape_2_" class="st1" d="M-284.7-16.7c-2.5,0-5,0-7.6-0.1l0.1-4.8c69.7,2.1,108-25.3,127.9-48.7
				c21.6-25.4,26.7-51.7,26.8-51.9l4.7,0.9c-0.2,1.1-5.4,27.6-27.7,53.9C-180.3-44-217.7-16.7-284.7-16.7z"/>
			<polygon id="Shape_3_" class="st1" points="-127.1,-92.3 -135.1,-120.8 -159.2,-99.3 -162.3,-102.8 -132.6,-129.4 -122.5,-93.6 
							"/>
		</g>
		
			<g id="noun_Arrow_2985763_1_" transform="translate(444.618330, 93.328536) scale(1, -1) rotate(-14.000000) translate(-444.618330, -93.328536) translate(398.118330, 62.328536)">
			<path id="Shape_4_" class="st1" d="M387.4-65.7c-2.5,0-5,0-7.6-0.1l0.1-4.8c69.7,2.1,108-25.3,127.9-48.7
				c21.6-25.4,26.7-51.7,26.8-51.9l4.7,0.9c-0.2,1.1-5.4,27.6-27.7,53.9C491.8-93,454.3-65.7,387.4-65.7z"/>
			<polygon id="Shape_5_" class="st1" points="545,-141.3 536.9,-169.8 512.9,-148.3 509.7,-151.9 539.4,-178.5 549.6,-142.6 			"/>
		</g>
		
			<g id="noun_Arrow_2985763_2_" transform="translate(454.803118, 409.413794) scale(1, -1) rotate(-91.000000) translate(-454.803118, -409.413794) translate(408.303118, 378.413794)">
			<path id="Shape_6_" class="st1" d="M474.1,473.1c-2.5,0-5,0-7.6-0.1l0.1-4.8c69.7,2.1,108-25.3,127.9-48.7
				c21.6-25.4,26.7-51.7,26.8-51.9l4.7,0.9c-0.2,1.1-5.4,27.6-27.7,53.9C578.6,445.8,541.1,473.1,474.1,473.1z"/>
			<polygon id="Shape_7_" class="st1" points="631.7,397.5 623.7,369 599.6,390.6 596.5,387 626.2,360.4 636.3,396.2 			"/>
		</g>
		
			<g id="noun_Arrow_2985763_3_" transform="translate(124.618330, 415.328536) scale(1, -1) rotate(-194.000000) translate(-124.618330, -415.328536) translate(78.118330, 384.328536)">
			<path id="Shape_8_" class="st1" d="M-256,563.2c-2.5,0-5,0-7.6-0.1l0.1-4.8c69.7,2.1,108-25.3,127.9-48.7
				c21.6-25.4,26.7-51.7,26.8-51.9l4.7,0.9c-0.2,1.1-5.4,27.6-27.7,53.9C-151.6,535.9-189,563.2-256,563.2z"/>
			<polygon id="Shape_9_" class="st1" points="-98.4,487.6 -106.5,459.1 -130.5,480.6 -133.7,477 -103.9,450.4 -93.8,486.3 			"/>
		</g>
	</g>
	
		<g id="Page-1_3_" transform="translate(516.000000, 1619.000000) rotate(90.000000) translate(-516.000000, -1619.000000) translate(491.000000, 1612.000000)">
		<g id="Group-35">
			<polygon id="Fill-1_2_" class="st4" points="115.1,-227 204.7,-227 204.7,-230.7 115.1,-230.7 			"/>
			<g id="Group-4" transform="translate(42.000000, 0.000000)">
				<g id="Clip-3">
				</g>
				<path id="Fill-2" class="st4" d="M151.5-216c-0.5,0-1-0.3-1.3-0.8c-0.5-0.8-0.4-2,0.4-2.6l10.3-8.7c0.3-0.2,0.4-0.5,0.4-0.7
					s-0.1-0.5-0.4-0.7l-10.3-8.8c-0.7-0.6-0.9-1.8-0.3-2.6c0.5-0.8,1.5-1,2.3-0.4l10.3,8.8c1.1,0.9,1.7,2.3,1.7,3.7
					s-0.6,2.8-1.8,3.7l-10.3,8.7C152.2-216.2,151.8-216,151.5-216"/>
			</g>
		</g>
	</g>
</g>
<path class="st9" d="M560.3,592.3c0,21.7-17.6,39.2-39.2,39.2c-21.7,0-39.2-17.6-39.2-39.2c0-21.7,17.6-39.2,39.2-39.2
	C542.7,553,560.3,570.6,560.3,592.3z M521.1,514c-3.6,0-6.4,2.9-6.4,6.4c0,3.6,2.9,6.4,6.4,6.4c3.6,0,6.4-2.9,6.4-6.4
	S524.6,514,521.1,514z M544,540.5L544,540.5c-5.5-4.7-12.2-7.6-19.3-8.3l-3.2,3.4c-0.1,0.1-0.3,0.2-0.5,0.2l0,0
	c-0.2,0-0.4-0.1-0.5-0.2l-3.1-3.4c-7,0.7-13.7,3.6-19.1,8.1c-0.6,0.5-1.6,1.6-1.3,3.1c0.5,2.3,2,3.7,3.9,3.7l0,0
	c1.2,0,2.3-0.8,2.6-1c4.9-4.1,11.1-6.3,17.4-6.3c9.5,0,17.6,6.4,17.7,6.5c0.7,0.5,1.5,0.7,2.3,0.7c2.2,0,3.9-1.7,4-3.9
	C545.1,541.7,544.1,540.6,544,540.5z M443.3,592c0,3.6,2.9,6.4,6.4,6.4c3.6,0,6.4-2.9,6.4-6.4s-2.9-6.4-6.4-6.4
	C446.2,585.5,443.3,588.4,443.3,592z M469.8,569L469.8,569c-4.7,5.5-7.6,12.2-8.3,19.3l3.4,3.2c0.1,0.1,0.2,0.3,0.2,0.5l0,0
	c0,0.2-0.1,0.4-0.2,0.5l-3.4,3.1c0.7,7,3.6,13.7,8.1,19.1c0.5,0.6,1.6,1.6,3.1,1.3c2.3-0.5,3.7-2,3.7-3.9l0,0c0-1.2-0.8-2.3-1-2.6
	c-4.1-4.9-6.3-11.1-6.3-17.4c0-9.5,6.4-17.6,6.5-17.7c0.5-0.7,0.7-1.5,0.7-2.3c0-2.2-1.7-3.9-3.9-4C471,567.9,469.9,568.9,469.8,569
	z M521,670.6c3.6,0,6.4-2.9,6.4-6.4c0-3.6-2.9-6.4-6.4-6.4s-6.4,2.9-6.4,6.4S517.5,670.6,521,670.6z M498.1,644.1L498.1,644.1
	c5.5,4.7,12.2,7.6,19.3,8.3l3.2-3.4c0.1-0.1,0.3-0.2,0.5-0.2l0,0c0.2,0,0.4,0.1,0.5,0.2l3.1,3.4c7-0.7,13.7-3.6,19.1-8.1
	c0.6-0.5,1.6-1.6,1.3-3.1c-0.5-2.3-2-3.7-3.9-3.7l0,0c-1.2,0-2.3,0.8-2.6,1c-4.9,4.1-11.1,6.3-17.4,6.3c-9.5,0-17.6-6.4-17.7-6.5
	c-0.7-0.5-1.5-0.7-2.3-0.7c-2.2,0-3.9,1.7-4,3.9C497,642.9,498,643.9,498.1,644.1z M599.9,591.8c0-3.6-2.9-6.4-6.4-6.4
	c-3.6,0-6.4,2.9-6.4,6.4s2.9,6.4,6.4,6.4S599.9,595.4,599.9,591.8z M573.3,614.8L573.3,614.8c4.7-5.5,7.6-12.2,8.3-19.3l-3.4-3.2
	c-0.1-0.1-0.2-0.3-0.2-0.5l0,0c0-0.2,0.1-0.4,0.2-0.5l3.4-3.1c-0.7-7-3.6-13.7-8.1-19.1c-0.5-0.6-1.6-1.6-3.1-1.3
	c-2.3,0.5-3.7,2-3.7,3.9l0,0c0,1.2,0.8,2.3,1,2.6c4.1,4.9,6.3,11.1,6.3,17.4c0,9.5-6.4,17.6-6.5,17.7c-0.5,0.7-0.7,1.5-0.7,2.3
	c0,2.2,1.7,3.9,3.9,4C572.1,615.8,573.2,614.9,573.3,614.8z"/>
<g>
	<path class="st1" d="M409.5,398.4c0-4.9-0.2-6.5-3.5-6.8l-3.5-0.3c-0.6-0.3-0.6-1.3-0.1-1.6c6-1.1,10-3,11.9-4.2
		c0.3,0,0.6,0.1,0.7,0.4c-0.1,1.3-0.3,4.9-0.3,9v27.9c0,5.5,0.1,6.8,3.1,7l3,0.2c0.4,0.4,0.4,1.6-0.1,1.8c-2.8-0.1-6-0.2-8.6-0.2
		c-2.6,0-5.8,0.1-8.6,0.2c-0.5-0.2-0.6-1.4-0.1-1.8l3-0.2c3-0.2,3.1-1.4,3.1-7V398.4z"/>
</g>
<g>
	<path class="st1" d="M824.7,731.7c3.3,0,5.5-0.4,6.8-1.6c1.4-1.2,1.9-2.2,2.3-3c0.5-0.2,1.3,0,1.6,0.4c-0.9,3.6-2.2,7.3-3.3,8.8
		c-3-0.1-6-0.2-9.3-0.2h-10.4c-4,0-6.4,0.1-8,0.2c-0.1-0.1-0.5-0.4-0.5-0.9c0-0.2,0.4-0.5,0.8-0.8c3.3-2.2,5.7-4.6,11-10.4
		c4.8-5.1,10.3-12.1,10.3-19.8c0-6.6-3.2-10.5-9-10.5c-4.3,0-7.4,3-9.4,7.2c-0.6,0.4-1.7,0-1.7-0.9c2.3-6.3,8-10.2,14.5-10.2
		c7.2,0,11.9,4.8,11.9,11.7c0,4.5-2.1,9.4-7.7,15.8l-4.4,5c-5.9,6.8-6.6,7.9-6.6,8.4c0,0.5,0.4,0.6,2.2,0.6H824.7z"/>
</g>
<g>
	<path class="st1" d="M406.6,1035.7c0-1.4,1.1-2.8,2.8-2.8c1.7,0,2.7,1.4,3.5,2.6c0.9,1.4,1.8,2.2,3.8,2.2c4.7,0,12.9-6.1,12.9-14.1
		c0-6.3-3-11.7-9.3-11.7c-3.5,0-6.1,1.7-7.8,3.5c-1.2-0.1-2-1.2-1.6-2.5c2.7-1.2,8.6-3.9,11.5-6.3c1.6-1.3,3.8-3.5,3.8-6.9
		c0-3.8-2.7-6.2-5.9-6.2c-4.2,0-7.5,2.7-9.7,6.3c-0.7,0.1-1.5-0.3-1.5-1c2.2-5,7.5-8.7,13-8.7c5.9,0,10,3.2,10,8.3
		c0,3-1.2,5.8-7.7,9.2c-0.4,0.7,0,1,0.9,1.1c5.5,0.4,10.4,4.2,10.4,11.1c0,5.2-2.5,10.4-7,14.3c-5.3,4.7-11.5,6.2-15,6.2
		C410.5,1040.2,406.6,1039.1,406.6,1035.7z"/>
</g>
<g>
	<path class="st1" d="M35.9,710.9c-0.6,0-1-0.5-1-1.2c0-0.9,0.3-1.3,1.3-2.7l23.1-32.3c0.5-0.6,0.9-1,1.7-1h1.2
		c0.7,0,1.1,0.2,1.1,0.6c0,0.2-0.1,0.5-0.4,0.8L40,706.7c-0.9,1.2,0.1,1.2,2,1.2h11.2c1.7,0,2-0.2,2-1.9v-13.2
		c0-0.5,0.1-1.1,0.6-1.4c0.9-0.6,2.5-1.2,3.7-1.2c1-0.1,1,0.8,1,2.2v13.9c0,1.4,0.2,1.7,1.4,1.7h4.6c0.6,0.5,0.6,2.4,0,3h-3.9
		c-1.8,0-2.2,0.1-2.2,1.6v3.2c0,5.7,0.1,6.6,3.1,7l1.9,0.2c0.4,0.4,0.4,1.6-0.1,1.8c-2.6-0.1-5.3-0.2-7.5-0.2c-2.6,0-5.8,0.1-9,0.2
		c-0.5-0.2-0.6-1.4-0.1-1.8l3.2-0.2c3-0.2,3.2-1.4,3.2-7v-3c0-1.7-0.2-1.8-2.1-1.8H35.9z"/>
</g>
</svg>
