<?xml version="1.0" encoding="utf-8"?>
<!-- Generator: Adobe Illustrator 24.3.0, SVG Export Plug-In . SVG Version: 6.00 Build 0)  -->
<svg version="1.1" id="Layer_1" xmlns="http://www.w3.org/2000/svg" xmlns:xlink="http://www.w3.org/1999/xlink" x="0px" y="0px"
	 viewBox="0 0 891 1024" style="enable-background:new 0 0 891 1024;" xml:space="preserve">
<style type="text/css">
	.st0{fill-rule:evenodd;clip-rule:evenodd;fill:#C6E9F7;}
	.st1{fill-rule:evenodd;clip-rule:evenodd;fill:#FCE89B;}
	.st2{fill-rule:evenodd;clip-rule:evenodd;fill:#D2E3CF;}
	.st3{fill-rule:evenodd;clip-rule:evenodd;fill:#F7E1DA;}
</style>
<g>
	<desc>Created with Sketch.</desc>
	<g id="Welcome">
		<g id="Desktop" transform="translate(-695.000000, -2440.000000)">
			<g id="Group-33" transform="translate(56.000000, 2440.000000)">
				<g id="Page-1" transform="translate(639.000000, 0.000000)">
					<path id="Fill-1" class="st0" d="M119.3,1020.1H13.4c-7.4,0-13.5-6.1-13.5-13.7V783.6c0-7.5,6-13.7,13.5-13.7h105.9
						c7.4,0,13.5,6.1,13.5,13.7v222.8C132.8,1014,126.7,1020.1,119.3,1020.1"/>
					<path id="Fill-1_1_" class="st1" d="M377.2,1020.1H271.3c-7.4,0-13.5-12.4-13.5-27.8V539.8c0-15.3,6-27.7,13.5-27.8h105.9
						c7.4,0,13.5,12.4,13.5,27.8v452.6C390.7,1007.7,384.7,1020.1,377.2,1020.1"/>
					<path id="Fill-8" class="st2" d="M877.5,1024H771.6c-7.4,0-13.5-6.1-13.5-13.6V13.6c0-7.5,6-13.6,13.5-13.6h105.9
						C885,0,891,6.1,891,13.6v996.7C891,1017.9,885,1024,877.5,1024"/>
					<path id="Fill-8_1_" class="st3" d="M639.1,1020.1H533.2c-7.4,0-13.5-4.4-13.5-9.8V295.1c0-5.4,6-9.8,13.5-9.8h105.9
						c7.5,0,13.5,4.4,13.5,9.8v715.2C652.6,1015.7,646.6,1020.1,639.1,1020.1"/>
				</g>
			</g>
		</g>
	</g>
</g>
</svg>
