<svg id="bc7f2f17-b33d-422e-b72b-7b997670c2b3" data-name="Layer 1" xmlns="http://www.w3.org/2000/svg" viewBox="0 0 561.37 1024.55"><defs><style>.a6b48c7f-97fe-4b43-b46f-121c36c4007b{fill:#fce89b;}.a6b48c7f-97fe-4b43-b46f-121c36c4007b,.a8506fac-9993-4c13-9b7a-74a2eefce588,.bca447a3-8ef0-49b5-987a-f43d527b01ce,.be79a97d-77d8-45cc-bb97-0a27e89a7df8,.be804135-0c73-4dc4-bb48-e32e4c706606,.eddafd75-9fe4-4352-9f63-6c3000d8f975,.f5ecfa83-61bf-4910-a293-c68a1d6c3353{fill-rule:evenodd;}.b3a1e5ac-10b7-4e2a-88a1-6415bea4ad90{fill:none;stroke:#fff;}.bca447a3-8ef0-49b5-987a-f43d527b01ce{fill:#f7e1da;}.f5ecfa83-61bf-4910-a293-c68a1d6c3353{fill:#c6e9f7;}.be804135-0c73-4dc4-bb48-e32e4c706606{fill:#d2e3cf;}.a8506fac-9993-4c13-9b7a-74a2eefce588{fill:#f4f3f1;}.eddafd75-9fe4-4352-9f63-6c3000d8f975{fill:#cf9988;}.be79a97d-77d8-45cc-bb97-0a27e89a7df8{fill:#58585b;}</style></defs><g id="ea3d3c6d-7b4b-42ab-965e-6a839eb93eff" data-name="Welcome"><g id="afdd8525-3571-4cf5-8f66-26b251fd5d72" data-name="Desktop"><g id="aba9299f-733e-4b58-8f80-2e14e030b7b5" data-name="Group-30"><g id="b137fb9c-606d-4af1-bd46-b7b799416716" data-name="Group-29"><g id="f90076a4-ee0d-4fab-9f22-7d1160ec833d" data-name="Page-1"><path id="a44d4f4f-cf70-4057-9fe4-86babc557ef6" data-name="Fill-4" class="a6b48c7f-97fe-4b43-b46f-121c36c4007b" d="M205.8,202.1a10.49,10.49,0,0,0,2.7,5.7h0s8.8,10.3,1.8,11.4L183,223.6l-4.4-27.8c-1.1-7.2-11.2,1.8-11.2,1.8h0a10.19,10.19,0,0,1-5.6,2.7,11.29,11.29,0,0,1-3.5-22.3,10.83,10.83,0,0,1,6.2.8h0s12.4,5.3,11.2-1.8l-4.4-27.8,27.3-4.4c7-1.1-1.8-11.4-1.8-11.4h0a11.64,11.64,0,0,1-2.7-5.7,11.09,11.09,0,1,1,21.9-3.5,12.11,12.11,0,0,1-.8,6.3h0s-5.2,12.6,1.8,11.4l27.3-4.4,4.4,27.8c1.1,7.2-11.2,1.8-11.2,1.8h0a10.83,10.83,0,0,0-6.2-.8,11.29,11.29,0,0,0,3.5,22.3,10.91,10.91,0,0,0,5.6-2.7h0s10.1-9,11.2-1.8l4.4,27.7-27.3,4.4c-7,1.1-1.8-11.4-1.8-11.4h0a12.11,12.11,0,0,0,.8-6.3,11.21,11.21,0,0,0-12.7-9.4,11.41,11.41,0,0,0-9.2,13" transform="translate(0.22 0.58)"/><path id="e000955f-72de-4766-b294-618542a5cdd9" data-name="Stroke-6" class="b3a1e5ac-10b7-4e2a-88a1-6415bea4ad90" d="M205.8,202.1a10.49,10.49,0,0,0,2.7,5.7h0s8.8,10.3,1.8,11.4L183,223.6l-4.4-27.8c-1.1-7.2-11.2,1.8-11.2,1.8h0a10.19,10.19,0,0,1-5.6,2.7,11.29,11.29,0,0,1-3.5-22.3,10.83,10.83,0,0,1,6.2.8h0s12.4,5.3,11.2-1.8l-4.4-27.8,27.3-4.4c7-1.1-1.8-11.4-1.8-11.4h0a11.64,11.64,0,0,1-2.7-5.7,11.09,11.09,0,1,1,21.9-3.5,12.11,12.11,0,0,1-.8,6.3h0s-5.2,12.6,1.8,11.4l27.3-4.4,4.4,27.8c1.1,7.2-11.2,1.8-11.2,1.8h0a10.83,10.83,0,0,0-6.2-.8,11.29,11.29,0,0,0,3.5,22.3,10.91,10.91,0,0,0,5.6-2.7h0s10.1-9,11.2-1.8l4.4,27.7-27.3,4.4c-7,1.1-1.8-11.4-1.8-11.4h0a12.11,12.11,0,0,0,.8-6.3,11.21,11.21,0,0,0-12.7-9.4A11.41,11.41,0,0,0,205.8,202.1Z" transform="translate(0.22 0.58)"/><path id="f269c836-ffc4-420f-9219-902649b8694d" data-name="Fill-8" class="bca447a3-8ef0-49b5-987a-f43d527b01ce" d="M311.8,325.1a11.15,11.15,0,0,0-6,1.8h0s-11.5,7.3-11.5,0V298.7h27.9c7.2,0,0-11.6,0-11.6h0a11.76,11.76,0,0,1-1.8-6.1,11.2,11.2,0,1,1,20.6,6.1h0s-7.2,11.6,0,11.6h27.9v28.2c0,7.3,11.5,0,11.5,0h0a11.15,11.15,0,0,1,6-1.8,11.3,11.3,0,0,1,0,22.6,11.15,11.15,0,0,1-6-1.8h0s-11.5-7.3-11.5,0v28.2H341c-7.2,0,0,11.6,0,11.6h0a11.76,11.76,0,0,1,1.8,6.1,11.2,11.2,0,1,1-20.6-6.1h0s7.2-11.6,0-11.6H294.3V346c0-7.3,11.5,0,11.5,0h0a11.15,11.15,0,0,0,6,1.8A11.27,11.27,0,0,0,323,336.5a11.42,11.42,0,0,0-11.2-11.4" transform="translate(0.22 0.58)"/><path id="b658101b-e319-493e-b3d8-0c86b5a7e1e3" data-name="Stroke-10" class="b3a1e5ac-10b7-4e2a-88a1-6415bea4ad90" d="M311.8,325.1a11.15,11.15,0,0,0-6,1.8h0s-11.5,7.3-11.5,0V298.7h27.9c7.2,0,0-11.6,0-11.6h0a11.76,11.76,0,0,1-1.8-6.1,11.2,11.2,0,1,1,20.6,6.1h0s-7.2,11.6,0,11.6h27.9v28.2c0,7.3,11.5,0,11.5,0h0a11.15,11.15,0,0,1,6-1.8,11.3,11.3,0,0,1,0,22.6,11.15,11.15,0,0,1-6-1.8h0s-11.5-7.3-11.5,0v28.2H341c-7.2,0,0,11.6,0,11.6h0a11.76,11.76,0,0,1,1.8,6.1,11.2,11.2,0,1,1-20.6-6.1h0s7.2-11.6,0-11.6H294.3V346c0-7.3,11.5,0,11.5,0h0a11.15,11.15,0,0,0,6,1.8A11.27,11.27,0,0,0,323,336.5,11.42,11.42,0,0,0,311.8,325.1Z" transform="translate(0.22 0.58)"/><path id="b7ac5901-8917-4f2b-ba79-6091beca91f4" data-name="Fill-12" class="bca447a3-8ef0-49b5-987a-f43d527b01ce" d="M472,212.2s7.3,11.5,0,11.5H443.8V195.8c0-7.2-11.6,0-11.6,0a11.76,11.76,0,0,1-6.1,1.8,11.2,11.2,0,1,1,6.1-20.6s11.6,7.2,11.6,0V149.1H472c7.3,0,0-11.5,0-11.5a11.15,11.15,0,0,1-1.8-6,11.3,11.3,0,0,1,22.6,0,11.15,11.15,0,0,1-1.8,6s-7.3,11.5,0,11.5h28.2V177c0,7.2,11.6,0,11.6,0a11.76,11.76,0,0,1,6.1-1.8,11.2,11.2,0,1,1-6.1,20.6s-11.6-7.2-11.6,0v27.9H491c-7.3,0,0-11.5,0-11.5a11.15,11.15,0,0,0,1.8-6,11.3,11.3,0,0,0-22.6,0A11.41,11.41,0,0,0,472,212.2Z" transform="translate(0.22 0.58)"/><path id="ad79e5e1-0816-477c-8d91-cd6af7851d31" data-name="Stroke-14" class="b3a1e5ac-10b7-4e2a-88a1-6415bea4ad90" d="M470.2,206.2a11.15,11.15,0,0,0,1.8,6h0s7.3,11.5,0,11.5H443.8V195.8c0-7.2-11.6,0-11.6,0h0a11.76,11.76,0,0,1-6.1,1.8,11.2,11.2,0,1,1,6.1-20.6h0s11.6,7.2,11.6,0V149.1H472c7.3,0,0-11.5,0-11.5h0a11.15,11.15,0,0,1-1.8-6,11.3,11.3,0,0,1,22.6,0,11.15,11.15,0,0,1-1.8,6h0s-7.3,11.5,0,11.5h28.2V177c0,7.2,11.6,0,11.6,0h0a11.76,11.76,0,0,1,6.1-1.8,11.2,11.2,0,1,1-6.1,20.6h0s-11.6-7.2-11.6,0v27.9H491c-7.3,0,0-11.5,0-11.5h0a11.15,11.15,0,0,0,1.8-6,11.3,11.3,0,0,0-22.6,0Z" transform="translate(0.22 0.58)"/><path id="b18d1ca5-76d5-4fca-8593-2ecdf921961d" data-name="Fill-16" class="f5ecfa83-61bf-4910-a293-c68a1d6c3353" d="M351.5,248.5a11.23,11.23,0,0,1,6.1,1.8h0s11.6,7.4,11.6,0V221.7h28.3c7.3,0,0,11.8,0,11.8h0a11.84,11.84,0,0,0-1.8,6.2A11.46,11.46,0,0,0,407,251.2a11.33,11.33,0,0,0,11.3-11.5,11.84,11.84,0,0,0-1.8-6.2h0s-7.3-11.8,0-11.8h28.2v28.6c0,7.4,11.6,0,11.6,0h0a11.76,11.76,0,0,1,6.1-1.8A11.33,11.33,0,0,1,473.7,260a11.29,11.29,0,0,1-17.4,9.7h0s-11.6-7.4-11.6,0v28.6H416.5c-7.3,0,0-11.8,0-11.8h0a11.84,11.84,0,0,0,1.8-6.2A11.46,11.46,0,0,0,407,268.8a11.33,11.33,0,0,0-11.3,11.5,11.84,11.84,0,0,0,1.8,6.2h0s7.3,11.8,0,11.8H369.2V269.7c0-7.4-11.6,0-11.6,0h0a11.76,11.76,0,0,1-6.1,1.8,11.5,11.5,0,0,1,0-23" transform="translate(0.22 0.58)"/><path id="b70c3634-3877-4975-a1bf-e76fece9163f" data-name="Stroke-18" class="b3a1e5ac-10b7-4e2a-88a1-6415bea4ad90" d="M351.5,248.5a11.23,11.23,0,0,1,6.1,1.8h0s11.6,7.4,11.6,0V221.7h28.3c7.3,0,0,11.8,0,11.8h0a11.84,11.84,0,0,0-1.8,6.2A11.46,11.46,0,0,0,407,251.2a11.33,11.33,0,0,0,11.3-11.5,11.84,11.84,0,0,0-1.8-6.2h0s-7.3-11.8,0-11.8h28.2v28.6c0,7.4,11.6,0,11.6,0h0a11.76,11.76,0,0,1,6.1-1.8A11.33,11.33,0,0,1,473.7,260a11.29,11.29,0,0,1-17.4,9.7h0s-11.6-7.4-11.6,0v28.6H416.5c-7.3,0,0-11.8,0-11.8h0a11.84,11.84,0,0,0,1.8-6.2A11.46,11.46,0,0,0,407,268.8a11.33,11.33,0,0,0-11.3,11.5,11.84,11.84,0,0,0,1.8,6.2h0s7.3,11.8,0,11.8H369.2V269.7c0-7.4-11.6,0-11.6,0h0a11.76,11.76,0,0,1-6.1,1.8,11.5,11.5,0,0,1,0-23Z" transform="translate(0.22 0.58)"/><path id="bcbadf49-ecaa-47e6-81e8-77d29b4fa38c" data-name="Fill-20" class="be804135-0c73-4dc4-bb48-e32e4c706606" d="M353.6,187.1s11.8-6.8,5.4-10.3l-24.6-13.4,13.2-24.9c3.4-6.4,10.2,5.5,10.2,5.5a11.45,11.45,0,0,0,4.5,4.5,11.12,11.12,0,0,0,15.2-4.6,11.32,11.32,0,0,0-4.6-15.3,10.59,10.59,0,0,0-6.2-1.3s-13.6.9-10.2-5.5L369.8,97l24.6,13.4c6.4,3.4,5.5-10.2,5.5-10.2a10.59,10.59,0,0,1,1.3-6.2,11.12,11.12,0,0,1,15.2-4.6,11.35,11.35,0,0,1,4.6,15.3,11.22,11.22,0,0,1-4.4,4.5s-11.8,6.8-5.4,10.3l24.6,13.4-13.2,24.9c-3.4,6.4-10.2-5.5-10.2-5.5a11.45,11.45,0,0,0-4.5-4.5,11.12,11.12,0,0,0-15.2,4.6,11.32,11.32,0,0,0,4.6,15.3,10.59,10.59,0,0,0,6.2,1.3s13.6-.9,10.2,5.5l-13.2,24.9L375.9,186c-6.4-3.4-5.5,10.2-5.5,10.2a10.59,10.59,0,0,1-1.3,6.2,11.12,11.12,0,0,1-15.2,4.6,11.35,11.35,0,0,1-4.6-15.3A10.63,10.63,0,0,1,353.6,187.1Z" transform="translate(0.22 0.58)"/><path id="ef82f7db-3256-48cb-9649-3823bf5aa057" data-name="Stroke-22" class="b3a1e5ac-10b7-4e2a-88a1-6415bea4ad90" d="M349.1,191.7a11.22,11.22,0,0,1,4.4-4.5s11.8-6.8,5.4-10.3l-24.6-13.4,13.2-24.9c3.4-6.4,10.2,5.5,10.2,5.5a11.45,11.45,0,0,0,4.5,4.5,11.12,11.12,0,0,0,15.2-4.6,11.32,11.32,0,0,0-4.6-15.3,10.59,10.59,0,0,0-6.2-1.3s-13.6.9-10.2-5.5L369.8,97l24.6,13.4c6.4,3.4,5.5-10.2,5.5-10.2a10.59,10.59,0,0,1,1.3-6.2,11.12,11.12,0,0,1,15.2-4.6,11.35,11.35,0,0,1,4.6,15.3,11.22,11.22,0,0,1-4.4,4.5s-11.8,6.8-5.4,10.3l24.6,13.4-13.2,24.9c-3.4,6.4-10.2-5.5-10.2-5.5a11.45,11.45,0,0,0-4.5-4.5,11.12,11.12,0,0,0-15.2,4.6,11.32,11.32,0,0,0,4.6,15.3,10.59,10.59,0,0,0,6.2,1.3s13.6-.9,10.2,5.5l-13.2,24.9L375.9,186c-6.4-3.4-5.5,10.2-5.5,10.2a10.59,10.59,0,0,1-1.3,6.2,11.34,11.34,0,0,1-20-10.7Z" transform="translate(0.22 0.58)"/><path id="b12f473c-90b1-46ea-a40f-80ff3b8451e4" data-name="Fill-24" class="f5ecfa83-61bf-4910-a293-c68a1d6c3353" d="M285.1,22a11,11,0,0,0-2.8-5.6h0s-9-10.1-2-11.4l27.1-5,4.9,27.6c1.3,7.1,11.2-2.1,11.2-2.1h0a10.92,10.92,0,0,1,18.3,6.3,11.26,11.26,0,0,1-8.9,13.1,10.81,10.81,0,0,1-6.2-.7h0s-12.4-5-11.2,2.1l4.9,27.6-27.1,5c-7,1.3,2,11.4,2,11.4h0a11,11,0,0,1,2.8,5.6,11.26,11.26,0,0,1-8.9,13.1,11,11,0,0,1-12.8-9.1,11.15,11.15,0,0,1,.7-6.3h0s5-12.6-2-11.4l-27.1,5-4.9-27.6c-1.3-7.1,11.2-2.1,11.2-2.1h0a10.81,10.81,0,0,0,6.2.7,11.26,11.26,0,0,0,8.9-13.1A11,11,0,0,0,251,38.8h0s-9.9,9.2-11.2,2.1L235,13.3l27-4.9c7-1.3,2,11.4,2,11.4h0a11.2,11.2,0,0,0,12.1,15.4,11.45,11.45,0,0,0,9-13.2" transform="translate(0.22 0.58)"/><path id="bf9ce82f-774d-48a7-9839-699d673ef3e5" data-name="Stroke-26" class="b3a1e5ac-10b7-4e2a-88a1-6415bea4ad90" d="M285.1,22a11,11,0,0,0-2.8-5.6h0s-9-10.1-2-11.4l27.1-5,4.9,27.6c1.3,7.1,11.2-2.1,11.2-2.1h0a10.92,10.92,0,0,1,18.3,6.3,11.26,11.26,0,0,1-8.9,13.1,10.81,10.81,0,0,1-6.2-.7h0s-12.4-5-11.2,2.1l4.9,27.6-27.1,5c-7,1.3,2,11.4,2,11.4h0a11,11,0,0,1,2.8,5.6,11.26,11.26,0,0,1-8.9,13.1,11,11,0,0,1-12.8-9.1,11.15,11.15,0,0,1,.7-6.3h0s5-12.6-2-11.4l-27.1,5-4.9-27.6c-1.3-7.1,11.2-2.1,11.2-2.1h0a10.81,10.81,0,0,0,6.2.7,11.26,11.26,0,0,0,8.9-13.1A11,11,0,0,0,251,38.8h0s-9.9,9.2-11.2,2.1L235,13.3l27-4.9c7-1.3,2,11.4,2,11.4h0a11.2,11.2,0,0,0,12.1,15.4A11.45,11.45,0,0,0,285.1,22Z" transform="translate(0.22 0.58)"/><path id="b80ae7ac-e177-41a5-96e8-dfc0b814b7c7" data-name="Fill-28" class="a8506fac-9993-4c13-9b7a-74a2eefce588" d="M351.3,271.5a11.15,11.15,0,0,0,6-1.8h0s11.5-7.4,11.5,0v28.6H340.9c-7.2,0,0-11.8,0-11.8h0a11.84,11.84,0,0,0,1.8-6.2,11.2,11.2,0,1,0-22.4,0,11.84,11.84,0,0,0,1.8,6.2h0s7.2,11.8,0,11.8H294.2V269.7c0-7.4-11.5,0-11.5,0h0a11.15,11.15,0,0,1-6,1.8,11.5,11.5,0,0,1,0-23,11.15,11.15,0,0,1,6,1.8h0s11.5,7.4,11.5,0V221.7h27.9c7.2,0,0,11.8,0,11.8h0a11.84,11.84,0,0,0-1.8,6.2,11.2,11.2,0,1,0,22.4,0,11.84,11.84,0,0,0-1.8-6.2h0s-7.2-11.8,0-11.8h27.9v28.6c0,7.4-11.5,0-11.5,0h0a11.15,11.15,0,0,0-6-1.8,11.5,11.5,0,0,0,0,23" transform="translate(0.22 0.58)"/><path id="b1022bbc-b0a5-4b19-b1fd-446aef1332aa" data-name="Stroke-30" class="b3a1e5ac-10b7-4e2a-88a1-6415bea4ad90" d="M351.3,271.5a11.15,11.15,0,0,0,6-1.8s11.5-7.4,11.5,0v28.6H340.9c-7.2,0,0-11.8,0-11.8a11.84,11.84,0,0,0,1.8-6.2,11.2,11.2,0,1,0-22.4,0,11.84,11.84,0,0,0,1.8,6.2s7.2,11.8,0,11.8H294.2V269.7c0-7.4-11.5,0-11.5,0a11.15,11.15,0,0,1-6,1.8,11.5,11.5,0,0,1,0-23,11.15,11.15,0,0,1,6,1.8s11.5,7.4,11.5,0V221.7h27.9c7.2,0,0,11.8,0,11.8a11.84,11.84,0,0,0-1.8,6.2,11.2,11.2,0,1,0,22.4,0,11.84,11.84,0,0,0-1.8-6.2s-7.2-11.8,0-11.8h27.9v28.6c0,7.4-11.5,0-11.5,0a11.15,11.15,0,0,0-6-1.8,11.5,11.5,0,0,0,0,23Z" transform="translate(0.22 0.58)"/><path id="f1124de7-c7a7-417d-922c-d2b3fd46992c" data-name="Fill-32" class="bca447a3-8ef0-49b5-987a-f43d527b01ce" d="M169.6,304.3s-9.9-9.4-11.4-2.4l-6.1,26.9-27.7-5.9c-7.2-1.5,2.5-11.1,2.5-11.1a11.16,11.16,0,0,0,3.1-5.5,11,11,0,0,0-8.7-13.2,11.52,11.52,0,0,0-13.6,8.4,10.79,10.79,0,0,0,.4,6.2s4.6,12.6-2.5,11.1l-27.7-5.9L84,286c1.6-6.9-11.4-2.4-11.4-2.4a11.55,11.55,0,0,1-6.4.4,11.15,11.15,0,0,1-8.7-13.2,11.53,11.53,0,0,1,19.2-5.4s9.9,9.4,11.4,2.4l6.1-26.9,27.7,5.9c7.2,1.5-2.5,11.1-2.5,11.1a11.16,11.16,0,0,0-3.1,5.5,11,11,0,0,0,8.7,13.2,11.47,11.47,0,0,0,13.6-8.4,10.85,10.85,0,0,0-.4-6.2s-4.6-12.6,2.5-11.1l27.7,5.9-6.1,26.9c-1.6,6.9,11.4,2.4,11.4,2.4a11.55,11.55,0,0,1,6.4-.4,11.07,11.07,0,0,1,8.7,13.2,11.53,11.53,0,0,1-19.2,5.4Z" transform="translate(0.22 0.58)"/><path id="e6b6ecd8-2258-4b72-8c57-9f39a0924c5a" data-name="Stroke-34" class="b3a1e5ac-10b7-4e2a-88a1-6415bea4ad90" d="M175.2,307.3a11.32,11.32,0,0,1-5.6-3h0s-9.9-9.4-11.4-2.4l-6.1,26.9-27.7-5.9c-7.2-1.5,2.5-11.1,2.5-11.1h0a10.74,10.74,0,0,0,3.1-5.5,11,11,0,0,0-8.7-13.2,11.52,11.52,0,0,0-13.6,8.4,10.79,10.79,0,0,0,.4,6.2h0s4.6,12.6-2.5,11.1l-27.7-5.9L84,286c1.6-6.9-11.4-2.4-11.4-2.4h0a11.55,11.55,0,0,1-6.4.4,11.15,11.15,0,0,1-8.7-13.2,11.53,11.53,0,0,1,19.2-5.4h0s9.9,9.4,11.4,2.4l6.1-26.9,27.7,5.9c7.2,1.5-2.5,11.1-2.5,11.1h0a10.74,10.74,0,0,0-3.1,5.5,11,11,0,0,0,8.7,13.2,11.47,11.47,0,0,0,13.6-8.4,10.85,10.85,0,0,0-.4-6.2h0s-4.6-12.6,2.5-11.1l27.7,5.9-6.1,26.9c-1.6,6.9,11.4,2.4,11.4,2.4h0a11.55,11.55,0,0,1,6.4-.4,11.07,11.07,0,0,1,8.7,13.2A11.42,11.42,0,0,1,175.2,307.3Z" transform="translate(0.22 0.58)"/><path id="f4daaf72-150d-4bbc-8be3-e18a7e71c60f" data-name="Fill-36" class="be804135-0c73-4dc4-bb48-e32e4c706606" d="M235.3,324.3a11.15,11.15,0,0,0-6,1.8h0s-11.5,7.2-11.5,0V298.2h27.8c7.2,0,0-11.5,0-11.5h0a11.2,11.2,0,1,1,18.8,0h0s-7.2,11.5,0,11.5h27.9v27.9c0,7.2,11.5,0,11.5,0h0a11.2,11.2,0,1,1,0,18.8h0s-11.5-7.2-11.5,0v27.9H264.4c-7.2,0,0-11.5,0-11.5h0a11.2,11.2,0,1,0-18.8,0h0s7.2,11.5,0,11.5H217.8V344.9c0-7.2,11.5,0,11.5,0h0a11.18,11.18,0,1,0,6-20.6" transform="translate(0.22 0.58)"/><path id="a8502534-da4a-4840-a387-8009f731b029" data-name="Stroke-38" class="b3a1e5ac-10b7-4e2a-88a1-6415bea4ad90" d="M235.3,324.3a11.15,11.15,0,0,0-6,1.8h0s-11.5,7.2-11.5,0V298.2h27.8c7.2,0,0-11.5,0-11.5h0a11.2,11.2,0,1,1,18.8,0h0s-7.2,11.5,0,11.5h27.9v27.9c0,7.2,11.5,0,11.5,0h0a11.2,11.2,0,1,1,0,18.8h0s-11.5-7.2-11.5,0v27.9H264.4c-7.2,0,0-11.5,0-11.5h0a11.2,11.2,0,1,0-18.8,0h0s7.2,11.5,0,11.5H217.8V344.9c0-7.2,11.5,0,11.5,0h0a11.18,11.18,0,1,0,6-20.6Z" transform="translate(0.22 0.58)"/><path id="eef5378f-2160-4d45-a332-23518a55c079" data-name="Fill-40" class="a8506fac-9993-4c13-9b7a-74a2eefce588" d="M395.5,385.9s7.4-11.6,0-11.6H366.9V346c0-7.3,11.8,0,11.8,0a11.84,11.84,0,0,0,6.2,1.8,11.46,11.46,0,0,0,11.5-11.3,11.33,11.33,0,0,0-11.5-11.3,11.84,11.84,0,0,0-6.2,1.8s-11.8,7.3-11.8,0V298.7h28.6c7.4,0,0-11.6,0-11.6a11.76,11.76,0,0,1-1.8-6.1,11.33,11.33,0,0,1,11.5-11.3A11.46,11.46,0,0,1,416.7,281a11.23,11.23,0,0,1-1.8,6.1s-7.4,11.6,0,11.6h28.6V327c0,7.3-11.8,0-11.8,0a11.84,11.84,0,0,0-6.2-1.8A11.46,11.46,0,0,0,414,336.5a11.33,11.33,0,0,0,11.5,11.3,11.84,11.84,0,0,0,6.2-1.8s11.8-7.3,11.8,0v28.3H414.9c-7.4,0,0,11.6,0,11.6a11.76,11.76,0,0,1,1.8,6.1,11.33,11.33,0,0,1-11.5,11.3A11.46,11.46,0,0,1,393.7,392,10.17,10.17,0,0,1,395.5,385.9Z" transform="translate(0.22 0.58)"/><path id="f8864389-38b8-4bc4-bb20-228584c98bde" data-name="Stroke-42" class="b3a1e5ac-10b7-4e2a-88a1-6415bea4ad90" d="M393.6,392a11.49,11.49,0,0,1,1.8-6.1h0s7.4-11.6,0-11.6H366.8V346c0-7.3,11.8,0,11.8,0h0a11.84,11.84,0,0,0,6.2,1.8,11.46,11.46,0,0,0,11.5-11.3,11.33,11.33,0,0,0-11.5-11.3,11.84,11.84,0,0,0-6.2,1.8h0s-11.8,7.3-11.8,0V298.7h28.6c7.4,0,0-11.6,0-11.6h0a11.76,11.76,0,0,1-1.8-6.1,11.33,11.33,0,0,1,11.5-11.3A11.46,11.46,0,0,1,416.6,281a11.23,11.23,0,0,1-1.8,6.1h0s-7.4,11.6,0,11.6h28.6V327c0,7.3-11.8,0-11.8,0h0a11.84,11.84,0,0,0-6.2-1.8,11.46,11.46,0,0,0-11.5,11.3,11.33,11.33,0,0,0,11.5,11.3,11.84,11.84,0,0,0,6.2-1.8h0s11.8-7.3,11.8,0v28.3H414.8c-7.4,0,0,11.6,0,11.6h0a11.76,11.76,0,0,1,1.8,6.1,11.5,11.5,0,0,1-23,0Z" transform="translate(0.22 0.58)"/><path id="e3299712-c118-4836-9961-37903c1bdd18" data-name="Fill-44" class="a6b48c7f-97fe-4b43-b46f-121c36c4007b" d="M462.8,248.6a11.15,11.15,0,0,0-6,1.8h0s-11.5,7.3-11.5,0V222.2h27.9c7.2,0,0-11.6,0-11.6h0a11.76,11.76,0,0,1-1.8-6.1,11.2,11.2,0,1,1,20.6,6.1h0s-7.2,11.6,0,11.6h27.9v28.2c0,7.3,11.5,0,11.5,0h0a11.15,11.15,0,0,1,6-1.8,11.3,11.3,0,0,1,0,22.6,11.15,11.15,0,0,1-6-1.8h0s-11.5-7.3-11.5,0v28.2H492c-7.2,0,0,11.6,0,11.6h0a11.76,11.76,0,0,1,1.8,6.1,11.2,11.2,0,1,1-20.6-6.1h0s7.2-11.6,0-11.6H445.3V269.4c0-7.3,11.5,0,11.5,0h0a11.15,11.15,0,0,0,6,1.8,11.3,11.3,0,0,0,0-22.6" transform="translate(0.22 0.58)"/><path id="fd15bd82-6892-4b06-b675-cf55a6110506" data-name="Stroke-46" class="b3a1e5ac-10b7-4e2a-88a1-6415bea4ad90" d="M462.8,248.6a11.15,11.15,0,0,0-6,1.8h0s-11.5,7.3-11.5,0V222.2h27.9c7.2,0,0-11.6,0-11.6h0a11.76,11.76,0,0,1-1.8-6.1,11.2,11.2,0,1,1,20.6,6.1h0s-7.2,11.6,0,11.6h27.9v28.2c0,7.3,11.5,0,11.5,0h0a11.15,11.15,0,0,1,6-1.8,11.3,11.3,0,0,1,0,22.6,11.15,11.15,0,0,1-6-1.8h0s-11.5-7.3-11.5,0v28.2H492c-7.2,0,0,11.6,0,11.6h0a11.76,11.76,0,0,1,1.8,6.1,11.2,11.2,0,1,1-20.6-6.1h0s7.2-11.6,0-11.6H445.3V269.4c0-7.3,11.5,0,11.5,0h0a11.15,11.15,0,0,0,6,1.8,11.3,11.3,0,0,0,0-22.6Z" transform="translate(0.22 0.58)"/><path id="a507e4f1-9d5b-4779-bd4c-5d80ba5f73ab" data-name="Fill-48" class="a6b48c7f-97fe-4b43-b46f-121c36c4007b" d="M229.3,400.7s-11.5,7.2-11.5,0V372.8h27.8c7.2,0,0-11.5,0-11.5a11.2,11.2,0,1,1,18.8,0s-7.2,11.5,0,11.5h27.9v27.9c0,7.2,11.5,0,11.5,0a11.2,11.2,0,1,1,0,18.8s-11.5-7.2-11.5,0v27.9H264.4c-7.2,0,0-11.5,0-11.5a11.2,11.2,0,1,0-18.8,0s7.2,11.5,0,11.5H217.8V419.5c0-7.2,11.5,0,11.5,0a11.18,11.18,0,1,0,6-20.6A10.36,10.36,0,0,0,229.3,400.7Z" transform="translate(0.22 0.58)"/><path id="f5528b7c-6766-4073-b423-a1aadf38ff6d" data-name="Stroke-50" class="b3a1e5ac-10b7-4e2a-88a1-6415bea4ad90" d="M235.3,398.9a11.15,11.15,0,0,0-6,1.8h0s-11.5,7.2-11.5,0V372.8h27.8c7.2,0,0-11.5,0-11.5h0a11.2,11.2,0,1,1,18.8,0h0s-7.2,11.5,0,11.5h27.9v27.9c0,7.2,11.5,0,11.5,0h0a11.2,11.2,0,1,1,0,18.8h0s-11.5-7.2-11.5,0v27.9H264.4c-7.2,0,0-11.5,0-11.5h0a11.2,11.2,0,1,0-18.8,0h0s7.2,11.5,0,11.5H217.8V419.5c0-7.2,11.5,0,11.5,0h0a11.18,11.18,0,1,0,6-20.6Z" transform="translate(0.22 0.58)"/></g><g id="e395417f-e512-4e08-a499-a060a99e0b35" data-name="Page-1"><polygon id="aacddf91-c8ff-4f31-8a78-429736040ac5" data-name="Fill-1" class="bca447a3-8ef0-49b5-987a-f43d527b01ce" points="106.02 941.48 70.82 939.18 82.52 990.78 122.42 974.78 106.02 941.48"/><polygon id="e01bc23a-b552-4e9f-807d-e97d777ac3d9" data-name="Fill-2" class="a8506fac-9993-4c13-9b7a-74a2eefce588" points="419.92 845.48 340.82 769.08 295.72 803.88 206.52 910.58 216.72 926.28 325.02 853.28 398.42 948.78 468.42 913.98 419.92 845.48"/><g id="a75ed919-32af-4b4d-839b-71fc14c24922" data-name="Group-27"><path id="fdc627b5-69ae-4796-8219-5ff4c63406b0" data-name="Fill-3" class="eddafd75-9fe4-4352-9f63-6c3000d8f975" d="M425.9,897.3l-10.2,8-83-28.6-19.3-8-38.7,8s0-32,36.4-30.9l37.5,9.1,44.3,3.4Z" transform="translate(0.22 0.58)"/><polygon id="a949e650-b258-404c-9755-a95debdebc7f" data-name="Fill-5" class="a8506fac-9993-4c13-9b7a-74a2eefce588" points="500.02 982.48 475.02 998.58 445.52 998.58 307.92 947.08 106.72 983.68 101.02 940.18 285.22 859.08 446.62 912.78 500.02 982.48"/><path id="a013bb38-cd1c-47b8-a83d-4ff6428ab344" data-name="Fill-7" class="eddafd75-9fe4-4352-9f63-6c3000d8f975" d="M338.4,778.4l-17.1,3.4-3.7-4.4a23.37,23.37,0,0,1-3.1-25.4l47.7-62.9s13.6-30.9,35.2-18.3S379.2,704,379.2,704l-23.9,37.7,2.3,19.4Z" transform="translate(0.22 0.58)"/><path id="f928b9df-3b35-438f-b452-8a7504e24f6b" data-name="Fill-9" class="eddafd75-9fe4-4352-9f63-6c3000d8f975" d="M446.4,615a44.6,44.6,0,1,1-44.3,44.6A44.45,44.45,0,0,1,446.4,615" transform="translate(0.22 0.58)"/><path id="b2d71435-a9e4-4fea-be6b-88aabc303962" data-name="Fill-11" class="eddafd75-9fe4-4352-9f63-6c3000d8f975" d="M426.5,692.1,447,741.3l48.9-20.6s-15.9-38.9-15.9-40-53.5,11.4-53.5,11.4" transform="translate(0.22 0.58)"/><g id="a3abbea6-66f3-4e9b-be76-de1040c55c07" data-name="Group-15"><path id="ff13f6f7-3fea-4764-9599-a3fda984729b" data-name="Fill-13" class="a6b48c7f-97fe-4b43-b46f-121c36c4007b" d="M561.16,837.59a256.18,256.18,0,0,1-12.5,79.2l-3.3,10.3-15.9,73.2-17.1,4.6-12.5-16-25-18.3-18.2-29.8-15.6-26.1-4.9-8.2-17.1-85.7-64.8-36.6-21.6-3.4,4.5-12.6,19.3-26.3,19.3-2.3,5.7-4.6,4.5,2.3,18.2-10.3,5.7,2.3,33.2,3.1,20.2-4.3,29-15.7,11.9,2,40.9,34.3a252.81,252.81,0,0,1,16.1,88.9" transform="translate(0.22 0.58)"/></g><g id="a96b05be-5215-4144-a85a-8923ca1de584" data-name="Group-18"><path id="a7e246a0-c148-4735-9276-03f1f327a0bf" data-name="Fill-16" class="be79a97d-77d8-45cc-bb97-0a27e89a7df8" d="M82.8,959.68s10.2-17.4,5.9-19.4-22.6-10.1-22.6-10.1l-26.8-8.9S.6,863.48-.2,913.78C-1,963.88,28,976,28,976s25.9,56,40.5,47,29.3-39.2,29.3-39.2-26.4-14.2-15-24.1" transform="translate(0.22 0.58)"/></g><polygon id="a16e577d-ffed-43e6-90ce-ca15c0b0c5c4" data-name="Fill-21" class="a6b48c7f-97fe-4b43-b46f-121c36c4007b" points="461.42 766.48 426.12 831.58 413.62 831.58 405.72 854.48 387.52 859.08 436.42 912.78 505.72 849.88 522.82 838.58 548.92 821.28 461.42 766.48"/><path id="a9d27053-bea3-4b52-bfb7-7822f9c48f4a" data-name="Fill-23" class="be79a97d-77d8-45cc-bb97-0a27e89a7df8" d="M411.9,626.4l-4.8,1.9a6.76,6.76,0,0,1-1.8-9.4l.1-.1-8.9-.4A66.77,66.77,0,0,1,490.4,605a52.51,52.51,0,0,1,6.2,5.3c.4-1.4,4.8,1.3,6.6,4.1.6-2.3,4.7,8.7,6.2,16.5.7-2.6,3.3,1.6,1,5.6,1.4-.2,2.1,3.5,1,5.6,1.6-.7,1.3,3.7-.4,6.7,2.3-.2-17.8,31.1-25.9,49.3-2.4-10.9-5-22.3-12.6-30.4-1.3-1.4-2.7-2.6-4.1-3.9l-7.6-6.8c-8.9-7.9-16.9-17.6-28.8-20.5-8.1-2-13.3-2.5-8.8-11.7-4,1.7-7.7,4.2-11.8,5.7,0-1.4.6-2.8.5-4.1" transform="translate(0.22 0.58)"/><path id="a639c642-4b52-4633-8094-f82286669959" data-name="Fill-25" class="eddafd75-9fe4-4352-9f63-6c3000d8f975" d="M468.6,656.7a8,8,0,1,1-8,8,8,8,0,0,1,8-8" transform="translate(0.22 0.58)"/></g></g><g id="a7adb7d0-e9d8-4fff-8eb5-f27441c7cddb" data-name="Page-1"><path id="aae2d78a-0521-45a2-86be-d9e9a4aa6576" data-name="Fill-1" class="be79a97d-77d8-45cc-bb97-0a27e89a7df8" d="M405.7,436.7l2.1-2.1c-.9-.8-1.7-1.7-2.5-2.5l-2.1,2.1Zm5.2,5,2-2.2c-.9-.8-1.7-1.6-2.6-2.5l-2.1,2.2A33.21,33.21,0,0,1,410.9,441.7Zm5.3,4.9,2-2.2c-.9-.8-1.8-1.6-2.6-2.4l-2,2.2C414.4,444.9,415.3,445.8,416.2,446.6Zm5.4,4.8,2-2.2-2.7-2.4-2,2.2Zm5.3,4.8,2-2.2-2.7-2.4-2,2.2Zm5.3,4.8,2-2.2-2.7-2.4-2,2.2C430.5,459.4,431.3,460.2,432.2,461Zm5.3,4.9,2-2.2c-.9-.8-1.8-1.6-2.6-2.4l-2,2.2C435.8,464.2,436.6,465.1,437.5,465.9Zm5.2,4.9,2.1-2.2-.6-.6c-.7-.6-1.3-1.3-2-1.9l-2.1,2.2c.7.6,1.3,1.2,2,1.9Zm5.1,5,2.1-2.1a30.7,30.7,0,0,0-2.6-2.5l-2.1,2.1A30.7,30.7,0,0,1,447.8,475.8Zm5,5.1,2.2-2c-.8-.9-1.7-1.8-2.5-2.6l-2.2,2.1C451.2,479.2,452,480.1,452.8,480.9Zm4.8,5.3,2.3-2-2.4-2.7-2.2,2C456,484.4,456.8,485.3,457.6,486.2Zm4.5,5.5,2.3-1.9c-.8-.9-1.5-1.9-2.3-2.8l-2.3,1.9A28.33,28.33,0,0,1,462.1,491.7Zm4.4,5.6,2.4-1.8c-.7-1-1.4-1.9-2.2-2.9l-2.4,1.8C465.1,495.4,465.8,496.4,466.5,497.3Zm4,5.9,2.5-1.6c-.7-1-1.3-2-2-3l-2.5,1.7A29.77,29.77,0,0,1,470.5,503.2Zm3.7,6.1,2.6-1.5c-.6-1-1.2-2.1-1.8-3.1l-2.6,1.6Q473.3,507.65,474.2,509.3Zm3.3,6.2,2.7-1.3c-.5-1.1-1.1-2.2-1.6-3.3l-2.7,1.4C476.4,513.4,477,514.5,477.5,515.5Zm2.8,6.5,2.8-1.1c-.4-1.1-.9-2.3-1.4-3.4l-2.7,1.2C479.4,519.8,479.9,520.9,480.3,522Zm2.3,6.7,2.9-.9c-.4-1.2-.7-2.3-1.1-3.5l-2.8,1C481.9,526.4,482.3,527.6,482.6,528.7Zm1.8,6.8,2.9-.6c-.3-1.2-.5-2.4-.9-3.6l-2.9.8A21.36,21.36,0,0,1,484.4,535.5Zm1.2,7,3-.4c-.2-1.2-.3-2.4-.5-3.6l-2.9.5C485.3,540.1,485.5,541.3,485.6,542.5Zm.6,7,3-.1c0-1.2-.1-2.4-.2-3.7l-3,.2C486.1,547.1,486.2,548.3,486.2,549.5Zm2.9,7.2c.1-1.2.1-2.4.2-3.7l-3-.1c0,1.2-.1,2.4-.2,3.5Zm-1,7.3.6-3.6-3-.4c-.1,1.2-.3,2.3-.5,3.5Z" transform="translate(0.22 0.58)"/></g></g></g></g></g></svg>