<?xml version="1.0" encoding="utf-8"?>
<!-- Generator: Adobe Illustrator 24.3.0, SVG Export Plug-In . SVG Version: 6.00 Build 0)  -->
<svg version="1.1" id="Layer_1" xmlns="http://www.w3.org/2000/svg" xmlns:xlink="http://www.w3.org/1999/xlink" x="0px" y="0px"
	 viewBox="0 0 561 1024" style="enable-background:new 0 0 561 1024;" xml:space="preserve">
<style type="text/css">
	.st0{fill-rule:evenodd;clip-rule:evenodd;fill:#FCE89B;}
	.st1{fill:none;stroke:#FFFFFF;}
	.st2{fill-rule:evenodd;clip-rule:evenodd;fill:#F7E1DA;}
	.st3{fill-rule:evenodd;clip-rule:evenodd;fill:#C6E9F7;}
	.st4{fill-rule:evenodd;clip-rule:evenodd;fill:#D2E3CF;}
	.st5{fill-rule:evenodd;clip-rule:evenodd;fill:#F4F3F1;}
	.st6{fill-rule:evenodd;clip-rule:evenodd;fill:#CF9988;}
	.st7{filter:url(#Adobe_OpacityMaskFilter);}
	.st8{fill-rule:evenodd;clip-rule:evenodd;fill:#FFFFFF;}
	.st9{mask:url(#mask-2_1_);fill-rule:evenodd;clip-rule:evenodd;fill:#FCE89B;}
	.st10{filter:url(#Adobe_OpacityMaskFilter_1_);}
	.st11{mask:url(#mask-4_1_);fill-rule:evenodd;clip-rule:evenodd;fill:#58585B;}
	.st12{fill-rule:evenodd;clip-rule:evenodd;fill:#58585B;}
	.st13{filter:url(#Adobe_OpacityMaskFilter_2_);}
	.st14{mask:url(#mask-6_1_);fill-rule:evenodd;clip-rule:evenodd;fill:#58585B;}
</style>
<g>
	<desc>Created with Sketch.</desc>
	<g id="Welcome">
		<g id="Desktop" transform="translate(-60.000000, -2905.000000)">
			<g id="Group-30" transform="translate(60.000000, 2838.000000)">
				<g id="Group-29" transform="translate(0.000000, 68.000000)">
					
						<g id="Page-1" transform="translate(158.500000, 117.000000) scale(-1, 1) translate(-158.500000, -117.000000) translate(30.000000, 0.000000)">
						<path id="Fill-4" class="st0" d="M81.2,201.1c-0.3,2.2-1.3,4.2-2.7,5.7l0,0c0,0-8.8,10.3-1.8,11.4l27.3,4.4l4.4-27.8
							c1.1-7.2,11.2,1.8,11.2,1.8l0,0c1.5,1.4,3.4,2.4,5.6,2.7c6,1,11.7-3.2,12.7-9.4c1-6.2-3.2-11.9-9.2-12.9
							c-2.2-0.4-4.3,0-6.2,0.8l0,0c0,0-12.4,5.3-11.2-1.8l4.4-27.8l-27.3-4.4c-7-1.1,1.8-11.4,1.8-11.4l0,0c1.4-1.6,2.3-3.5,2.7-5.7
							c1-6.2-3.2-11.9-9.2-12.9c-6-1-11.7,3.2-12.7,9.4c-0.3,2.2,0,4.4,0.8,6.3h0c0,0,5.2,12.6-1.8,11.4l-27.3-4.4l-4.4,27.8
							c-1.1,7.2,11.2,1.8,11.2,1.8l0,0c1.9-0.8,4-1.2,6.2-0.8c6,1,10.2,6.8,9.2,12.9c-1,6.2-6.7,10.3-12.7,9.4
							c-2.2-0.4-4.1-1.3-5.6-2.7l0,0c0,0-10.1-9-11.2-1.8L31,210.8l27.3,4.4c7,1.1,1.8-11.4,1.8-11.4h0c-0.8-1.9-1.1-4.1-0.8-6.3
							c1-6.2,6.7-10.3,12.7-9.4C78,189.1,82.1,194.9,81.2,201.1"/>
						<path id="Stroke-6" class="st1" d="M81.2,201.1c-0.3,2.2-1.3,4.2-2.7,5.7l0,0c0,0-8.8,10.3-1.8,11.4l27.3,4.4l4.4-27.8
							c1.1-7.2,11.2,1.8,11.2,1.8l0,0c1.5,1.4,3.4,2.4,5.6,2.7c6,1,11.7-3.2,12.7-9.4c1-6.2-3.2-11.9-9.2-12.9
							c-2.2-0.4-4.3,0-6.2,0.8l0,0c0,0-12.4,5.3-11.2-1.8l4.4-27.8l-27.3-4.4c-7-1.1,1.8-11.4,1.8-11.4l0,0c1.4-1.6,2.3-3.5,2.7-5.7
							c1-6.2-3.2-11.9-9.2-12.9c-6-1-11.7,3.2-12.7,9.4c-0.3,2.2,0,4.4,0.8,6.3h0c0,0,5.2,12.6-1.8,11.4l-27.3-4.4l-4.4,27.8
							c-1.1,7.2,11.2,1.8,11.2,1.8l0,0c1.9-0.8,4-1.2,6.2-0.8c6,1,10.2,6.8,9.2,12.9c-1,6.2-6.7,10.3-12.7,9.4
							c-2.2-0.4-4.1-1.3-5.6-2.7l0,0c0,0-10.1-9-11.2-1.8L31,210.8l27.3,4.4c7,1.1,1.8-11.4,1.8-11.4h0c-0.8-1.9-1.1-4.1-0.8-6.3
							c1-6.2,6.7-10.3,12.7-9.4C78,189.1,82.1,194.9,81.2,201.1z"/>
						<path id="Fill-8" class="st2" d="M-24.8,324.1c2.2,0,4.3,0.7,6,1.8l0,0c0,0,11.5,7.3,11.5,0v-28.2h-27.9c-7.2,0,0-11.6,0-11.6
							l0,0c1.1-1.8,1.8-3.9,1.8-6.1c0-6.3-5-11.3-11.2-11.3c-6.2,0-11.2,5.1-11.2,11.3c0,2.3,0.7,4.4,1.8,6.1l0,0
							c0,0,7.2,11.6,0,11.6h-27.9v28.2c0,7.3-11.5,0-11.5,0l0,0c-1.7-1.1-3.8-1.8-6-1.8c-6.2,0-11.2,5.1-11.2,11.3
							c0,6.3,5,11.3,11.2,11.3c2.2,0,4.3-0.7,6-1.8l0,0c0,0,11.5-7.3,11.5,0v28.2h27.9c7.2,0,0,11.6,0,11.6l0,0
							c-1.1,1.8-1.8,3.9-1.8,6.1c0,6.3,5,11.3,11.2,11.3c6.2,0,11.2-5.1,11.2-11.3c0-2.3-0.7-4.4-1.8-6.1l0,0c0,0-7.2-11.6,0-11.6
							h27.9V345c0-7.3-11.5,0-11.5,0l0,0c-1.7,1.1-3.8,1.8-6,1.8c-6.2,0-11.2-5.1-11.2-11.3C-35.9,329.2-30.9,324.1-24.8,324.1"/>
						<path id="Stroke-10" class="st1" d="M-24.8,324.1c2.2,0,4.3,0.7,6,1.8l0,0c0,0,11.5,7.3,11.5,0v-28.2h-27.9
							c-7.2,0,0-11.6,0-11.6l0,0c1.1-1.8,1.8-3.9,1.8-6.1c0-6.3-5-11.3-11.2-11.3c-6.2,0-11.2,5.1-11.2,11.3c0,2.3,0.7,4.4,1.8,6.1
							l0,0c0,0,7.2,11.6,0,11.6h-27.9v28.2c0,7.3-11.5,0-11.5,0l0,0c-1.7-1.1-3.8-1.8-6-1.8c-6.2,0-11.2,5.1-11.2,11.3
							c0,6.3,5,11.3,11.2,11.3c2.2,0,4.3-0.7,6-1.8l0,0c0,0,11.5-7.3,11.5,0v28.2h27.9c7.2,0,0,11.6,0,11.6l0,0
							c-1.1,1.8-1.8,3.9-1.8,6.1c0,6.3,5,11.3,11.2,11.3c6.2,0,11.2-5.1,11.2-11.3c0-2.3-0.7-4.4-1.8-6.1l0,0c0,0-7.2-11.6,0-11.6
							h27.9V345c0-7.3-11.5,0-11.5,0l0,0c-1.7,1.1-3.8,1.8-6,1.8c-6.2,0-11.2-5.1-11.2-11.3C-35.9,329.2-30.9,324.1-24.8,324.1z"/>
						<path id="Fill-12" class="st2" d="M-185,211.2c0,0-7.3,11.5,0,11.5h28.2v-27.9c0-7.2,11.6,0,11.6,0c1.8,1.1,3.9,1.8,6.1,1.8
							c6.3,0,11.3-5,11.3-11.2c0-6.2-5.1-11.2-11.3-11.2c-2.3,0-4.4,0.7-6.1,1.8c0,0-11.6,7.2-11.6,0v-27.9H-185
							c-7.3,0,0-11.5,0-11.5c1.1-1.7,1.8-3.8,1.8-6c0-6.2-5.1-11.2-11.3-11.2c-6.3,0-11.3,5-11.3,11.2c0,2.2,0.7,4.3,1.8,6
							c0,0,7.3,11.5,0,11.5h-28.2V176c0,7.2-11.6,0-11.6,0c-1.8-1.1-3.9-1.8-6.1-1.8c-6.3,0-11.3,5-11.3,11.2
							c0,6.2,5.1,11.2,11.3,11.2c2.3,0,4.4-0.7,6.1-1.8c0,0,11.6-7.2,11.6,0v27.9h28.2c7.3,0,0-11.5,0-11.5c-1.1-1.7-1.8-3.8-1.8-6
							c0-6.2,5.1-11.2,11.3-11.2c6.3,0,11.3,5,11.3,11.2C-183.2,207.4-183.9,209.4-185,211.2z"/>
						<path id="Stroke-14" class="st1" d="M-183.2,205.2c0,2.2-0.7,4.3-1.8,6l0,0c0,0-7.3,11.5,0,11.5h28.2v-27.9
							c0-7.2,11.6,0,11.6,0l0,0c1.8,1.1,3.9,1.8,6.1,1.8c6.3,0,11.3-5,11.3-11.2c0-6.2-5.1-11.2-11.3-11.2c-2.3,0-4.4,0.7-6.1,1.8
							l0,0c0,0-11.6,7.2-11.6,0v-27.9H-185c-7.3,0,0-11.5,0-11.5l0,0c1.1-1.7,1.8-3.8,1.8-6c0-6.2-5.1-11.2-11.3-11.2
							c-6.3,0-11.3,5-11.3,11.2c0,2.2,0.7,4.3,1.8,6l0,0c0,0,7.3,11.5,0,11.5h-28.2V176c0,7.2-11.6,0-11.6,0l0,0
							c-1.8-1.1-3.9-1.8-6.1-1.8c-6.3,0-11.3,5-11.3,11.2c0,6.2,5.1,11.2,11.3,11.2c2.3,0,4.4-0.7,6.1-1.8l0,0c0,0,11.6-7.2,11.6,0
							v27.9h28.2c7.3,0,0-11.5,0-11.5l0,0c-1.1-1.7-1.8-3.8-1.8-6c0-6.2,5.1-11.2,11.3-11.2C-188.3,194-183.2,199-183.2,205.2z"/>
						<path id="Fill-16" class="st3" d="M-64.5,247.5c-2.3,0-4.4,0.7-6.1,1.8l0,0c0,0-11.6,7.4-11.6,0v-28.6h-28.3
							c-7.3,0,0,11.8,0,11.8l0,0c1.1,1.8,1.8,3.9,1.8,6.2c0,6.3-5.1,11.5-11.3,11.5c-6.3,0-11.3-5.1-11.3-11.5
							c0-2.3,0.7-4.4,1.8-6.2l0,0c0,0,7.3-11.8,0-11.8h-28.2v28.6c0,7.4-11.6,0-11.6,0l0,0c-1.8-1.1-3.9-1.8-6.1-1.8
							c-6.3,0-11.3,5.1-11.3,11.5c0,6.3,5.1,11.5,11.3,11.5c2.3,0,4.3-0.7,6.1-1.8l0,0c0,0,11.6-7.4,11.6,0v28.6h28.2
							c7.3,0,0-11.8,0-11.8l0,0c-1.1-1.8-1.8-3.9-1.8-6.2c0-6.3,5.1-11.5,11.3-11.5c6.3,0,11.3,5.1,11.3,11.5c0,2.3-0.7,4.4-1.8,6.2
							l0,0c0,0-7.3,11.8,0,11.8h28.3v-28.6c0-7.4,11.6,0,11.6,0l0,0c1.8,1.1,3.9,1.8,6.1,1.8c6.3,0,11.3-5.1,11.3-11.5
							C-53.1,252.6-58.2,247.5-64.5,247.5"/>
						<path id="Stroke-18" class="st1" d="M-64.5,247.5c-2.3,0-4.4,0.7-6.1,1.8l0,0c0,0-11.6,7.4-11.6,0v-28.6h-28.3
							c-7.3,0,0,11.8,0,11.8l0,0c1.1,1.8,1.8,3.9,1.8,6.2c0,6.3-5.1,11.5-11.3,11.5c-6.3,0-11.3-5.1-11.3-11.5
							c0-2.3,0.7-4.4,1.8-6.2l0,0c0,0,7.3-11.8,0-11.8h-28.2v28.6c0,7.4-11.6,0-11.6,0l0,0c-1.8-1.1-3.9-1.8-6.1-1.8
							c-6.3,0-11.3,5.1-11.3,11.5c0,6.3,5.1,11.5,11.3,11.5c2.3,0,4.3-0.7,6.1-1.8l0,0c0,0,11.6-7.4,11.6,0v28.6h28.2
							c7.3,0,0-11.8,0-11.8l0,0c-1.1-1.8-1.8-3.9-1.8-6.2c0-6.3,5.1-11.5,11.3-11.5c6.3,0,11.3,5.1,11.3,11.5c0,2.3-0.7,4.4-1.8,6.2
							l0,0c0,0-7.3,11.8,0,11.8h28.3v-28.6c0-7.4,11.6,0,11.6,0l0,0c1.8,1.1,3.9,1.8,6.1,1.8c6.3,0,11.3-5.1,11.3-11.5
							C-53.1,252.6-58.2,247.5-64.5,247.5z"/>
						<path id="Fill-20" class="st4" d="M-66.6,186.1c0,0-11.8-6.8-5.4-10.3l24.6-13.4l-13.2-24.9c-3.4-6.4-10.2,5.5-10.2,5.5
							c-1,1.8-2.5,3.4-4.5,4.5c-5.5,3-12.3,0.9-15.2-4.6c-2.9-5.5-0.9-12.4,4.6-15.3c2-1.1,4.1-1.5,6.2-1.3c0,0,13.6,0.9,10.2-5.5
							L-82.8,96l-24.6,13.4c-6.4,3.4-5.5-10.2-5.5-10.2c0.2-2.1-0.2-4.2-1.3-6.2c-2.9-5.5-9.7-7.6-15.2-4.6c-5.5,3-7.5,9.8-4.6,15.3
							c1.1,2,2.6,3.5,4.4,4.5c0,0,11.8,6.8,5.4,10.3l-24.6,13.4l13.2,24.9c3.4,6.4,10.2-5.5,10.2-5.5c1-1.8,2.5-3.4,4.5-4.5
							c5.5-3,12.3-0.9,15.2,4.6c2.9,5.5,0.9,12.4-4.6,15.3c-2,1.1-4.1,1.5-6.2,1.3c0,0-13.6-0.9-10.2,5.5l13.2,24.9l24.6-13.4
							c6.4-3.4,5.5,10.2,5.5,10.2c-0.2,2.1,0.2,4.2,1.3,6.2c2.9,5.5,9.7,7.6,15.2,4.6c5.5-3,7.5-9.8,4.6-15.3
							C-63.2,188.7-64.8,187.2-66.6,186.1z"/>
						<path id="Stroke-22" class="st1" d="M-62.1,190.7c-1.1-2-2.6-3.5-4.4-4.5c0,0-11.8-6.8-5.4-10.3l24.6-13.4l-13.2-24.9
							c-3.4-6.4-10.2,5.5-10.2,5.5c-1,1.8-2.5,3.4-4.5,4.5c-5.5,3-12.3,0.9-15.2-4.6c-2.9-5.5-0.9-12.4,4.6-15.3
							c2-1.1,4.1-1.5,6.2-1.3c0,0,13.6,0.9,10.2-5.5L-82.8,96l-24.6,13.4c-6.4,3.4-5.5-10.2-5.5-10.2c0.2-2.1-0.2-4.2-1.3-6.2
							c-2.9-5.5-9.7-7.6-15.2-4.6c-5.5,3-7.5,9.8-4.6,15.3c1.1,2,2.6,3.5,4.4,4.5c0,0,11.8,6.8,5.4,10.3l-24.6,13.4l13.2,24.9
							c3.4,6.4,10.2-5.5,10.2-5.5c1-1.8,2.5-3.4,4.5-4.5c5.5-3,12.3-0.9,15.2,4.6c2.9,5.5,0.9,12.4-4.6,15.3c-2,1.1-4.1,1.5-6.2,1.3
							c0,0-13.6-0.9-10.2,5.5l13.2,24.9l24.6-13.4c6.4-3.4,5.5,10.2,5.5,10.2c-0.2,2.1,0.2,4.2,1.3,6.2c2.9,5.5,9.7,7.6,15.2,4.6
							C-61.2,203.1-59.2,196.2-62.1,190.7z"/>
						<path id="Fill-24" class="st3" d="M1.9,21c0.4-2.2,1.4-4.1,2.8-5.6l0,0c0,0,9-10.1,2-11.4l-27.1-5l-4.9,27.6
							c-1.3,7.1-11.2-2.1-11.2-2.1l0,0c-1.5-1.4-3.4-2.4-5.5-2.8c-6-1.1-11.7,3-12.8,9.1c-1.1,6.1,2.9,12,8.9,13.1
							c2.2,0.4,4.3,0.1,6.2-0.7l0,0c0,0,12.4-5,11.2,2.1l-4.9,27.6l27.1,5c7,1.3-2,11.4-2,11.4l0,0c-1.4,1.5-2.4,3.4-2.8,5.6
							c-1.1,6.1,2.9,12,8.9,13.1c6,1.1,11.8-3,12.8-9.1c0.4-2.2,0.1-4.4-0.7-6.3l0,0c0,0-5-12.6,2-11.4l27.1,5l4.9-27.6
							c1.3-7.1-11.2-2.1-11.2-2.1l0,0c-1.9,0.8-4,1.1-6.2,0.7c-6-1.1-10-7-8.9-13.1c1.1-6.1,6.8-10.2,12.8-9.1
							c2.2,0.4,4.1,1.4,5.6,2.8l0,0c0,0,9.9,9.2,11.2,2.1L52,12.3L25,7.4c-7-1.3-2,11.4-2,11.4l0,0c0.8,1.9,1.1,4.1,0.7,6.3
							c-1.1,6.1-6.8,10.2-12.8,9.1C4.8,32.9,0.8,27.1,1.9,21"/>
						<path id="Stroke-26" class="st1" d="M1.9,21c0.4-2.2,1.4-4.1,2.8-5.6l0,0c0,0,9-10.1,2-11.4l-27.1-5l-4.9,27.6
							c-1.3,7.1-11.2-2.1-11.2-2.1l0,0c-1.5-1.4-3.4-2.4-5.5-2.8c-6-1.1-11.7,3-12.8,9.1c-1.1,6.1,2.9,12,8.9,13.1
							c2.2,0.4,4.3,0.1,6.2-0.7l0,0c0,0,12.4-5,11.2,2.1l-4.9,27.6l27.1,5c7,1.3-2,11.4-2,11.4l0,0c-1.4,1.5-2.4,3.4-2.8,5.6
							c-1.1,6.1,2.9,12,8.9,13.1c6,1.1,11.8-3,12.8-9.1c0.4-2.2,0.1-4.4-0.7-6.3l0,0c0,0-5-12.6,2-11.4l27.1,5l4.9-27.6
							c1.3-7.1-11.2-2.1-11.2-2.1l0,0c-1.9,0.8-4,1.1-6.2,0.7c-6-1.1-10-7-8.9-13.1c1.1-6.1,6.8-10.2,12.8-9.1
							c2.2,0.4,4.1,1.4,5.6,2.8l0,0c0,0,9.9,9.2,11.2,2.1L52,12.3L25,7.4c-7-1.3-2,11.4-2,11.4l0,0c0.8,1.9,1.1,4.1,0.7,6.3
							c-1.1,6.1-6.8,10.2-12.8,9.1C4.8,32.9,0.8,27.1,1.9,21z"/>
						<path id="Fill-28" class="st5" d="M-64.3,270.5c-2.2,0-4.3-0.7-6-1.8l0,0c0,0-11.5-7.4-11.5,0v28.6h27.9c7.2,0,0-11.8,0-11.8
							l0,0c-1.1-1.8-1.8-3.9-1.8-6.2c0-6.3,5-11.5,11.2-11.5s11.2,5.1,11.2,11.5c0,2.3-0.7,4.4-1.8,6.2l0,0c0,0-7.2,11.8,0,11.8
							h27.9v-28.6c0-7.4,11.5,0,11.5,0l0,0c1.7,1.1,3.8,1.8,6,1.8c6.2,0,11.2-5.1,11.2-11.5c0-6.3-5-11.5-11.2-11.5
							c-2.2,0-4.3,0.7-6,1.8l0,0c0,0-11.5,7.4-11.5,0v-28.6h-27.9c-7.2,0,0,11.8,0,11.8l0,0c1.1,1.8,1.8,3.9,1.8,6.2
							c0,6.3-5,11.5-11.2,11.5s-11.2-5.1-11.2-11.5c0-2.3,0.7-4.4,1.8-6.2l0,0c0,0,7.2-11.8,0-11.8h-27.9v28.6c0,7.4,11.5,0,11.5,0
							l0,0c1.7-1.1,3.8-1.8,6-1.8c6.2,0,11.2,5.1,11.2,11.5C-53.1,265.3-58.1,270.5-64.3,270.5"/>
						<path id="Stroke-30" class="st1" d="M-64.3,270.5c-2.2,0-4.3-0.7-6-1.8c0,0-11.5-7.4-11.5,0v28.6h27.9c7.2,0,0-11.8,0-11.8
							c-1.1-1.8-1.8-3.9-1.8-6.2c0-6.3,5-11.5,11.2-11.5s11.2,5.1,11.2,11.5c0,2.3-0.7,4.4-1.8,6.2c0,0-7.2,11.8,0,11.8h27.9v-28.6
							c0-7.4,11.5,0,11.5,0c1.7,1.1,3.8,1.8,6,1.8c6.2,0,11.2-5.1,11.2-11.5c0-6.3-5-11.5-11.2-11.5c-2.2,0-4.3,0.7-6,1.8
							c0,0-11.5,7.4-11.5,0v-28.6h-27.9c-7.2,0,0,11.8,0,11.8c1.1,1.8,1.8,3.9,1.8,6.2c0,6.3-5,11.5-11.2,11.5s-11.2-5.1-11.2-11.5
							c0-2.3,0.7-4.4,1.8-6.2c0,0,7.2-11.8,0-11.8h-27.9v28.6c0,7.4,11.5,0,11.5,0c1.7-1.1,3.8-1.8,6-1.8c6.2,0,11.2,5.1,11.2,11.5
							C-53.1,265.3-58.1,270.5-64.3,270.5z"/>
						<path id="Fill-32" class="st2" d="M117.4,303.3c0,0,9.9-9.4,11.4-2.4l6.1,26.9l27.7-5.9c7.2-1.5-2.5-11.1-2.5-11.1
							c-1.5-1.5-2.6-3.3-3.1-5.5c-1.4-6,2.5-11.9,8.7-13.2c6.1-1.3,12.2,2.5,13.6,8.4c0.5,2.2,0.3,4.3-0.4,6.2
							c0,0-4.6,12.6,2.5,11.1l27.7-5.9L203,285c-1.6-6.9,11.4-2.4,11.4-2.4c2,0.7,4.2,0.9,6.4,0.4c6.1-1.3,10-7.2,8.7-13.2
							c-1.4-6-7.4-9.8-13.6-8.4c-2.2,0.5-4.1,1.5-5.6,3c0,0-9.9,9.4-11.4,2.4l-6.1-26.9l-27.7,5.9c-7.2,1.5,2.5,11.1,2.5,11.1
							c1.5,1.5,2.6,3.3,3.1,5.5c1.4,6-2.5,11.9-8.7,13.2c-6.2,1.3-12.2-2.5-13.6-8.4c-0.5-2.1-0.3-4.3,0.4-6.2
							c0,0,4.6-12.6-2.5-11.1l-27.7,5.9l6.1,26.9c1.6,6.9-11.4,2.4-11.4,2.4c-2-0.7-4.2-0.9-6.4-0.4c-6.2,1.3-10,7.2-8.7,13.2
							c1.4,6,7.4,9.8,13.6,8.4C114,305.8,115.9,304.8,117.4,303.3z"/>
						<path id="Stroke-34" class="st1" d="M111.8,306.3c2.2-0.5,4.1-1.5,5.6-3l0,0c0,0,9.9-9.4,11.4-2.4l6.1,26.9l27.7-5.9
							c7.2-1.5-2.5-11.1-2.5-11.1l0,0c-1.5-1.4-2.6-3.3-3.1-5.5c-1.4-6,2.5-11.9,8.7-13.2c6.1-1.3,12.2,2.5,13.6,8.4
							c0.5,2.2,0.3,4.3-0.4,6.2l0,0c0,0-4.6,12.6,2.5,11.1l27.7-5.9L203,285c-1.6-6.9,11.4-2.4,11.4-2.4l0,0c2,0.7,4.2,0.9,6.4,0.4
							c6.1-1.3,10-7.2,8.7-13.2c-1.4-6-7.4-9.8-13.6-8.4c-2.2,0.5-4.1,1.5-5.6,3l0,0c0,0-9.9,9.4-11.4,2.4l-6.1-26.9l-27.7,5.9
							c-7.2,1.5,2.5,11.1,2.5,11.1l0,0c1.5,1.4,2.6,3.3,3.1,5.5c1.4,6-2.5,11.9-8.7,13.2c-6.2,1.3-12.2-2.5-13.6-8.4
							c-0.5-2.1-0.3-4.3,0.4-6.2l0,0c0,0,4.6-12.6-2.5-11.1l-27.7,5.9l6.1,26.9c1.6,6.9-11.4,2.4-11.4,2.4l0,0
							c-2-0.7-4.2-0.9-6.4-0.4c-6.2,1.3-10,7.2-8.7,13.2C99.5,303.8,105.6,307.6,111.8,306.3z"/>
						<path id="Fill-36" class="st4" d="M51.7,323.3c2.2,0,4.3,0.7,6,1.8l0,0c0,0,11.5,7.2,11.5,0v-27.9H41.4c-7.2,0,0-11.5,0-11.5
							l0,0c1.1-1.7,1.8-3.8,1.8-6c0-6.2-5-11.2-11.2-11.2c-6.2,0-11.2,5-11.2,11.2c0,2.2,0.7,4.3,1.8,6l0,0c0,0,7.2,11.5,0,11.5
							H-5.3v27.9c0,7.2-11.5,0-11.5,0l0,0c-1.7-1.1-3.8-1.8-6-1.8c-6.2,0-11.2,5-11.2,11.2c0,6.2,5,11.2,11.2,11.2
							c2.2,0,4.3-0.7,6-1.8l0,0c0,0,11.5-7.2,11.5,0v27.9h27.9c7.2,0,0-11.5,0-11.5l0,0c-1.1-1.7-1.8-3.8-1.8-6
							c0-6.2,5-11.2,11.2-11.2c6.2,0,11.2,5,11.2,11.2c0,2.2-0.7,4.3-1.8,6l0,0c0,0-7.2,11.5,0,11.5h27.8v-27.9c0-7.2-11.5,0-11.5,0
							l0,0c-1.7,1.1-3.8,1.8-6,1.8c-6.2,0-11.2-5-11.2-11.2C40.5,328.3,45.5,323.3,51.7,323.3"/>
						<path id="Stroke-38" class="st1" d="M51.7,323.3c2.2,0,4.3,0.7,6,1.8l0,0c0,0,11.5,7.2,11.5,0v-27.9H41.4
							c-7.2,0,0-11.5,0-11.5l0,0c1.1-1.7,1.8-3.8,1.8-6c0-6.2-5-11.2-11.2-11.2c-6.2,0-11.2,5-11.2,11.2c0,2.2,0.7,4.3,1.8,6l0,0
							c0,0,7.2,11.5,0,11.5H-5.3v27.9c0,7.2-11.5,0-11.5,0l0,0c-1.7-1.1-3.8-1.8-6-1.8c-6.2,0-11.2,5-11.2,11.2
							c0,6.2,5,11.2,11.2,11.2c2.2,0,4.3-0.7,6-1.8l0,0c0,0,11.5-7.2,11.5,0v27.9h27.9c7.2,0,0-11.5,0-11.5l0,0
							c-1.1-1.7-1.8-3.8-1.8-6c0-6.2,5-11.2,11.2-11.2c6.2,0,11.2,5,11.2,11.2c0,2.2-0.7,4.3-1.8,6l0,0c0,0-7.2,11.5,0,11.5h27.8
							v-27.9c0-7.2-11.5,0-11.5,0l0,0c-1.7,1.1-3.8,1.8-6,1.8c-6.2,0-11.2-5-11.2-11.2C40.5,328.3,45.5,323.3,51.7,323.3z"/>
						<path id="Fill-40" class="st5" d="M-108.5,384.9c0,0-7.4-11.6,0-11.6h28.6V345c0-7.3-11.8,0-11.8,0c-1.8,1.1-3.9,1.8-6.2,1.8
							c-6.3,0-11.5-5.1-11.5-11.3c0-6.3,5.1-11.3,11.5-11.3c2.3,0,4.4,0.7,6.2,1.8c0,0,11.8,7.3,11.8,0v-28.3h-28.6
							c-7.4,0,0-11.6,0-11.6c1.1-1.8,1.8-3.9,1.8-6.1c0-6.3-5.1-11.3-11.5-11.3c-6.3,0-11.5,5.1-11.5,11.3c0,2.3,0.7,4.4,1.8,6.1
							c0,0,7.4,11.6,0,11.6h-28.6v28.3c0,7.3,11.8,0,11.8,0c1.8-1.1,3.9-1.8,6.2-1.8c6.3,0,11.5,5.1,11.5,11.3
							c0,6.3-5.1,11.3-11.5,11.3c-2.3,0-4.4-0.7-6.2-1.8c0,0-11.8-7.3-11.8,0v28.3h28.6c7.4,0,0,11.6,0,11.6
							c-1.1,1.8-1.8,3.9-1.8,6.1c0,6.3,5.1,11.3,11.5,11.3c6.3,0,11.5-5.1,11.5-11.3C-106.6,388.8-107.3,386.7-108.5,384.9z"/>
						<path id="Stroke-42" class="st1" d="M-106.6,391c0-2.3-0.7-4.3-1.8-6.1l0,0c0,0-7.4-11.6,0-11.6h28.6V345c0-7.3-11.8,0-11.8,0
							l0,0c-1.8,1.1-3.9,1.8-6.2,1.8c-6.3,0-11.5-5.1-11.5-11.3c0-6.3,5.1-11.3,11.5-11.3c2.3,0,4.4,0.7,6.2,1.8l0,0
							c0,0,11.8,7.3,11.8,0v-28.3h-28.6c-7.4,0,0-11.6,0-11.6l0,0c1.1-1.8,1.8-3.9,1.8-6.1c0-6.3-5.1-11.3-11.5-11.3
							c-6.3,0-11.5,5.1-11.5,11.3c0,2.3,0.7,4.4,1.8,6.1l0,0c0,0,7.4,11.6,0,11.6h-28.6v28.3c0,7.3,11.8,0,11.8,0l0,0
							c1.8-1.1,3.9-1.8,6.2-1.8c6.3,0,11.5,5.1,11.5,11.3c0,6.3-5.1,11.3-11.5,11.3c-2.3,0-4.4-0.7-6.2-1.8l0,0c0,0-11.8-7.3-11.8,0
							v28.3h28.6c7.4,0,0,11.6,0,11.6l0,0c-1.1,1.8-1.8,3.9-1.8,6.1c0,6.3,5.1,11.3,11.5,11.3C-111.8,402.4-106.6,397.3-106.6,391z"
							/>
						<path id="Fill-44" class="st0" d="M-175.8,247.6c2.2,0,4.3,0.7,6,1.8l0,0c0,0,11.5,7.3,11.5,0v-28.2h-27.9
							c-7.2,0,0-11.6,0-11.6l0,0c1.1-1.8,1.8-3.9,1.8-6.1c0-6.3-5-11.3-11.2-11.3s-11.2,5.1-11.2,11.3c0,2.3,0.7,4.4,1.8,6.1l0,0
							c0,0,7.2,11.6,0,11.6h-27.9v28.2c0,7.3-11.5,0-11.5,0l0,0c-1.7-1.1-3.8-1.8-6-1.8c-6.2,0-11.2,5.1-11.2,11.3
							c0,6.3,5,11.3,11.2,11.3c2.2,0,4.3-0.7,6-1.8l0,0c0,0,11.5-7.3,11.5,0v28.2h27.9c7.2,0,0,11.6,0,11.6l0,0
							c-1.1,1.8-1.8,3.9-1.8,6.1c0,6.3,5,11.3,11.2,11.3s11.2-5.1,11.2-11.3c0-2.3-0.7-4.4-1.8-6.1l0,0c0,0-7.2-11.6,0-11.6h27.9
							v-28.2c0-7.3-11.5,0-11.5,0l0,0c-1.7,1.1-3.8,1.8-6,1.8c-6.2,0-11.2-5.1-11.2-11.3C-187,252.7-181.9,247.6-175.8,247.6"/>
						<path id="Stroke-46" class="st1" d="M-175.8,247.6c2.2,0,4.3,0.7,6,1.8l0,0c0,0,11.5,7.3,11.5,0v-28.2h-27.9
							c-7.2,0,0-11.6,0-11.6l0,0c1.1-1.8,1.8-3.9,1.8-6.1c0-6.3-5-11.3-11.2-11.3s-11.2,5.1-11.2,11.3c0,2.3,0.7,4.4,1.8,6.1l0,0
							c0,0,7.2,11.6,0,11.6h-27.9v28.2c0,7.3-11.5,0-11.5,0l0,0c-1.7-1.1-3.8-1.8-6-1.8c-6.2,0-11.2,5.1-11.2,11.3
							c0,6.3,5,11.3,11.2,11.3c2.2,0,4.3-0.7,6-1.8l0,0c0,0,11.5-7.3,11.5,0v28.2h27.9c7.2,0,0,11.6,0,11.6l0,0
							c-1.1,1.8-1.8,3.9-1.8,6.1c0,6.3,5,11.3,11.2,11.3s11.2-5.1,11.2-11.3c0-2.3-0.7-4.4-1.8-6.1l0,0c0,0-7.2-11.6,0-11.6h27.9
							v-28.2c0-7.3-11.5,0-11.5,0l0,0c-1.7,1.1-3.8,1.8-6,1.8c-6.2,0-11.2-5.1-11.2-11.3C-187,252.7-181.9,247.6-175.8,247.6z"/>
						<path id="Fill-48" class="st0" d="M57.7,399.7c0,0,11.5,7.2,11.5,0v-27.9H41.4c-7.2,0,0-11.5,0-11.5c1.1-1.7,1.8-3.8,1.8-6
							c0-6.2-5-11.2-11.2-11.2c-6.2,0-11.2,5-11.2,11.2c0,2.2,0.7,4.3,1.8,6c0,0,7.2,11.5,0,11.5H-5.3v27.9c0,7.2-11.5,0-11.5,0
							c-1.7-1.1-3.8-1.8-6-1.8c-6.2,0-11.2,5-11.2,11.2c0,6.2,5,11.2,11.2,11.2c2.2,0,4.3-0.7,6-1.8c0,0,11.5-7.2,11.5,0v27.9h27.9
							c7.2,0,0-11.5,0-11.5c-1.1-1.7-1.8-3.8-1.8-6c0-6.2,5-11.2,11.2-11.2c6.2,0,11.2,5,11.2,11.2c0,2.2-0.7,4.3-1.8,6
							c0,0-7.2,11.5,0,11.5h27.8v-27.9c0-7.2-11.5,0-11.5,0c-1.7,1.1-3.8,1.8-6,1.8c-6.2,0-11.2-5-11.2-11.2c0-6.2,5-11.2,11.2-11.2
							C53.9,397.9,56,398.5,57.7,399.7z"/>
						<path id="Stroke-50" class="st1" d="M51.7,397.9c2.2,0,4.3,0.7,6,1.8l0,0c0,0,11.5,7.2,11.5,0v-27.9H41.4
							c-7.2,0,0-11.5,0-11.5l0,0c1.1-1.7,1.8-3.8,1.8-6c0-6.2-5-11.2-11.2-11.2c-6.2,0-11.2,5-11.2,11.2c0,2.2,0.7,4.3,1.8,6l0,0
							c0,0,7.2,11.5,0,11.5H-5.3v27.9c0,7.2-11.5,0-11.5,0l0,0c-1.7-1.1-3.8-1.8-6-1.8c-6.2,0-11.2,5-11.2,11.2
							c0,6.2,5,11.2,11.2,11.2c2.2,0,4.3-0.7,6-1.8l0,0c0,0,11.5-7.2,11.5,0v27.9h27.9c7.2,0,0-11.5,0-11.5l0,0
							c-1.1-1.7-1.8-3.8-1.8-6c0-6.2,5-11.2,11.2-11.2c6.2,0,11.2,5,11.2,11.2c0,2.2-0.7,4.3-1.8,6l0,0c0,0-7.2,11.5,0,11.5h27.8
							v-27.9c0-7.2-11.5,0-11.5,0l0,0c-1.7,1.1-3.8,1.8-6,1.8c-6.2,0-11.2-5-11.2-11.2C40.5,402.9,45.5,397.9,51.7,397.9z"/>
					</g>
					<g id="Page-1_1_" transform="translate(0.000000, 309.000000)">
						<polygon id="Fill-1" class="st2" points="105.8,630.9 70.6,628.6 82.3,680.2 122.2,664.2 						"/>
						<polygon id="Fill-2" class="st5" points="419.7,534.9 340.6,458.5 295.5,493.3 206.3,600 216.5,615.7 324.8,542.7 
							398.2,638.2 468.2,603.4 						"/>
						<g id="Group-27">
							<path id="Fill-3" class="st6" d="M425.9,587.3l-10.2,8l-83-28.6l-19.3-8l-38.7,8c0,0,0-32,36.4-30.9l37.5,9.1l44.3,3.4
								L425.9,587.3z"/>
							<polygon id="Fill-5" class="st5" points="499.8,671.9 474.8,688 445.3,688 307.7,636.5 106.5,673.1 100.8,629.6 285,548.5 
								446.4,602.2 							"/>
							<path id="Fill-7" class="st6" d="M338.4,468.4l-17.1,3.4l-3.7-4.4c-6-7.1-7.2-17.1-3.1-25.4l47.7-62.9
								c0,0,13.6-30.9,35.2-18.3c21.6,12.6-18.2,33.2-18.2,33.2l-23.9,37.7l2.3,19.4L338.4,468.4z"/>
							<path id="Fill-9" class="st6" d="M446.4,305c24.5,0,44.3,20,44.3,44.6c0,24.6-19.9,44.6-44.3,44.6c-24.5,0-44.3-20-44.3-44.6
								C402.1,324.9,421.9,305,446.4,305"/>
							<path id="Fill-11" class="st6" d="M426.5,382.1l20.5,49.2l48.9-20.6c0,0-15.9-38.9-15.9-40
								C479.9,369.6,426.5,382.1,426.5,382.1"/>
							<g id="Group-15" transform="translate(173.655322, 63.392705)">
								<g id="Clip-14">
								</g>
								<defs>
									<filter id="Adobe_OpacityMaskFilter" filterUnits="userSpaceOnUse" x="159.1" y="339.1" width="228.4" height="292.3">
										<feColorMatrix  type="matrix" values="1 0 0 0 0  0 1 0 0 0  0 0 1 0 0  0 0 0 1 0"/>
									</filter>
								</defs>
								<mask maskUnits="userSpaceOnUse" x="159.1" y="339.1" width="228.4" height="292.3" id="mask-2_1_">
									<g class="st7">
										<polygon id="path-1_1_" class="st8" points="159.1,339.1 387.5,339.1 387.5,631.4 159.1,631.4 										"/>
									</g>
								</mask>
								<path id="Fill-13" class="st9" d="M387.5,464.2c0,26.9-4.2,53.7-12.5,79.2l-3.3,10.3l-15.9,73.2l-17.1,4.6l-12.5-16
									l-25-18.3L283,567.4l-15.6-26.1l-4.9-8.2l-17.1-85.7l-64.8-36.6l-21.6-3.4l4.5-12.6l19.3-26.3l19.3-2.3l5.7-4.6l4.5,2.3
									l18.2-10.3l5.7,2.3l33.2,3.1l20.2-4.3l29-15.7l11.9,2l40.9,34.3C382.1,403.8,387.5,433.9,387.5,464.2"/>
							</g>
							<g id="Group-18" transform="translate(0.000000, 157.883719)">
								<g id="Clip-17">
								</g>
								<defs>
									<filter id="Adobe_OpacityMaskFilter_1_" filterUnits="userSpaceOnUse" x="-0.2" y="425.3" width="98" height="130.8">
										<feColorMatrix  type="matrix" values="1 0 0 0 0  0 1 0 0 0  0 0 1 0 0  0 0 0 1 0"/>
									</filter>
								</defs>
								<mask maskUnits="userSpaceOnUse" x="-0.2" y="425.3" width="98" height="130.8" id="mask-4_1_">
									<g class="st10">
										<polygon id="path-3_1_" class="st8" points="-0.2,425.3 97.8,425.3 97.8,556.1 -0.2,556.1 										"/>
									</g>
								</mask>
								<path id="Fill-16_1_" class="st11" d="M82.8,491.8c0,0,10.2-17.4,5.9-19.4c-4.3-2-22.6-10.1-22.6-10.1l-26.8-8.9
									c0,0-38.7-57.8-39.5-7.5C-1,496,28,508.1,28,508.1s25.9,56,40.5,47c14.6-8.9,29.3-39.2,29.3-39.2S71.4,501.7,82.8,491.8"/>
							</g>
							<polygon id="Fill-21" class="st0" points="461.2,455.9 425.9,521 413.4,521 405.5,543.9 387.3,548.5 436.2,602.2 
								505.5,539.3 522.6,528 548.7,510.7 							"/>
							<path id="Fill-23" class="st12" d="M411.9,316.4l-4.8,1.9c-3.1-2.1-3.9-6.3-1.8-9.4c0,0,0.1-0.1,0.1-0.1l-8.9-0.4
								c22.2-29.8,64.3-35.8,93.9-13.4c2.2,1.6,4.3,3.4,6.2,5.3c0.4-1.4,4.8,1.3,6.6,4.1c0.6-2.3,4.7,8.7,6.2,16.5
								c0.7-2.6,3.3,1.6,1,5.6c1.4-0.2,2.1,3.5,1,5.6c1.6-0.7,1.3,3.7-0.4,6.7c2.3-0.2-17.8,31.1-25.9,49.3
								c-2.4-10.9-5-22.3-12.6-30.4c-1.3-1.4-2.7-2.6-4.1-3.9l-7.6-6.8c-8.9-7.9-16.9-17.6-28.8-20.5c-8.1-2-13.3-2.5-8.8-11.7
								c-4,1.7-7.7,4.2-11.8,5.7C411.4,319.1,412,317.7,411.9,316.4"/>
							<path id="Fill-25" class="st6" d="M468.6,346.7c4.4,0,8,3.6,8,8c0,4.4-3.6,8-8,8c-4.4,0-8-3.6-8-8
								C460.6,350.3,464.2,346.7,468.6,346.7"/>
						</g>
					</g>
					
						<g id="Page-1_2_" transform="translate(233.000000, 261.000000) scale(-1, 1) translate(-233.000000, -261.000000) translate(210.000000, 226.000000)">
						<g id="Clip-2">
						</g>
						<defs>
							<filter id="Adobe_OpacityMaskFilter_2_" filterUnits="userSpaceOnUse">
								<feColorMatrix  type="matrix" values="1 0 0 0 0  0 1 0 0 0  0 0 1 0 0  0 0 0 1 0"/>
							</filter>
						</defs>
						<mask maskUnits="userSpaceOnUse" id="mask-6_1_">
							<g class="st13">
								<polygon id="path-5_1_" class="st8" points="-233.2,205 -147.1,205 -147.1,337 -233.2,337 								"/>
							</g>
						</mask>
						<path id="Fill-1_1_" class="st14" d="M-149.7,209.7l-2.1-2.1c0.9-0.8,1.7-1.7,2.5-2.5l2.1,2.1
							C-148,208-148.9,208.9-149.7,209.7z M-154.9,214.7l-2-2.2c0.9-0.8,1.7-1.6,2.6-2.5l2.1,2.2
							C-153.2,213-154.1,213.9-154.9,214.7z M-160.2,219.6l-2-2.2c0.9-0.8,1.8-1.6,2.6-2.4l2,2.2
							C-158.4,217.9-159.3,218.8-160.2,219.6z M-165.6,224.4l-2-2.2c0.9-0.8,1.8-1.6,2.7-2.4l2,2.2
							C-163.8,222.8-164.7,223.6-165.6,224.4z M-170.9,229.2l-2-2.2l2.7-2.4l2,2.2L-170.9,229.2z M-176.2,234l-2-2.2
							c0.9-0.8,1.8-1.6,2.7-2.4l2,2.2C-174.5,232.4-175.3,233.2-176.2,234z M-181.5,238.9l-2-2.2c0.9-0.8,1.8-1.6,2.6-2.4l2,2.2
							C-179.8,237.2-180.6,238.1-181.5,238.9z M-186.7,243.8l-2.1-2.2l0.6-0.6c0.7-0.6,1.3-1.3,2-1.9l2.1,2.2
							c-0.7,0.6-1.3,1.2-2,1.9L-186.7,243.8z M-191.8,248.8l-2.1-2.1c0.8-0.9,1.7-1.7,2.6-2.5l2.1,2.1
							C-190.1,247.1-191,247.9-191.8,248.8z M-196.8,253.9l-2.2-2c0.8-0.9,1.7-1.8,2.5-2.6l2.2,2.1
							C-195.2,252.2-196,253.1-196.8,253.9z M-201.6,259.2l-2.3-2c0.8-0.9,1.6-1.8,2.4-2.7l2.2,2
							C-200,257.4-200.8,258.3-201.6,259.2z M-206.1,264.7l-2.3-1.9c0.8-0.9,1.5-1.9,2.3-2.8l2.3,1.9
							C-204.7,262.8-205.4,263.8-206.1,264.7z M-210.5,270.3l-2.4-1.8c0.7-1,1.4-1.9,2.2-2.9l2.4,1.8
							C-209.1,268.4-209.8,269.4-210.5,270.3z M-214.5,276.2l-2.5-1.6c0.7-1,1.3-2,2-3l2.5,1.7
							C-213.2,274.2-213.9,275.2-214.5,276.2z M-218.2,282.3l-2.6-1.5c0.6-1,1.2-2.1,1.8-3.1l2.6,1.6
							C-217,280.2-217.6,281.2-218.2,282.3z M-221.5,288.5l-2.7-1.3c0.5-1.1,1.1-2.2,1.6-3.3l2.7,1.4
							C-220.4,286.4-221,287.5-221.5,288.5z M-224.3,295l-2.8-1.1c0.4-1.1,0.9-2.3,1.4-3.4l2.7,1.2
							C-223.4,292.8-223.9,293.9-224.3,295z M-226.6,301.7l-2.9-0.9c0.4-1.2,0.7-2.3,1.1-3.5l2.8,1
							C-225.9,299.4-226.3,300.6-226.6,301.7z M-228.4,308.5l-2.9-0.6c0.3-1.2,0.5-2.4,0.9-3.6l2.9,0.8
							C-227.9,306.2-228.2,307.4-228.4,308.5z M-229.6,315.5l-3-0.4c0.2-1.2,0.3-2.4,0.5-3.6l2.9,0.5
							C-229.3,313.1-229.5,314.3-229.6,315.5z M-230.2,322.5l-3-0.1c0-1.2,0.1-2.4,0.2-3.7l3,0.2
							C-230.1,320.1-230.2,321.3-230.2,322.5z M-233.1,329.7c-0.1-1.2-0.1-2.4-0.2-3.7l3-0.1c0,1.2,0.1,2.4,0.2,3.5L-233.1,329.7z
							 M-232.1,337c-0.2-1.2-0.4-2.4-0.6-3.6l3-0.4c0.1,1.2,0.3,2.3,0.5,3.5L-232.1,337z"/>
					</g>
				</g>
			</g>
		</g>
	</g>
</g>
</svg>
