<?xml version="1.0" encoding="utf-8"?>
<!-- Generator: Adobe Illustrator 24.3.0, SVG Export Plug-In . SVG Version: 6.00 Build 0)  -->
<svg version="1.1" id="Layer_1" xmlns="http://www.w3.org/2000/svg" xmlns:xlink="http://www.w3.org/1999/xlink" x="0px" y="0px"
	 viewBox="0 0 1083 1024" style="enable-background:new 0 0 1083 1024;" xml:space="preserve">
<style type="text/css">
	.st0{fill-rule:evenodd;clip-rule:evenodd;fill:#F5E69D;}
	.st1{fill-rule:evenodd;clip-rule:evenodd;fill:#D2E3CF;}
	.st2{fill-rule:evenodd;clip-rule:evenodd;fill:#DCF0F6;}
	.st3{fill-rule:evenodd;clip-rule:evenodd;fill:#F7E1DA;}
</style>
<desc>Created with Sketch.</desc>
<g id="Welcome">
	<g id="Desktop" transform="translate(-643.000000, -3636.000000)">
		<g id="Group-28" transform="translate(46.000000, 3613.000000)">
			<g id="Page-1" transform="translate(557.000000, 0.000000)">
				<path id="Fill-31" class="st0" d="M703.4,1033.3c-1.6,0-2.9-1.3-3-3l-0.9-131.6c-0.9-11.1-7-17.2-16.7-17.2
					c-4.3,0-9.2,1.2-15,3.6v-0.3l-6.6,3.4c-5.6,2.9-11.7,4.5-17.9,4.5c-21.9,0-39.7-17.8-39.8-39.6c-0.1-22,17.5-40,39.3-40.1h0
					c6.5,0,12.4,1.4,18,4.3l7.5,3.8l-0.1-0.5c4.9,1.8,9.2,2.7,13,2.7c10,0,16.8-6.5,17.7-17L698,674.5c0-0.8,0.3-1.5,0.8-2.1
					c0.6-0.6,1.3-0.9,2.1-0.9l130.7-0.9c9.2-0.8,13.3-5,15.1-8.3c3.1-5.7,2.6-13.5-1.6-23.6h0.3l-3.4-6.6
					c-2.9-5.7-4.4-11.7-4.5-18.1c-0.1-10.6,4-20.7,11.4-28.3c7.4-7.6,17.3-11.8,27.9-11.9c21.9,0,39.7,17.8,39.8,39.6
					c0,6.3-1.4,12.4-4.2,18.1l-3.3,6.6h0.4c-3.8,9.8-4.1,17.6-0.9,23.3c2.8,5,8,8,14.7,8.5l130.7-0.9c1.4,0,2.6,1,2.9,2.3
					c0,0.2,0,0.4,0,0.6l0.9,130.9c-0.1,1.3-0.5,2.7-1.1,3.5c-0.3,0.5-1,1.4-3.8,1.4c-2.6,0-7.2-0.8-14.9-4.7l-12-6.1l0,1.8
					c-3.7-0.8-7.5-1.3-11.4-1.3c-14.3,0.1-27.4,5.7-37.2,15.7c-9.8,10-15.2,23.3-15.1,37.3c0.2,28.8,23.7,52.3,52.3,52.3
					c4.2,0,8.2-0.5,12.1-1.4v1.3l6.6-3l5.4-2.8c8.3-4.3,13.1-5.3,15.7-5.3h0.1c1.9,0,3.6,0.1,4,5l0.9,131.4l0,0.3
					c-0.3,1.4-1.4,2.3-2.8,2.3l-129.6,0.9c-1.3-0.1-2.7-0.5-3.5-1.1c-0.4-0.3-1.4-1-1.4-3.8c0-2.5,0.8-7.2,4.6-15l6-12H931
					c0.9-3.9,1.3-7.9,1.3-11.9c-0.2-28.8-23.7-52.3-52.3-52.3c-14.3,0.1-27.4,5.7-37.2,15.7c-9.8,10-15.2,23.3-15.1,37.3
					c0,4,0.5,8,1.4,11.9l-1.3,0l2.9,6.5l2.8,5.4c4.3,8.4,5.2,13.2,5.3,15.8c0,2,0,3.7-5,4.1l-130.2,0.9H703.4z"/>
				<path id="Fill-63" class="st1" d="M473.5,816.4c-7.2,0.1-13.9,1.9-19.9,5v0c-23.6,12.3-30.7,2.5-31.6-6.7l-1.2-129.6
					c0-4.1-3.4-7.4-7.5-7.3l-129.9,1.2c-10.5-0.7-18.8-7.6-7-31.5h0c3-6,4.7-12.8,4.6-19.9c-0.2-24.2-20-43.6-44.2-43.4
					c-24.2,0.2-43.6,20-43.4,44.2c0.1,7.2,1.9,13.9,5,19.8h0c12.3,23.6,2.5,30.7-6.7,31.6l-129.6,1.2c-3.8,0-6.9,3-7.3,6.8
					c0,0.2,0.1,0.5,0.1,0.7l1.2,129.2c0.2,2.4,0.9,4.5,2,6.1c1.6,2.2,4,3.2,7.4,3.2c4.4,0,10-1.8,16.7-5.4l5.4-2.8l0,0.4
					c5.2-1.9,10.6-3,16.2-3c26.2-0.2,47.7,20.9,48,47.1c0.2,26.2-20.9,47.7-47.1,48c-5.6,0.1-11-0.9-16.2-2.7v0.4l-5.4-2.7
					c-7.3-3.6-13.3-5.5-17.7-5.4c-2.2,0-7.8,0.1-8.4,9.1l1.2,129.8c0,0.2-0.1,0.5-0.1,0.7c0.4,3.7,3.6,6.7,7.4,6.6l128.9-1.2
					c2.4-0.2,4.5-0.9,6.1-2c2.2-1.6,3.2-4,3.2-7.4c0-4.4-1.8-10-5.4-16.7l-2.8-5.4l0.4,0c-1.9-5.2-3-10.6-3-16.2
					c-0.2-26.2,20.9-47.7,47.1-48c26.2-0.2,47.7,20.9,48,47.1c0.1,5.6-0.9,11-2.7,16.2l0.4,0l-2.7,5.4c-3.6,7.3-5.5,13.3-5.4,17.7
					c0,2.2,0.1,7.7,9.1,8.4l129.8-1.2l0.3,0c4.1,0,7.4-3.4,7.3-7.5l-1.2-129.9c0.7-10.5,7.6-18.8,31.5-7v0c6,3,12.8,4.7,19.9,4.6
					c24.2-0.2,43.6-20,43.4-44.2C517.5,835.6,497.7,816.2,473.5,816.4"/>
				<path id="Fill-71" class="st2" d="M548.4,296.5l-99.2,87.1c-3.8,2.8-4.9,1.5-6.2,0c-1.7-1.9-4.2-6.2-6.6-15.3l-3.4-13.1
					l-1.3,1.1c-1.9-3.5-4.2-6.8-6.8-9.8c-9.3-10.6-22.2-16.9-36.3-17.9c-14.1-0.9-27.7,3.7-38.3,13c-1.1,1-2.2,2-3.2,3
					c-18.9,19.6-19.7,51-1.7,71.6c2.7,3,5.6,5.7,8.9,8l-1,0.9l6.6,3l5.7,2.3c8.1,3.2,11.8,6.2,13.5,8.1c1.9,2.1,1.6,3.2,1.5,3.8
					c-0.2,1-1,2.3-2.2,3.5l-98.6,86.5l-0.3,0.3c-1.2,0.7-2.7,0.4-3.6-0.6l-86.9-99c-6.7-6.4-17-9.5-26.4,0.2
					c-2.6,2.7-5,6.3-7.3,10.8l-0.2-0.2l-2.5,6.3c-1.9,4.9-4.8,9.3-8.4,13c-0.8,0.8-1.5,1.5-2.4,2.3c-8,7-18.3,10.5-29,9.8
					c-10.7-0.7-20.4-5.5-27.5-13.5c-13.6-15.5-13.1-39.3,1.3-54.1c0.8-0.8,1.6-1.6,2.4-2.3c4.8-4.2,10.3-7.1,16.5-8.7l7.9-2
					l-0.3-0.3c6.4-2.3,11.2-5,14.3-8.3c6.1-6.4,6.2-14.7,0.2-22.7l-87.4-99.6c-1-1.2-1-2.9,0.1-4l99.2-87.1c5-5.2,6.9-11,5.7-16.6
					c-1.4-6.5-6.9-12.2-16.3-16.9l0.3-0.2l-6.7-2.7c-5.9-2.4-11.1-6-15.3-10.7c-13.6-15.5-13.1-39.3,1.2-54.1
					c0.8-0.8,1.6-1.6,2.4-2.3c16.6-14.5,41.9-12.9,56.4,3.7c4.2,4.8,7.1,10.3,8.7,16.5l1.8,7.3l0.3-0.2c3.6,10.4,8.4,16.6,14.6,18.7
					c3.7,1.3,9.5,1.7,16.7-3.7l99.5-87.4c1.2-1.1,3.1-1,4.2,0.3l87.2,99.4c2.6,3.6,1.4,4.8,0.7,5.5c-0.3,0.3-0.5,0.5-0.7,0.7
					c-1.9,1.7-6.2,4.2-15.3,6.6l-13.1,3.4l1.1,1.3c-3.5,1.9-6.8,4.2-9.8,6.8c-1.1,1-2.2,2-3.2,3c-18.9,19.6-19.7,51.1-1.7,71.6
					c9.3,10.6,22.2,16.9,36.3,17.9c14.1,0.9,27.7-3.7,38.3-13c1.1-1,2.2-2,3.2-3c1.8-1.8,3.4-3.8,4.9-5.8l0.9,1l3-6.6l2.3-5.7
					c2.3-5.8,4.8-10.1,7.3-12.7c0.3-0.3,0.5-0.5,0.8-0.8c2.1-1.9,3.3-1.6,3.8-1.5c1,0.2,2.3,1,3.5,2.2l86.2,98.2
					c0.9,1.1,1,2.6,0.1,3.7L548.4,296.5z"/>
				<path id="Fill-95" class="st3" d="M666.4,139.9c0.3-1.3,1.4-2.3,2.8-2.3l130.6-1c10.5-1,16.7-7.3,17.1-16.8
					c0.1-4.3-0.9-9.2-3.1-14.8l0.4,0l-3.5-6.9c-2.9-5.6-4.4-11.7-4.5-18c0-0.6,0-1.1,0-1.7c0.7-21.3,18-38.1,39.3-38.2
					c10.6-0.1,20.6,4,28.1,11.4c7.5,7.4,11.7,17.4,11.8,27.9c0,0.6,0,1.1,0,1.7c-0.2,5.7-1.6,11.2-4.2,16.3l-3.2,6.3l0.3,0
					c-2.2,5.4-3.3,10.1-3.5,14.2c-0.4,10.3,6,16.9,17,17.7l131.3-1c1.6,0,3,1.3,3,2.9l1,130.6c0.7,7.1,3.8,12.3,8.7,15
					c5.8,3.1,13.6,2.7,23.3-1.2l0,0.3l6.4-3.3c5.6-2.9,11.7-4.4,18-4.5c21.9-0.2,39.8,17.5,39.9,39.3c0,0.6,0,1.1,0,1.7
					c-0.7,21.3-18,38.1-39.3,38.2c-6.3,0-12.4-1.4-18-4.2l-6.3-3.1l0,0.3c-10.3-4.2-18.2-4.6-23.8-1.4c-3.3,1.9-7.4,6-8.1,14.9
					c0,0,1,131.3,1,131.3c-0.1,1.7-1.3,3-2.9,3l-131.1,1c-4.6-0.4-4.6-2.1-4.7-4l0-0.5c0.1-2.5,1-7.3,5-15.2l6-12l-1.7,0
					c0.7-3.1,1.1-6.3,1.2-9.6c0-0.7,0-1.5,0-2.2c-0.1-14-5.7-27.1-15.6-36.9c-10-9.8-23.2-15.2-37.2-15.1c-28.2,0.2-51,22.4-52,50.5
					c0,0.7,0,1.5,0,2.2c0,4,0.5,7.9,1.4,11.8l-1.3,0l3,6.5l2.8,5.4c4,7.7,4.8,12.3,4.9,14.8l0,0.5c-0.1,2.1-0.7,2.9-1.3,3.3
					c-0.8,0.6-2.2,1-3.9,1.2l-129.5,0.9c-1.4,0-2.6-0.9-2.9-2.3c0-0.1,0-0.3,0-0.4l-1-131.1c0.4-4.6,2.1-4.6,4-4.7
					c2.6,0,7.4,0.8,15.7,5l12,5.9l0-1.7c3.9,0.9,7.8,1.3,11.8,1.3c28.2-0.2,51-22.4,52-50.5c0-0.7,0-1.5,0-2.2
					c-0.2-28.9-23.9-52.2-52.8-52c-4,0-7.9,0.5-11.8,1.4l0-1.3l-6.5,3l-5.4,2.8c-7.7,4-12.3,4.8-14.8,4.9c-2.8,0-3.5-0.9-3.8-1.3
					c-0.6-0.8-1-2.2-1.2-3.9l-0.9-130.1L666.4,139.9z"/>
			</g>
		</g>
	</g>
</g>
</svg>
