<?xml version="1.0" encoding="utf-8"?>
<!-- Generator: Adobe Illustrator 24.3.0, SVG Export Plug-In . SVG Version: 6.00 Build 0)  -->
<svg version="1.1" id="Layer_1" xmlns="http://www.w3.org/2000/svg" xmlns:xlink="http://www.w3.org/1999/xlink" x="0px" y="0px"
	 viewBox="0 0 983 1024" style="enable-background:new 0 0 983 1024;" xml:space="preserve">
<style type="text/css">
	.st0{fill-rule:evenodd;clip-rule:evenodd;fill:#FCE89B;}
	.st1{filter:url(#Adobe_OpacityMaskFilter);}
	.st2{fill-rule:evenodd;clip-rule:evenodd;fill:#FFFFFF;}
	.st3{mask:url(#mask-2_1_);fill-rule:evenodd;clip-rule:evenodd;fill:#D2E3CF;}
	.st4{fill-rule:evenodd;clip-rule:evenodd;fill:#F3CEC5;}
	.st5{fill-rule:evenodd;clip-rule:evenodd;fill:#C6E9F7;}
</style>
<g>
	<desc>Created with Sketch.</desc>
	<g id="Welcome">
		<g id="Desktop" transform="translate(-635.000000, -154.000000)">
			<path id="Fill-64" class="st0" d="M1031.1,969.9c-3.2,0.6-6.5,1.7-9.7,3.4c-10.2,5.5-19.9,10.7-29.7,13.9
				c-14.8,5-29.9,5.7-46.2-3c-33.2-17.9-45.5-62.1-26.3-94.4c23.6-39.8,66.5-34.9,101.2-13.4c15,9.3,33.9,0.6,37.6-15.4l0-90.8
				l0-58.8h0v-4.2h-0.7v3.3h-153c-11.7-3.1-19.4-14.3-18.4-25.9c0-4.1,1-8.4,3.3-12.4c8.9-15.5,17.1-30.9,17.9-47.1
				c0.1-8.4-1.8-16.9-6.7-25.9c-18-32.9-62.7-45.1-95.2-26.1c-20.6,12-29.3,29.1-30,47.5c-0.1,16.9,6.4,34.7,16.5,50.8
				c3.1,5,4.2,10.4,3.7,15.6c-0.2,10.9-7.7,20.9-18.9,23.6h-92.3h-40.8c-0.4,0.7-0.9,1.3-1.3,2c-11.5,18.6-9.1,32.4,8,44.1
				c11,7.5,22.6,13.9,32.2,23.7c14.7,14.9,15.6,23.6,4.4,42c-12.6,20.7-12.5,21.5,6.8,36.2c5.2,3.9,10.7,6.9,3.4,14.4
				c-10.7,11-6.9,21.7,2.4,29.7c13,11.2,14.9,25.6,12.5,41.7c-2.1,14.1-5.3,27.9-7.9,41.9c-7.2,37.7,2.8,55.1,37.1,65
				c35.8,10.3,71.5,1.4,107.2-2c23.9-2.3,47.5-10.5,72-4.5c15.9,3.9,24.7,13.5,26.7,31.2c3,25.8,10.7,50.4,15.1,75.7
				c3.6,20.7,12.7,27.1,31.5,26.3c15.7-0.7,38.2-1,64.4-1.1l0-188C1055.1,976.6,1043.3,968.6,1031.1,969.9"/>
			<g id="Group-68" transform="translate(807.000000, 154.000000)">
				<g id="Clip-67">
				</g>
				<defs>
					<filter id="Adobe_OpacityMaskFilter" filterUnits="userSpaceOnUse" x="334" y="0" width="476.9" height="568.9">
						<feColorMatrix  type="matrix" values="1 0 0 0 0  0 1 0 0 0  0 0 1 0 0  0 0 0 1 0"/>
					</filter>
				</defs>
				<mask maskUnits="userSpaceOnUse" x="334" y="0" width="476.9" height="568.9" id="mask-2_1_">
					<g class="st1">
						<polygon id="path-1_1_" class="st2" points="334,0 810.9,0 810.9,568.9 334,568.9 						"/>
					</g>
				</mask>
				<path id="Fill-66" class="st3" d="M379.2,202.3c7.3,14.7,27.7,18.8,40.1,6.3c28.7-28.9,69.2-43.6,101.4-10.3
					c26.1,27,24.5,73-3.5,98.1c-13.8,12.3-28.6,15.1-44.1,13.6c-10.3-0.9-20.9-3.7-32-6.7c-3.6-1-7-1.3-10.2-1.1
					c-12.1,1.6-21.7,12.1-21.7,24.7l20.8,86.7l0,0l13.8,57.7h0l0.5,2.1l0.5,2l0.7-0.2l150.3-35.7c14.7,1.6,25.7,16.3,21.1,31.7
					c-7.9,26.8-14.1,52.8,6.6,75.8c25.2,27.9,71.4,29.5,98.5,3.5c33.5-32,18.8-72.4-10.3-100.9c-11.8-11.6-8.8-30.4,4-38.6
					l91.9-21.8c4.8-33.7,4.4-67-1-98c-15.9-80.1-47.1-142-96.4-187C609,11.8,492.2-13.4,368.3,6.2c-11.6,1.8-23.1,4.4-34.2,7.6
					l24,100L379.2,202.3z"/>
			</g>
			<path id="Fill-71" class="st4" d="M1341.3,1177.6c22.4-1.2,11.5-15.1,1.2-36.6c-83.7-174.8,16-315.6,32.3-335.3
				c24.5-29.5,43.2-61.7,56.3-94.7h-94.4c-14.4,5-21.7,22.5-12.9,36.5c21.6,34.4,26.5,77-13.5,100.3c-32.4,19-77,6.8-94.9-26.2
				c-14.8-27.1-2.6-50.9,11.3-75.1c8-13.9,0.8-30.7-13.2-35.7h-154.5v143.9c0,2-0.3,3.9-0.7,5.7v0.6c-3.9,15.7-22.6,24.2-37.4,15
				c-34.6-21.4-77.4-26.3-100.9,13.5c-19.1,32.2-5,75.8,28.1,93.6c16,8.6,30.1,8.1,44.1,3.5c9.9-3.4,19.7-8.6,29.5-14.2
				c3.2-1.8,6.5-2.8,9.8-3.2c12.7-2.2,24,4.8,26.8,18.5v0.4c0.4,1.8,0.7,3.8,0.7,5.8v182.2C1159.7,1176,1313.8,1179.1,1341.3,1177.6
				"/>
			<path id="Fill-73" class="st5" d="M1195.9,460.3c-23.5-39.8-66.3-34.9-101-13.4c-14.9,9.3-33.8,0.6-37.5-15.4
				c-0.4-1.8-0.7-3.7-0.7-5.7V238.1c-51.6,2.3-101.7,17.8-149.9,41.2c-12.9,6.3-25.7,13.2-38.3,20.3
				C780,349.5,730.7,426,734.9,538.1c2.3,62.9-25.8,108.7-67.5,147.2c-7.5,7-15,13.9-21.2,22.2c-0.8,1.1-1.6,2.2-2.4,3.4h40.7h92
				c11.2-2.7,18.6-12.8,18.9-23.6c0.1-4.5-1-9.2-3.8-13.6c-10.5-16.7-17-35.4-16.4-52.8c0.7-18.4,9.4-35.5,29.9-47.5
				c32.4-19,77-6.8,94.9,26.2c4.9,8.9,6.8,17.5,6.7,25.9c-0.2,16.9-8.7,33-18,49.2c-1.9,3.4-2.9,6.9-3.2,10.4
				c-0.9,11.7,6.7,22.9,18.4,26h152.6v-3.3V565.2c0-2,0.3-3.9,0.7-5.8c2.9-12.2,14.7-20.2,26.9-18.9c3.3,0.3,6.6,1.4,9.8,3.2
				c9.8,5.6,19.5,10.8,29.5,14.2c14.7,5,29.8,5.7,46.1-3C1202.7,536.8,1214.9,492.6,1195.9,460.3"/>
		</g>
	</g>
</g>
</svg>
